NewtSerif.ufo
<glyph name="exclam" format="1">
  <advance width="229"/>
  <unicode hex="0021"/>
  <outline>
    <contour>
      <point x="76" y="556" type="curve" smooth="yes"/>
      <point x="76" y="579"/>
      <point x="83" y="585"/>
      <point x="98" y="589" type="curve" smooth="yes"/>
      <point x="126" y="598"/>
      <point x="136" y="599"/>
      <point x="156" y="599" type="curve" smooth="yes"/>
      <point x="173" y="599"/>
      <point x="180" y="602"/>
      <point x="180" y="580" type="curve" smooth="yes"/>
      <point x="180" y="556"/>
      <point x="155" y="442"/>
      <point x="153" y="426" type="curve" smooth="yes"/>
      <point x="145" y="361"/>
      <point x="140" y="247"/>
      <point x="137" y="202" type="curve" smooth="yes"/>
      <point x="136" y="182"/>
      <point x="136" y="172"/>
      <point x="122" y="172" type="curve" smooth="yes"/>
      <point x="110" y="172"/>
      <point x="112" y="180"/>
      <point x="110" y="203" type="curve" smooth="yes"/>
      <point x="108" y="233"/>
      <point x="103" y="353"/>
      <point x="96" y="418" type="curve" smooth="yes"/>
      <point x="93" y="437"/>
      <point x="76" y="541"/>
    </contour>
    <contour>
      <point x="126" y="78" type="curve" smooth="yes"/>
      <point x="152" y="78"/>
      <point x="175" y="66"/>
      <point x="175" y="44" type="curve" smooth="yes"/>
      <point x="175" y="8"/>
      <point x="143" y="-7"/>
      <point x="117" y="-7" type="curve" smooth="yes"/>
      <point x="76" y="-7"/>
      <point x="67" y="16"/>
      <point x="67" y="35" type="curve" smooth="yes"/>
      <point x="67" y="64"/>
      <point x="106" y="78"/>
    </contour>
  </outline>
</glyph>
<glyph name="quotedbl" format="1">
  <advance width="269"/>
  <unicode hex="0022"/>
  <outline>
    <contour>
      <point x="89" y="604" type="curve" smooth="yes"/>
      <point x="109" y="604"/>
      <point x="114" y="592"/>
      <point x="109" y="572" type="curve" smooth="yes"/>
      <point x="98" y="523"/>
      <point x="84" y="465"/>
      <point x="80" y="411" type="curve" smooth="yes"/>
      <point x="78" y="392"/>
      <point x="74" y="382"/>
      <point x="64" y="382" type="curve" smooth="yes"/>
      <point x="55" y="382"/>
      <point x="54" y="390"/>
      <point x="52" y="411" type="curve" smooth="yes"/>
      <point x="49" y="454"/>
      <point x="34" y="521"/>
      <point x="24" y="566" type="curve"/>
      <point x="19" y="594"/>
      <point x="30" y="596"/>
      <point x="45" y="599" type="curve"/>
      <point x="59" y="603"/>
      <point x="78" y="604"/>
    </contour>
    <contour>
      <point x="227" y="604" type="curve" smooth="yes"/>
      <point x="247" y="604"/>
      <point x="253" y="592"/>
      <point x="247" y="572" type="curve"/>
      <point x="236" y="523"/>
      <point x="222" y="465"/>
      <point x="218" y="411" type="curve" smooth="yes"/>
      <point x="216" y="392"/>
      <point x="212" y="382"/>
      <point x="202" y="382" type="curve" smooth="yes"/>
      <point x="193" y="382"/>
      <point x="192" y="390"/>
      <point x="190" y="411" type="curve" smooth="yes"/>
      <point x="187" y="454"/>
      <point x="172" y="521"/>
      <point x="162" y="566" type="curve"/>
      <point x="157" y="594"/>
      <point x="168" y="596"/>
      <point x="184" y="599" type="curve"/>
      <point x="197" y="603"/>
      <point x="216" y="604"/>
    </contour>
  </outline>
</glyph>
<glyph name="numbersign" format="1">
  <advance width="428"/>
  <unicode hex="0023"/>
  <outline>
    <contour>
      <point x="28" y="432" type="curve"/>
      <point x="35" y="446"/>
      <point x="48" y="449"/>
      <point x="69" y="449" type="curve" smooth="yes"/>
      <point x="108" y="449" type="line" smooth="yes"/>
      <point x="121" y="449"/>
      <point x="119" y="456"/>
      <point x="120" y="469" type="curve" smooth="yes"/>
      <point x="121" y="515"/>
      <point x="121" y="558"/>
      <point x="122" y="584" type="curve" smooth="yes"/>
      <point x="122" y="602"/>
      <point x="125" y="608"/>
      <point x="140" y="610" type="curve"/>
      <point x="147" y="612"/>
      <point x="155" y="610"/>
      <point x="155" y="586" type="curve" smooth="yes"/>
      <point x="155" y="582"/>
      <point x="154" y="537"/>
      <point x="154" y="475" type="curve" smooth="yes"/>
      <point x="154" y="455"/>
      <point x="151" y="450"/>
      <point x="172" y="450" type="curve" smooth="yes"/>
      <point x="208" y="451"/>
      <point x="248" y="453"/>
      <point x="278" y="455" type="curve" smooth="yes"/>
      <point x="291" y="456"/>
      <point x="292" y="460"/>
      <point x="292" y="478" type="curve" smooth="yes"/>
      <point x="295" y="584" type="line" smooth="yes"/>
      <point x="295" y="602"/>
      <point x="298" y="608"/>
      <point x="312" y="610" type="curve" smooth="yes"/>
      <point x="320" y="612"/>
      <point x="328" y="610"/>
      <point x="328" y="586" type="curve" smooth="yes"/>
      <point x="328" y="582"/>
      <point x="328" y="540"/>
      <point x="327" y="479" type="curve" smooth="yes"/>
      <point x="327" y="462"/>
      <point x="324" y="461"/>
      <point x="342" y="461" type="curve"/>
      <point x="350" y="462"/>
      <point x="359" y="462"/>
      <point x="368" y="464" type="curve" smooth="yes"/>
      <point x="394" y="468"/>
      <point x="413" y="473"/>
      <point x="413" y="454" type="curve" smooth="yes"/>
      <point x="413" y="446"/>
      <point x="402" y="432"/>
      <point x="385" y="423" type="curve"/>
      <point x="374" y="416"/>
      <point x="360" y="416"/>
      <point x="347" y="416" type="curve" smooth="yes"/>
      <point x="328" y="416"/>
      <point x="327" y="415"/>
      <point x="327" y="395" type="curve" smooth="yes"/>
      <point x="327" y="339"/>
      <point x="327" y="272"/>
      <point x="325" y="218" type="curve" smooth="yes"/>
      <point x="325" y="204"/>
      <point x="322" y="202"/>
      <point x="339" y="202" type="curve" smooth="yes"/>
      <point x="349" y="202"/>
      <point x="359" y="203"/>
      <point x="368" y="205" type="curve" smooth="yes"/>
      <point x="394" y="209"/>
      <point x="413" y="214"/>
      <point x="413" y="195" type="curve" smooth="yes"/>
      <point x="413" y="187"/>
      <point x="402" y="172"/>
      <point x="385" y="163" type="curve" smooth="yes"/>
      <point x="374" y="157"/>
      <point x="360" y="157"/>
      <point x="347" y="157" type="curve" smooth="yes"/>
      <point x="329" y="157"/>
      <point x="324" y="152"/>
      <point x="325" y="130" type="curve" smooth="yes"/>
      <point x="327" y="94"/>
      <point x="327" y="68"/>
      <point x="325" y="51" type="curve"/>
      <point x="324" y="24"/>
      <point x="324" y="12"/>
      <point x="316" y="3" type="curve"/>
      <point x="304" y="-8"/>
      <point x="293" y="-13"/>
      <point x="281" y="-14" type="curve"/>
      <point x="265" y="-17"/>
      <point x="271" y="6"/>
      <point x="272" y="11" type="curve" smooth="yes"/>
      <point x="277" y="32"/>
      <point x="279" y="66"/>
      <point x="281" y="89" type="curve" smooth="yes"/>
      <point x="282" y="100"/>
      <point x="283" y="122"/>
      <point x="282" y="141" type="curve" smooth="yes"/>
      <point x="281" y="152"/>
      <point x="282" y="156"/>
      <point x="265" y="156" type="curve" smooth="yes"/>
      <point x="170" y="154" type="line" smooth="yes"/>
      <point x="156" y="153"/>
      <point x="152" y="152"/>
      <point x="152" y="134" type="curve" smooth="yes"/>
      <point x="153" y="100"/>
      <point x="152" y="60"/>
      <point x="152" y="51" type="curve" smooth="yes"/>
      <point x="152" y="26"/>
      <point x="152" y="12"/>
      <point x="143" y="3" type="curve" smooth="yes"/>
      <point x="131" y="-8"/>
      <point x="120" y="-13"/>
      <point x="109" y="-14" type="curve"/>
      <point x="93" y="-17"/>
      <point x="98" y="6"/>
      <point x="99" y="11" type="curve" smooth="yes"/>
      <point x="104" y="32"/>
      <point x="107" y="66"/>
      <point x="109" y="89" type="curve" smooth="yes"/>
      <point x="109" y="100"/>
      <point x="110" y="117"/>
      <point x="109" y="136" type="curve" smooth="yes"/>
      <point x="109" y="141"/>
      <point x="110" y="153"/>
      <point x="98" y="154" type="curve" smooth="yes"/>
      <point x="87" y="155"/>
      <point x="73" y="155"/>
      <point x="52" y="154" type="curve" smooth="yes"/>
      <point x="30" y="153"/>
      <point x="22" y="159"/>
      <point x="28" y="172" type="curve" smooth="yes"/>
      <point x="35" y="187"/>
      <point x="48" y="190"/>
      <point x="69" y="190" type="curve" smooth="yes"/>
      <point x="94" y="190" type="line" smooth="yes"/>
      <point x="113" y="190"/>
      <point x="112" y="200"/>
      <point x="113" y="207" type="curve" smooth="yes"/>
      <point x="116" y="260"/>
      <point x="114" y="333"/>
      <point x="117" y="396" type="curve" smooth="yes"/>
      <point x="117" y="401"/>
      <point x="114" y="412"/>
      <point x="104" y="412" type="curve" smooth="yes"/>
      <point x="89" y="413"/>
      <point x="72" y="413"/>
      <point x="51" y="412" type="curve" smooth="yes"/>
      <point x="31" y="412"/>
      <point x="20" y="413"/>
    </contour>
    <contour>
      <point x="154" y="396" type="curve" smooth="yes"/>
      <point x="152" y="205" type="line" smooth="yes"/>
      <point x="152" y="190"/>
      <point x="153" y="192"/>
      <point x="168" y="192" type="curve" smooth="yes"/>
      <point x="201" y="193"/>
      <point x="240" y="194"/>
      <point x="269" y="196" type="curve" smooth="yes"/>
      <point x="285" y="198"/>
      <point x="285" y="199"/>
      <point x="285" y="215" type="curve" smooth="yes"/>
      <point x="287" y="266"/>
      <point x="288" y="335"/>
      <point x="290" y="395" type="curve" smooth="yes"/>
      <point x="290" y="412"/>
      <point x="289" y="415"/>
      <point x="275" y="415" type="curve" smooth="yes"/>
      <point x="246" y="415"/>
      <point x="203" y="413"/>
      <point x="171" y="412" type="curve" smooth="yes"/>
      <point x="157" y="412"/>
      <point x="154" y="408"/>
    </contour>
  </outline>
</glyph>
<glyph name="dollar" format="1">
  <advance width="358"/>
  <unicode hex="0024"/>
  <outline>
    <contour>
      <point x="200" y="603" type="curve" smooth="yes"/>
      <point x="207" y="603"/>
      <point x="208" y="598"/>
      <point x="208" y="589" type="curve" smooth="yes"/>
      <point x="209" y="574"/>
      <point x="209" y="548"/>
      <point x="209" y="535" type="curve" smooth="yes"/>
      <point x="209" y="525"/>
      <point x="215" y="523"/>
      <point x="220" y="523" type="curve" smooth="yes"/>
      <point x="274" y="523"/>
      <point x="301" y="506"/>
      <point x="302" y="473" type="curve" smooth="yes"/>
      <point x="303" y="449"/>
      <point x="278" y="423"/>
      <point x="269" y="416" type="curve" smooth="yes"/>
      <point x="260" y="410"/>
      <point x="258" y="407"/>
      <point x="249" y="410" type="curve" smooth="yes"/>
      <point x="242" y="412"/>
      <point x="247" y="425"/>
      <point x="247" y="429" type="curve"/>
      <point x="256" y="458"/>
      <point x="233" y="490"/>
      <point x="189" y="490" type="curve" smooth="yes"/>
      <point x="136" y="490"/>
      <point x="106" y="454"/>
      <point x="106" y="426" type="curve" smooth="yes"/>
      <point x="106" y="395"/>
      <point x="125" y="377"/>
      <point x="159" y="361" type="curve" smooth="yes"/>
      <point x="172" y="355"/>
      <point x="213" y="340"/>
      <point x="231" y="333" type="curve" smooth="yes"/>
      <point x="287" y="312"/>
      <point x="323" y="276"/>
      <point x="323" y="226" type="curve" smooth="yes"/>
      <point x="323" y="140"/>
      <point x="273" y="94"/>
      <point x="211" y="77" type="curve" smooth="yes"/>
      <point x="200" y="75"/>
      <point x="197" y="72"/>
      <point x="196" y="61" type="curve" smooth="yes"/>
      <point x="195" y="45"/>
      <point x="194" y="20"/>
      <point x="194" y="9" type="curve"/>
      <point x="192" y="2"/>
      <point x="191" y="0"/>
      <point x="182" y="-4" type="curve" smooth="yes"/>
      <point x="176" y="-7"/>
      <point x="170" y="-8"/>
      <point x="165" y="-8" type="curve" smooth="yes"/>
      <point x="158" y="-8"/>
      <point x="157" y="-4"/>
      <point x="157" y="5" type="curve" smooth="yes"/>
      <point x="157" y="57" type="line" smooth="yes"/>
      <point x="157" y="64"/>
      <point x="150" y="70"/>
      <point x="143" y="70" type="curve" smooth="yes"/>
      <point x="59" y="70"/>
      <point x="25" y="100"/>
      <point x="25" y="140" type="curve" smooth="yes"/>
      <point x="25" y="171"/>
      <point x="56" y="205"/>
      <point x="82" y="219" type="curve" smooth="yes"/>
      <point x="95" y="227"/>
      <point x="102" y="226"/>
      <point x="105" y="221" type="curve" smooth="yes"/>
      <point x="109" y="215"/>
      <point x="105" y="206"/>
      <point x="102" y="202" type="curve" smooth="yes"/>
      <point x="88" y="184"/>
      <point x="87" y="167"/>
      <point x="87" y="157" type="curve" smooth="yes"/>
      <point x="87" y="125"/>
      <point x="123" y="104"/>
      <point x="164" y="104" type="curve" smooth="yes"/>
      <point x="202" y="104"/>
      <point x="272" y="124"/>
      <point x="272" y="189" type="curve" smooth="yes"/>
      <point x="272" y="229"/>
      <point x="243" y="250"/>
      <point x="208" y="267" type="curve" smooth="yes"/>
      <point x="176" y="283"/>
      <point x="125" y="300"/>
      <point x="104" y="311" type="curve"/>
      <point x="72" y="331"/>
      <point x="50" y="345"/>
      <point x="50" y="395" type="curve" smooth="yes"/>
      <point x="50" y="470"/>
      <point x="104" y="502"/>
      <point x="154" y="513" type="curve" smooth="yes"/>
      <point x="164" y="516"/>
      <point x="169" y="521"/>
      <point x="169" y="530" type="curve" smooth="yes"/>
      <point x="170" y="546"/>
      <point x="170" y="574"/>
      <point x="172" y="585" type="curve" smooth="yes"/>
      <point x="173" y="593"/>
      <point x="173" y="594"/>
      <point x="183" y="598" type="curve" smooth="yes"/>
      <point x="189" y="601"/>
      <point x="195" y="603"/>
    </contour>
  </outline>
</glyph>
<glyph name="percent" format="1">
  <advance width="894"/>
  <unicode hex="0025"/>
  <outline>
    <contour>
      <point x="658" y="-14" type="curve" smooth="yes"/>
      <point x="556" y="-14"/>
      <point x="499" y="48"/>
      <point x="499" y="151" type="curve" smooth="yes"/>
      <point x="499" y="229"/>
      <point x="566" y="337"/>
      <point x="698" y="337" type="curve" smooth="yes"/>
      <point x="793" y="337"/>
      <point x="852" y="273"/>
      <point x="852" y="194" type="curve"/>
      <point x="854" y="51"/>
      <point x="754" y="-14"/>
    </contour>
    <contour>
      <point x="684" y="302" type="curve" smooth="yes"/>
      <point x="610" y="302"/>
      <point x="568" y="237"/>
      <point x="568" y="165" type="curve" smooth="yes"/>
      <point x="568" y="57"/>
      <point x="620" y="16"/>
      <point x="671" y="16" type="curve" smooth="yes"/>
      <point x="726" y="16"/>
      <point x="785" y="50"/>
      <point x="785" y="183" type="curve" smooth="yes"/>
      <point x="785" y="249"/>
      <point x="749" y="302"/>
    </contour>
    <contour>
      <point x="201" y="256" type="curve" smooth="yes"/>
      <point x="99" y="256"/>
      <point x="42" y="318"/>
      <point x="42" y="422" type="curve" smooth="yes"/>
      <point x="42" y="499"/>
      <point x="109" y="607"/>
      <point x="241" y="607" type="curve" smooth="yes"/>
      <point x="336" y="607"/>
      <point x="395" y="543"/>
      <point x="395" y="465" type="curve"/>
      <point x="397" y="321"/>
      <point x="297" y="256"/>
    </contour>
    <contour>
      <point x="226" y="574" type="curve" smooth="yes"/>
      <point x="153" y="574"/>
      <point x="110" y="508"/>
      <point x="110" y="435" type="curve" smooth="yes"/>
      <point x="110" y="327"/>
      <point x="163" y="288"/>
      <point x="214" y="288" type="curve" smooth="yes"/>
      <point x="269" y="288"/>
      <point x="327" y="320"/>
      <point x="327" y="454" type="curve" smooth="yes"/>
      <point x="327" y="519"/>
      <point x="293" y="574"/>
    </contour>
    <contour>
      <point x="251" y="-35" type="curve"/>
      <point x="230" y="-31"/>
      <point x="243" y="-15"/>
      <point x="272" y="29" type="curve"/>
      <point x="320" y="106"/>
      <point x="513" y="455"/>
      <point x="554" y="530" type="curve" smooth="yes"/>
      <point x="566" y="551"/>
      <point x="575" y="582"/>
      <point x="582" y="603" type="curve"/>
      <point x="588" y="616"/>
      <point x="603" y="615"/>
      <point x="609" y="606" type="curve" smooth="yes"/>
      <point x="616" y="597"/>
      <point x="610" y="562"/>
      <point x="607" y="541" type="curve" smooth="yes"/>
      <point x="602" y="514"/>
      <point x="598" y="503"/>
      <point x="582" y="480" type="curve"/>
      <point x="549" y="428"/>
      <point x="356" y="102"/>
      <point x="297" y="6" type="curve" smooth="yes"/>
      <point x="274" y="-31"/>
      <point x="263" y="-36"/>
    </contour>
  </outline>
</glyph>
<glyph name="ampersand" format="1">
  <advance width="742"/>
  <unicode hex="0026"/>
  <outline>
    <contour>
      <point x="47" y="140" type="curve" smooth="yes"/>
      <point x="47" y="242"/>
      <point x="111" y="301"/>
      <point x="186" y="327" type="curve" smooth="yes"/>
      <point x="196" y="331"/>
      <point x="205" y="338"/>
      <point x="196" y="358" type="curve" smooth="yes"/>
      <point x="186" y="383"/>
      <point x="178" y="418"/>
      <point x="178" y="442" type="curve" smooth="yes"/>
      <point x="178" y="545"/>
      <point x="290" y="605"/>
      <point x="343" y="605" type="curve" smooth="yes"/>
      <point x="417" y="605"/>
      <point x="463" y="584"/>
      <point x="463" y="507" type="curve" smooth="yes"/>
      <point x="463" y="455"/>
      <point x="419" y="411"/>
      <point x="375" y="384" type="curve" smooth="yes"/>
      <point x="354" y="372"/>
      <point x="348" y="370"/>
      <point x="341" y="375" type="curve" smooth="yes"/>
      <point x="329" y="384"/>
      <point x="354" y="408"/>
      <point x="360" y="414" type="curve" smooth="yes"/>
      <point x="380" y="434"/>
      <point x="391" y="460"/>
      <point x="391" y="501" type="curve" smooth="yes"/>
      <point x="391" y="531"/>
      <point x="363" y="566"/>
      <point x="337" y="566" type="curve" smooth="yes"/>
      <point x="275" y="566"/>
      <point x="250" y="503"/>
      <point x="250" y="467" type="curve" smooth="yes"/>
      <point x="251" y="339"/>
      <point x="398" y="198"/>
      <point x="449" y="149" type="curve" smooth="yes"/>
      <point x="463" y="136"/>
      <point x="472" y="136"/>
      <point x="487" y="150" type="curve"/>
      <point x="522" y="189"/>
      <point x="571" y="276"/>
      <point x="531" y="321" type="curve" smooth="yes"/>
      <point x="520" y="333"/>
      <point x="489" y="329"/>
      <point x="473" y="323" type="curve"/>
      <point x="458" y="319"/>
      <point x="456" y="315"/>
      <point x="448" y="323" type="curve" smooth="yes"/>
      <point x="442" y="329"/>
      <point x="443" y="337"/>
      <point x="453" y="348" type="curve" smooth="yes"/>
      <point x="475" y="370"/>
      <point x="512" y="389"/>
      <point x="543" y="389" type="curve" smooth="yes"/>
      <point x="595" y="389"/>
      <point x="620" y="344"/>
      <point x="620" y="312" type="curve" smooth="yes"/>
      <point x="620" y="244"/>
      <point x="523" y="141"/>
      <point x="500" y="120" type="curve"/>
      <point x="491" y="110"/>
      <point x="503" y="99"/>
      <point x="523" y="87" type="curve"/>
      <point x="553" y="67"/>
      <point x="614" y="56"/>
      <point x="661" y="56" type="curve" smooth="yes"/>
      <point x="691" y="56"/>
      <point x="699" y="60"/>
      <point x="715" y="66" type="curve" smooth="yes"/>
      <point x="724" y="70"/>
      <point x="745" y="75"/>
      <point x="749" y="66" type="curve"/>
      <point x="754" y="58"/>
      <point x="750" y="51"/>
      <point x="745" y="45" type="curve"/>
      <point x="726" y="28"/>
      <point x="714" y="19"/>
      <point x="681" y="3" type="curve"/>
      <point x="662" y="-5"/>
      <point x="644" y="-10"/>
      <point x="622" y="-10" type="curve" smooth="yes"/>
      <point x="575" y="-10"/>
      <point x="498" y="17"/>
      <point x="462" y="42" type="curve" smooth="yes"/>
      <point x="449" y="51"/>
      <point x="435" y="53"/>
      <point x="426" y="45" type="curve"/>
      <point x="396" y="24"/>
      <point x="319" y="-13"/>
      <point x="238" y="-13" type="curve" smooth="yes"/>
      <point x="72" y="-13"/>
      <point x="47" y="85"/>
    </contour>
    <contour>
      <point x="194" y="294" type="curve"/>
      <point x="144" y="261"/>
      <point x="124" y="210"/>
      <point x="124" y="159" type="curve" smooth="yes"/>
      <point x="124" y="93"/>
      <point x="173" y="30"/>
      <point x="282" y="30" type="curve" smooth="yes"/>
      <point x="326" y="30"/>
      <point x="368" y="43"/>
      <point x="398" y="67" type="curve" smooth="yes"/>
      <point x="412" y="78"/>
      <point x="409" y="87"/>
      <point x="402" y="92" type="curve" smooth="yes"/>
      <point x="343" y="141"/>
      <point x="269" y="227"/>
      <point x="233" y="289" type="curve" smooth="yes"/>
      <point x="225" y="302"/>
      <point x="214" y="306"/>
    </contour>
  </outline>
</glyph>
<glyph name="quotesingle" format="1">
  <advance width="131"/>
  <unicode hex="0027"/>
  <outline>
    <contour>
      <point x="89" y="604" type="curve" smooth="yes"/>
      <point x="109" y="604"/>
      <point x="114" y="592"/>
      <point x="109" y="572" type="curve" smooth="yes"/>
      <point x="98" y="523"/>
      <point x="84" y="465"/>
      <point x="80" y="411" type="curve" smooth="yes"/>
      <point x="78" y="392"/>
      <point x="74" y="382"/>
      <point x="64" y="382" type="curve" smooth="yes"/>
      <point x="55" y="382"/>
      <point x="54" y="390"/>
      <point x="52" y="411" type="curve" smooth="yes"/>
      <point x="49" y="454"/>
      <point x="34" y="521"/>
      <point x="24" y="566" type="curve"/>
      <point x="19" y="594"/>
      <point x="30" y="596"/>
      <point x="45" y="599" type="curve"/>
      <point x="59" y="603"/>
      <point x="78" y="604"/>
    </contour>
  </outline>
</glyph>
<glyph name="parenleft" format="1">
  <advance width="279"/>
  <unicode hex="0028"/>
  <outline>
    <contour>
      <point x="203" y="630" type="curve" smooth="yes"/>
      <point x="210" y="621"/>
      <point x="202" y="611"/>
      <point x="189" y="590" type="curve"/>
      <point x="157" y="543"/>
      <point x="113" y="415"/>
      <point x="113" y="287" type="curve" smooth="yes"/>
      <point x="113" y="162"/>
      <point x="157" y="54"/>
      <point x="212" y="-25" type="curve" smooth="yes"/>
      <point x="218" y="-35"/>
      <point x="225" y="-51"/>
      <point x="215" y="-59" type="curve" smooth="yes"/>
      <point x="206" y="-67"/>
      <point x="189" y="-55"/>
      <point x="173" y="-40" type="curve" smooth="yes"/>
      <point x="113" y="14"/>
      <point x="42" y="114"/>
      <point x="42" y="287" type="curve" smooth="yes"/>
      <point x="42" y="422"/>
      <point x="112" y="568"/>
      <point x="163" y="617" type="curve" smooth="yes"/>
      <point x="177" y="630"/>
      <point x="192" y="643"/>
    </contour>
  </outline>
</glyph>
<glyph name="parenright" format="1">
  <advance width="277"/>
  <unicode hex="0029"/>
  <outline>
    <contour>
      <point x="77" y="-56" type="curve"/>
      <point x="68" y="-45"/>
      <point x="77" y="-35"/>
      <point x="91" y="-15" type="curve"/>
      <point x="121" y="32"/>
      <point x="162" y="158"/>
      <point x="162" y="286" type="curve" smooth="yes"/>
      <point x="162" y="410"/>
      <point x="121" y="519"/>
      <point x="66" y="597" type="curve"/>
      <point x="61" y="606"/>
      <point x="55" y="622"/>
      <point x="63" y="630" type="curve"/>
      <point x="73" y="638"/>
      <point x="90" y="625"/>
      <point x="106" y="611" type="curve" smooth="yes"/>
      <point x="166" y="557"/>
      <point x="236" y="457"/>
      <point x="236" y="286" type="curve" smooth="yes"/>
      <point x="236" y="152"/>
      <point x="167" y="6"/>
      <point x="116" y="-41" type="curve"/>
      <point x="103" y="-56"/>
      <point x="88" y="-67"/>
    </contour>
  </outline>
</glyph>
<glyph name="asterisk" format="1">
  <advance width="419"/>
  <unicode hex="002A"/>
  <outline>
    <contour>
      <point x="225" y="527" type="curve"/>
      <point x="215" y="455" type="line" smooth="yes"/>
      <point x="214" y="443"/>
      <point x="221" y="440"/>
      <point x="231" y="444" type="curve" smooth="yes"/>
      <point x="265" y="458"/>
      <point x="321" y="484"/>
      <point x="344" y="503" type="curve"/>
      <point x="378" y="529"/>
      <point x="379" y="505"/>
      <point x="375" y="476" type="curve" smooth="yes"/>
      <point x="372" y="449"/>
      <point x="354" y="439"/>
      <point x="321" y="429" type="curve"/>
      <point x="306" y="423"/>
      <point x="269" y="417"/>
      <point x="244" y="412" type="curve" smooth="yes"/>
      <point x="236" y="411"/>
      <point x="231" y="403"/>
      <point x="238" y="393" type="curve" smooth="yes"/>
      <point x="261" y="364"/>
      <point x="304" y="317"/>
      <point x="327" y="300" type="curve" smooth="yes"/>
      <point x="362" y="275"/>
      <point x="338" y="268"/>
      <point x="311" y="263" type="curve" smooth="yes"/>
      <point x="285" y="258"/>
      <point x="269" y="274"/>
      <point x="250" y="301" type="curve" smooth="yes"/>
      <point x="241" y="314"/>
      <point x="218" y="350"/>
      <point x="205" y="372" type="curve" smooth="yes"/>
      <point x="199" y="384"/>
      <point x="191" y="380"/>
      <point x="184" y="374" type="curve" smooth="yes"/>
      <point x="157" y="350"/>
      <point x="108" y="298"/>
      <point x="89" y="269" type="curve" smooth="yes"/>
      <point x="66" y="233"/>
      <point x="58" y="256"/>
      <point x="52" y="285" type="curve"/>
      <point x="45" y="312"/>
      <point x="60" y="327"/>
      <point x="88" y="348" type="curve" smooth="yes"/>
      <point x="100" y="358"/>
      <point x="131" y="378"/>
      <point x="154" y="392" type="curve"/>
      <point x="165" y="400"/>
      <point x="159" y="409"/>
      <point x="152" y="412" type="curve" smooth="yes"/>
      <point x="118" y="429"/>
      <point x="59" y="449"/>
      <point x="29" y="453" type="curve" smooth="yes"/>
      <point x="-12" y="459"/>
      <point x="7" y="475"/>
      <point x="26" y="493" type="curve"/>
      <point x="50" y="508"/>
      <point x="68" y="503"/>
      <point x="99" y="487" type="curve" smooth="yes"/>
      <point x="113" y="480"/>
      <point x="140" y="465"/>
      <point x="161" y="448" type="curve"/>
      <point x="169" y="443"/>
      <point x="177" y="445"/>
      <point x="177" y="460" type="curve" smooth="yes"/>
      <point x="177" y="496"/>
      <point x="173" y="550"/>
      <point x="165" y="577" type="curve" smooth="yes"/>
      <point x="153" y="617"/>
      <point x="175" y="609"/>
      <point x="200" y="595" type="curve" smooth="yes"/>
      <point x="225" y="582"/>
      <point x="227" y="562"/>
    </contour>
  </outline>
</glyph>
<glyph name="plus" format="1">
  <advance width="419"/>
  <unicode hex="002B"/>
  <outline>
    <contour>
      <point x="51" y="263" type="curve" smooth="yes"/>
      <point x="30" y="263"/>
      <point x="22" y="269"/>
      <point x="28" y="281" type="curve" smooth="yes"/>
      <point x="35" y="295"/>
      <point x="47" y="298"/>
      <point x="68" y="298" type="curve" smooth="yes"/>
      <point x="181" y="301" type="line" smooth="yes"/>
      <point x="196" y="301"/>
      <point x="198" y="305"/>
      <point x="199" y="320" type="curve"/>
      <point x="199" y="349"/>
      <point x="200" y="382"/>
      <point x="201" y="422" type="curve" smooth="yes"/>
      <point x="201" y="443"/>
      <point x="204" y="455"/>
      <point x="218" y="462" type="curve" smooth="yes"/>
      <point x="231" y="468"/>
      <point x="236" y="460"/>
      <point x="236" y="439" type="curve" smooth="yes"/>
      <point x="236" y="418"/>
      <point x="235" y="374"/>
      <point x="235" y="324" type="curve" smooth="yes"/>
      <point x="235" y="306"/>
      <point x="237" y="303"/>
      <point x="251" y="304" type="curve" smooth="yes"/>
      <point x="282" y="306"/>
      <point x="313" y="309"/>
      <point x="350" y="312" type="curve" smooth="yes"/>
      <point x="375" y="315"/>
      <point x="395" y="322"/>
      <point x="395" y="303" type="curve" smooth="yes"/>
      <point x="395" y="295"/>
      <point x="383" y="281"/>
      <point x="367" y="273" type="curve"/>
      <point x="356" y="266"/>
      <point x="343" y="266"/>
      <point x="330" y="266" type="curve" smooth="yes"/>
      <point x="315" y="265"/>
      <point x="286" y="265"/>
      <point x="253" y="264" type="curve" smooth="yes"/>
      <point x="236" y="263"/>
      <point x="234" y="261"/>
      <point x="234" y="244" type="curve" smooth="yes"/>
      <point x="234" y="208"/>
      <point x="233" y="176"/>
      <point x="233" y="160" type="curve" smooth="yes"/>
      <point x="233" y="147"/>
      <point x="233" y="134"/>
      <point x="226" y="123" type="curve"/>
      <point x="218" y="107"/>
      <point x="204" y="95"/>
      <point x="196" y="95" type="curve" smooth="yes"/>
      <point x="178" y="95"/>
      <point x="184" y="114"/>
      <point x="187" y="140" type="curve" smooth="yes"/>
      <point x="190" y="178"/>
      <point x="193" y="212"/>
      <point x="195" y="247" type="curve"/>
      <point x="197" y="263"/>
      <point x="193" y="264"/>
      <point x="178" y="264" type="curve" smooth="yes"/>
      <point x="124" y="263"/>
      <point x="72" y="263"/>
    </contour>
  </outline>
</glyph>
<glyph name="comma" format="1">
  <advance width="205"/>
  <unicode hex="002C"/>
  <outline>
    <contour>
      <point x="68" y="-154" type="curve" smooth="yes"/>
      <point x="64" y="-151"/>
      <point x="66" y="-141"/>
      <point x="79" y="-123" type="curve" smooth="yes"/>
      <point x="105" y="-88"/>
      <point x="115" y="-37"/>
      <point x="105" y="-19" type="curve"/>
      <point x="93" y="-3"/>
      <point x="76" y="-4"/>
      <point x="66" y="-8" type="curve" smooth="yes"/>
      <point x="51" y="-13"/>
      <point x="45" y="-17"/>
      <point x="38" y="-10" type="curve" smooth="yes"/>
      <point x="29" y="-2"/>
      <point x="37" y="14"/>
      <point x="50" y="31" type="curve" smooth="yes"/>
      <point x="71" y="58"/>
      <point x="90" y="69"/>
      <point x="120" y="69" type="curve" smooth="yes"/>
      <point x="142" y="69"/>
      <point x="168" y="40"/>
      <point x="168" y="-7" type="curve" smooth="yes"/>
      <point x="168" y="-51"/>
      <point x="133" y="-111"/>
      <point x="112" y="-135" type="curve" smooth="yes"/>
      <point x="88" y="-162"/>
      <point x="76" y="-160"/>
    </contour>
  </outline>
</glyph>
<glyph name="hyphen" format="1">
  <advance width="348"/>
  <unicode hex="002D"/>
  <outline>
    <contour>
      <point x="87" y="295" type="curve" smooth="yes"/>
      <point x="108" y="301"/>
      <point x="208" y="301"/>
      <point x="249" y="316" type="curve" smooth="yes"/>
      <point x="290" y="332"/>
      <point x="284" y="308"/>
      <point x="272" y="281" type="curve" smooth="yes"/>
      <point x="260" y="254"/>
      <point x="239" y="250"/>
      <point x="202" y="249" type="curve" smooth="yes"/>
      <point x="173" y="248"/>
      <point x="104" y="247"/>
      <point x="78" y="247" type="curve" smooth="yes"/>
      <point x="55" y="247"/>
      <point x="46" y="250"/>
      <point x="54" y="270" type="curve"/>
      <point x="59" y="286"/>
      <point x="71" y="291"/>
    </contour>
  </outline>
</glyph>
<glyph name="period" format="1">
  <advance width="212"/>
  <unicode hex="002E"/>
  <outline>
    <contour>
      <point x="112" y="82" type="curve" smooth="yes"/>
      <point x="138" y="82"/>
      <point x="162" y="69"/>
      <point x="162" y="46" type="curve" smooth="yes"/>
      <point x="162" y="9"/>
      <point x="130" y="-7"/>
      <point x="103" y="-7" type="curve" smooth="yes"/>
      <point x="60" y="-7"/>
      <point x="51" y="18"/>
      <point x="51" y="36" type="curve" smooth="yes"/>
      <point x="51" y="67"/>
      <point x="91" y="82"/>
    </contour>
  </outline>
</glyph>
<glyph name="slash" format="1">
  <advance width="448"/>
  <unicode hex="002F"/>
  <outline>
    <contour>
      <point x="49" y="-35" type="curve"/>
      <point x="28" y="-31"/>
      <point x="41" y="-15"/>
      <point x="70" y="29" type="curve"/>
      <point x="118" y="106"/>
      <point x="311" y="455"/>
      <point x="352" y="530" type="curve" smooth="yes"/>
      <point x="364" y="551"/>
      <point x="373" y="582"/>
      <point x="380" y="603" type="curve"/>
      <point x="386" y="616"/>
      <point x="401" y="615"/>
      <point x="407" y="606" type="curve" smooth="yes"/>
      <point x="414" y="597"/>
      <point x="408" y="562"/>
      <point x="405" y="541" type="curve" smooth="yes"/>
      <point x="400" y="514"/>
      <point x="396" y="503"/>
      <point x="380" y="480" type="curve"/>
      <point x="347" y="428"/>
      <point x="154" y="102"/>
      <point x="95" y="6" type="curve" smooth="yes"/>
      <point x="72" y="-31"/>
      <point x="61" y="-36"/>
    </contour>
  </outline>
</glyph>
<glyph name="zero" format="1">
  <advance width="499"/>
  <unicode hex="0030"/>
  <outline>
    <contour>
      <point x="265" y="611" type="curve" smooth="yes"/>
      <point x="420" y="611"/>
      <point x="455" y="479"/>
      <point x="457" y="368" type="curve" smooth="yes"/>
      <point x="461" y="152"/>
      <point x="380" y="-19"/>
      <point x="227" y="-19" type="curve" smooth="yes"/>
      <point x="119" y="-19"/>
      <point x="44" y="81"/>
      <point x="43" y="226" type="curve" smooth="yes"/>
      <point x="42" y="515"/>
      <point x="181" y="611"/>
    </contour>
    <contour>
      <point x="120" y="291" type="curve" smooth="yes"/>
      <point x="122" y="189"/>
      <point x="137" y="28"/>
      <point x="257" y="28" type="curve" smooth="yes"/>
      <point x="322" y="28"/>
      <point x="385" y="106"/>
      <point x="380" y="326" type="curve" smooth="yes"/>
      <point x="376" y="478"/>
      <point x="331" y="564"/>
      <point x="248" y="564" type="curve" smooth="yes"/>
      <point x="183" y="564"/>
      <point x="116" y="466"/>
    </contour>
  </outline>
</glyph>
<glyph name="one" format="1">
  <advance width="402"/>
  <unicode hex="0031"/>
  <outline>
    <contour>
      <point x="52" y="-3" type="curve"/>
      <point x="37" y="-3"/>
      <point x="34" y="3"/>
      <point x="34" y="12" type="curve" smooth="yes"/>
      <point x="34" y="20"/>
      <point x="47" y="25"/>
      <point x="55" y="26" type="curve" smooth="yes"/>
      <point x="135" y="32"/>
      <point x="173" y="45"/>
      <point x="177" y="132" type="curve"/>
      <point x="178" y="182"/>
      <point x="182" y="389"/>
      <point x="178" y="492" type="curve" smooth="yes"/>
      <point x="178" y="507"/>
      <point x="173" y="513"/>
      <point x="156" y="503" type="curve"/>
      <point x="131" y="490"/>
      <point x="108" y="471"/>
      <point x="88" y="456" type="curve" smooth="yes"/>
      <point x="69" y="442"/>
      <point x="55" y="441"/>
      <point x="46" y="449" type="curve"/>
      <point x="41" y="455"/>
      <point x="49" y="469"/>
      <point x="62" y="478" type="curve" smooth="yes"/>
      <point x="102" y="506"/>
      <point x="176" y="562"/>
      <point x="201" y="586" type="curve" smooth="yes"/>
      <point x="229" y="614"/>
      <point x="262" y="612"/>
      <point x="259" y="572" type="curve" smooth="yes"/>
      <point x="250" y="406"/>
      <point x="250" y="274"/>
      <point x="252" y="120" type="curve" smooth="yes"/>
      <point x="253" y="58"/>
      <point x="265" y="38"/>
      <point x="349" y="29" type="curve"/>
      <point x="359" y="29"/>
      <point x="370" y="22"/>
      <point x="370" y="13" type="curve" smooth="yes"/>
      <point x="370" y="4"/>
      <point x="364" y="-3"/>
      <point x="343" y="-2" type="curve"/>
      <point x="270" y="5"/>
      <point x="92" y="0"/>
    </contour>
  </outline>
</glyph>
<glyph name="two" format="1">
  <advance width="513"/>
  <unicode hex="0032"/>
  <outline>
    <contour>
      <point x="55" y="44" type="curve" smooth="yes"/>
      <point x="137" y="121"/>
      <point x="221" y="195"/>
      <point x="302" y="304" type="curve" smooth="yes"/>
      <point x="333" y="346"/>
      <point x="358" y="398"/>
      <point x="358" y="450" type="curve" smooth="yes"/>
      <point x="358" y="523"/>
      <point x="307" y="524"/>
      <point x="274" y="524" type="curve" smooth="yes"/>
      <point x="263" y="524"/>
      <point x="228" y="516"/>
      <point x="209" y="510" type="curve" smooth="yes"/>
      <point x="189" y="503"/>
      <point x="167" y="497"/>
      <point x="138" y="497" type="curve" smooth="yes"/>
      <point x="98" y="497"/>
      <point x="77" y="520"/>
      <point x="82" y="553" type="curve" smooth="yes"/>
      <point x="84" y="572"/>
      <point x="91" y="586"/>
      <point x="101" y="604" type="curve" smooth="yes"/>
      <point x="107" y="614"/>
      <point x="112" y="621"/>
      <point x="120" y="621" type="curve" smooth="yes"/>
      <point x="129" y="621"/>
      <point x="132" y="613"/>
      <point x="137" y="599" type="curve" smooth="yes"/>
      <point x="141" y="590"/>
      <point x="159" y="583"/>
      <point x="182" y="583" type="curve" smooth="yes"/>
      <point x="226" y="583"/>
      <point x="236" y="601"/>
      <point x="312" y="601" type="curve" smooth="yes"/>
      <point x="385" y="601"/>
      <point x="428" y="577"/>
      <point x="428" y="492" type="curve"/>
      <point x="427" y="449"/>
      <point x="404" y="394"/>
      <point x="382" y="358" type="curve" smooth="yes"/>
      <point x="343" y="293"/>
      <point x="240" y="178"/>
      <point x="171" y="105" type="curve" smooth="yes"/>
      <point x="154" y="86"/>
      <point x="159" y="81"/>
      <point x="173" y="79" type="curve" smooth="yes"/>
      <point x="206" y="76"/>
      <point x="346" y="77"/>
      <point x="366" y="79" type="curve" smooth="yes"/>
      <point x="406" y="84"/>
      <point x="447" y="120"/>
      <point x="447" y="162" type="curve" smooth="yes"/>
      <point x="447" y="172"/>
      <point x="452" y="184"/>
      <point x="461" y="184" type="curve" smooth="yes"/>
      <point x="467" y="184"/>
      <point x="472" y="173"/>
      <point x="472" y="158" type="curve" smooth="yes"/>
      <point x="472" y="108"/>
      <point x="455" y="49"/>
      <point x="425" y="19" type="curve" smooth="yes"/>
      <point x="419" y="13"/>
      <point x="399" y="-6"/>
      <point x="375" y="-3" type="curve" smooth="yes"/>
      <point x="290" y="5"/>
      <point x="146" y="3"/>
      <point x="53" y="-3" type="curve"/>
      <point x="35" y="-3"/>
      <point x="43" y="33"/>
    </contour>
  </outline>
</glyph>
<glyph name="three" format="1">
  <advance width="440"/>
  <unicode hex="0033"/>
  <outline>
    <contour>
      <point x="105" y="624" type="curve" smooth="yes"/>
      <point x="114" y="624"/>
      <point x="118" y="617"/>
      <point x="121" y="609" type="curve" smooth="yes"/>
      <point x="128" y="593"/>
      <point x="139" y="584"/>
      <point x="164" y="586" type="curve"/>
      <point x="209" y="586"/>
      <point x="240" y="601"/>
      <point x="280" y="600" type="curve" smooth="yes"/>
      <point x="316" y="599"/>
      <point x="370" y="588"/>
      <point x="370" y="529" type="curve" smooth="yes"/>
      <point x="370" y="461"/>
      <point x="321" y="420"/>
      <point x="272" y="388" type="curve" smooth="yes"/>
      <point x="250" y="373"/>
      <point x="257" y="369"/>
      <point x="274" y="366" type="curve" smooth="yes"/>
      <point x="316" y="359"/>
      <point x="407" y="323"/>
      <point x="407" y="193" type="curve" smooth="yes"/>
      <point x="407" y="113"/>
      <point x="332" y="-12"/>
      <point x="187" y="-12" type="curve" smooth="yes"/>
      <point x="128" y="-12"/>
      <point x="40" y="-4"/>
      <point x="40" y="72" type="curve" smooth="yes"/>
      <point x="40" y="112"/>
      <point x="83" y="140"/>
      <point x="118" y="152" type="curve" smooth="yes"/>
      <point x="124" y="154"/>
      <point x="129" y="150"/>
      <point x="131" y="145" type="curve" smooth="yes"/>
      <point x="135" y="136"/>
      <point x="126" y="133"/>
      <point x="122" y="126" type="curve" smooth="yes"/>
      <point x="91" y="75"/>
      <point x="135" y="34"/>
      <point x="216" y="34" type="curve" smooth="yes"/>
      <point x="283" y="34"/>
      <point x="346" y="83"/>
      <point x="346" y="162" type="curve" smooth="yes"/>
      <point x="346" y="277"/>
      <point x="229" y="319"/>
      <point x="170" y="319" type="curve" smooth="yes"/>
      <point x="156" y="319"/>
      <point x="141" y="329"/>
      <point x="141" y="339" type="curve" smooth="yes"/>
      <point x="141" y="351"/>
      <point x="152" y="358"/>
      <point x="165" y="364" type="curve"/>
      <point x="210" y="380"/>
      <point x="308" y="429"/>
      <point x="308" y="481" type="curve" smooth="yes"/>
      <point x="308" y="541"/>
      <point x="197" y="518"/>
      <point x="172" y="510" type="curve"/>
      <point x="125" y="497"/>
      <point x="63" y="506"/>
      <point x="69" y="561" type="curve" smooth="yes"/>
      <point x="71" y="575"/>
      <point x="79" y="592"/>
      <point x="86" y="604" type="curve" smooth="yes"/>
      <point x="92" y="615"/>
      <point x="98" y="624"/>
    </contour>
  </outline>
</glyph>
<glyph name="four" format="1">
  <advance width="516"/>
  <unicode hex="0034"/>
  <outline>
    <contour>
      <point x="56" y="183" type="curve" smooth="yes"/>
      <point x="40" y="183"/>
      <point x="32" y="183"/>
      <point x="35" y="197" type="curve" smooth="yes"/>
      <point x="38" y="210"/>
      <point x="50" y="233"/>
      <point x="56" y="242" type="curve"/>
      <point x="150" y="347"/>
      <point x="195" y="412"/>
      <point x="265" y="508" type="curve" smooth="yes"/>
      <point x="280" y="529"/>
      <point x="292" y="549"/>
      <point x="293" y="570" type="curve" smooth="yes"/>
      <point x="294" y="587"/>
      <point x="307" y="593"/>
      <point x="321" y="595" type="curve" smooth="yes"/>
      <point x="343" y="599"/>
      <point x="357" y="599"/>
      <point x="374" y="598" type="curve" smooth="yes"/>
      <point x="384" y="598"/>
      <point x="385" y="585"/>
      <point x="384" y="575" type="curve"/>
      <point x="384" y="596"/>
      <point x="375" y="309"/>
      <point x="375" y="261" type="curve" smooth="yes"/>
      <point x="375" y="253"/>
      <point x="374" y="246"/>
      <point x="393" y="246" type="curve" smooth="yes"/>
      <point x="419" y="246"/>
      <point x="438" y="256"/>
      <point x="448" y="265" type="curve" smooth="yes"/>
      <point x="458" y="275"/>
      <point x="464" y="277"/>
      <point x="469" y="274" type="curve"/>
      <point x="474" y="269"/>
      <point x="477" y="263"/>
      <point x="471" y="253" type="curve" smooth="yes"/>
      <point x="460" y="231"/>
      <point x="439" y="210"/>
      <point x="427" y="197" type="curve" smooth="yes"/>
      <point x="419" y="189"/>
      <point x="412" y="181"/>
      <point x="385" y="181" type="curve" smooth="yes"/>
      <point x="374" y="181"/>
      <point x="371" y="162"/>
      <point x="371" y="142" type="curve" smooth="yes"/>
      <point x="371" y="122"/>
      <point x="371" y="107"/>
      <point x="375" y="82" type="curve" smooth="yes"/>
      <point x="377" y="66"/>
      <point x="377" y="61"/>
      <point x="384" y="32" type="curve" smooth="yes"/>
      <point x="388" y="14"/>
      <point x="379" y="7"/>
      <point x="375" y="3" type="curve" smooth="yes"/>
      <point x="348" y="-18"/>
      <point x="333" y="-31"/>
      <point x="311" y="-35" type="curve" smooth="yes"/>
      <point x="289" y="-38"/>
      <point x="287" y="-23"/>
      <point x="287" y="4" type="curve" smooth="yes"/>
      <point x="287" y="16"/>
      <point x="294" y="48"/>
      <point x="295" y="65" type="curve"/>
      <point x="301" y="109"/>
      <point x="300" y="120"/>
      <point x="300" y="162" type="curve" smooth="yes"/>
      <point x="300" y="185"/>
      <point x="291" y="189"/>
      <point x="279" y="189" type="curve" smooth="yes"/>
      <point x="237" y="189"/>
      <point x="148" y="183"/>
    </contour>
    <contour>
      <point x="290" y="247" type="curve"/>
      <point x="298" y="250"/>
      <point x="304" y="254"/>
      <point x="305" y="270" type="curve" smooth="yes"/>
      <point x="308" y="340"/>
      <point x="308" y="402"/>
      <point x="305" y="465" type="curve" smooth="yes"/>
      <point x="304" y="477"/>
      <point x="304" y="487"/>
      <point x="295" y="487" type="curve" smooth="yes"/>
      <point x="288" y="487"/>
      <point x="283" y="481"/>
      <point x="274" y="469" type="curve" smooth="yes"/>
      <point x="221" y="402"/>
      <point x="166" y="326"/>
      <point x="125" y="272" type="curve" smooth="yes"/>
      <point x="113" y="256"/>
      <point x="112" y="245"/>
      <point x="136" y="245" type="curve" smooth="yes"/>
      <point x="152" y="245"/>
      <point x="267" y="242"/>
    </contour>
  </outline>
</glyph>
<glyph name="five" format="1">
  <advance width="452"/>
  <unicode hex="0035"/>
  <outline>
    <contour>
      <point x="407" y="604" type="curve" smooth="yes"/>
      <point x="401" y="576"/>
      <point x="390" y="551"/>
      <point x="372" y="528" type="curve" smooth="yes"/>
      <point x="358" y="509"/>
      <point x="332" y="503"/>
      <point x="324" y="503" type="curve" smooth="yes"/>
      <point x="258" y="503"/>
      <point x="227" y="526"/>
      <point x="168" y="524" type="curve" smooth="yes"/>
      <point x="159" y="524"/>
      <point x="152" y="519"/>
      <point x="143" y="505" type="curve" smooth="yes"/>
      <point x="139" y="498"/>
      <point x="128" y="469"/>
      <point x="125" y="455" type="curve" smooth="yes"/>
      <point x="121" y="435"/>
      <point x="119" y="423"/>
      <point x="134" y="421" type="curve" smooth="yes"/>
      <point x="183" y="414"/>
      <point x="237" y="402"/>
      <point x="273" y="390" type="curve" smooth="yes"/>
      <point x="353" y="364"/>
      <point x="410" y="320"/>
      <point x="411" y="212" type="curve"/>
      <point x="411" y="94"/>
      <point x="323" y="-8"/>
      <point x="176" y="-8" type="curve" smooth="yes"/>
      <point x="67" y="-8"/>
      <point x="42" y="40"/>
      <point x="42" y="77" type="curve" smooth="yes"/>
      <point x="42" y="126"/>
      <point x="94" y="160"/>
      <point x="109" y="168" type="curve" smooth="yes"/>
      <point x="122" y="175"/>
      <point x="143" y="184"/>
      <point x="153" y="175" type="curve" smooth="yes"/>
      <point x="160" y="169"/>
      <point x="162" y="157"/>
      <point x="153" y="151" type="curve"/>
      <point x="136" y="137"/>
      <point x="120" y="113"/>
      <point x="120" y="93" type="curve" smooth="yes"/>
      <point x="120" y="56"/>
      <point x="155" y="31"/>
      <point x="215" y="31" type="curve" smooth="yes"/>
      <point x="285" y="31"/>
      <point x="346" y="94"/>
      <point x="346" y="165" type="curve" smooth="yes"/>
      <point x="346" y="237"/>
      <point x="318" y="279"/>
      <point x="275" y="303" type="curve" smooth="yes"/>
      <point x="227" y="329"/>
      <point x="157" y="348"/>
      <point x="76" y="357" type="curve" smooth="yes"/>
      <point x="64" y="359"/>
      <point x="49" y="359"/>
      <point x="61" y="389" type="curve" smooth="yes"/>
      <point x="89" y="458"/>
      <point x="114" y="519"/>
      <point x="134" y="582" type="curve" smooth="yes"/>
      <point x="141" y="601"/>
      <point x="146" y="601"/>
      <point x="162" y="600" type="curve"/>
      <point x="208" y="593"/>
      <point x="293" y="589"/>
      <point x="320" y="589" type="curve" smooth="yes"/>
      <point x="338" y="589"/>
      <point x="363" y="593"/>
      <point x="376" y="609" type="curve" smooth="yes"/>
      <point x="396" y="633"/>
      <point x="412" y="623"/>
    </contour>
  </outline>
</glyph>
<glyph name="six" format="1">
  <advance width="480"/>
  <unicode hex="0036"/>
  <outline>
    <contour>
      <point x="178" y="333" type="curve"/>
      <point x="178" y="342"/>
      <point x="183" y="348"/>
      <point x="197" y="356" type="curve" smooth="yes"/>
      <point x="222" y="369"/>
      <point x="260" y="385"/>
      <point x="304" y="385" type="curve" smooth="yes"/>
      <point x="381" y="385"/>
      <point x="439" y="330"/>
      <point x="439" y="238" type="curve"/>
      <point x="436" y="83"/>
      <point x="335" y="-15"/>
      <point x="221" y="-15" type="curve" smooth="yes"/>
      <point x="92" y="-15"/>
      <point x="42" y="82"/>
      <point x="42" y="177" type="curve" smooth="yes"/>
      <point x="42" y="367"/>
      <point x="152" y="514"/>
      <point x="274" y="607" type="curve" smooth="yes"/>
      <point x="285" y="615"/>
      <point x="301" y="619"/>
      <point x="307" y="612" type="curve" smooth="yes"/>
      <point x="314" y="605"/>
      <point x="304" y="590"/>
      <point x="291" y="580" type="curve"/>
      <point x="204" y="503"/>
      <point x="119" y="380"/>
      <point x="119" y="209" type="curve" smooth="yes"/>
      <point x="119" y="110"/>
      <point x="163" y="24"/>
      <point x="243" y="24" type="curve" smooth="yes"/>
      <point x="290" y="24"/>
      <point x="364" y="82"/>
      <point x="364" y="199" type="curve" smooth="yes"/>
      <point x="364" y="306"/>
      <point x="312" y="338"/>
      <point x="264" y="338" type="curve" smooth="yes"/>
      <point x="241" y="338"/>
      <point x="225" y="335"/>
      <point x="205" y="327" type="curve" smooth="yes"/>
      <point x="191" y="321"/>
      <point x="183" y="322"/>
    </contour>
  </outline>
</glyph>
<glyph name="seven" format="1">
  <advance width="410"/>
  <unicode hex="0037"/>
  <outline>
    <contour>
      <point x="86" y="620" type="curve" smooth="yes"/>
      <point x="96" y="620"/>
      <point x="98" y="614"/>
      <point x="100" y="604" type="curve" smooth="yes"/>
      <point x="104" y="577"/>
      <point x="125" y="573"/>
      <point x="154" y="573" type="curve" smooth="yes"/>
      <point x="210" y="573"/>
      <point x="316" y="584"/>
      <point x="372" y="598" type="curve" smooth="yes"/>
      <point x="393" y="604"/>
      <point x="398" y="608"/>
      <point x="402" y="603" type="curve"/>
      <point x="408" y="598"/>
      <point x="407" y="589"/>
      <point x="402" y="582" type="curve" smooth="yes"/>
      <point x="399" y="577"/>
      <point x="369" y="524"/>
      <point x="361" y="514" type="curve"/>
      <point x="338" y="476"/>
      <point x="201" y="251"/>
      <point x="197" y="109" type="curve" smooth="yes"/>
      <point x="197" y="105"/>
      <point x="198" y="62"/>
      <point x="202" y="38" type="curve" smooth="yes"/>
      <point x="204" y="29"/>
      <point x="205" y="13"/>
      <point x="199" y="6" type="curve" smooth="yes"/>
      <point x="187" y="-10"/>
      <point x="150" y="-24"/>
      <point x="126" y="-29" type="curve"/>
      <point x="101" y="-29"/>
      <point x="89" y="-21"/>
      <point x="89" y="2" type="curve" smooth="yes"/>
      <point x="88" y="82"/>
      <point x="227" y="352"/>
      <point x="313" y="493" type="curve" smooth="yes"/>
      <point x="324" y="511"/>
      <point x="328" y="529"/>
      <point x="305" y="521" type="curve" smooth="yes"/>
      <point x="273" y="511"/>
      <point x="201" y="486"/>
      <point x="129" y="486" type="curve" smooth="yes"/>
      <point x="68" y="486"/>
      <point x="38" y="509"/>
      <point x="42" y="540" type="curve" smooth="yes"/>
      <point x="46" y="567"/>
      <point x="56" y="588"/>
      <point x="66" y="604" type="curve" smooth="yes"/>
      <point x="74" y="616"/>
      <point x="80" y="620"/>
    </contour>
  </outline>
</glyph>
<glyph name="eight" format="1">
  <advance width="506"/>
  <unicode hex="0038"/>
  <outline>
    <contour>
      <point x="236" y="-17" type="curve" smooth="yes"/>
      <point x="111" y="-17"/>
      <point x="42" y="35"/>
      <point x="42" y="117" type="curve" smooth="yes"/>
      <point x="42" y="208"/>
      <point x="104" y="263"/>
      <point x="166" y="306" type="curve" smooth="yes"/>
      <point x="180" y="316"/>
      <point x="179" y="328"/>
      <point x="168" y="334" type="curve" smooth="yes"/>
      <point x="124" y="360"/>
      <point x="70" y="391"/>
      <point x="70" y="453" type="curve" smooth="yes"/>
      <point x="70" y="535"/>
      <point x="168" y="606"/>
      <point x="260" y="606" type="curve" smooth="yes"/>
      <point x="380" y="606"/>
      <point x="422" y="561"/>
      <point x="422" y="491" type="curve" smooth="yes"/>
      <point x="422" y="439"/>
      <point x="389" y="391"/>
      <point x="343" y="363" type="curve" smooth="yes"/>
      <point x="324" y="351"/>
      <point x="335" y="340"/>
      <point x="345" y="335" type="curve"/>
      <point x="409" y="311"/>
      <point x="465" y="270"/>
      <point x="465" y="174" type="curve" smooth="yes"/>
      <point x="465" y="73"/>
      <point x="354" y="-17"/>
    </contour>
    <contour>
      <point x="236" y="295" type="curve"/>
      <point x="218" y="301"/>
      <point x="210" y="295"/>
      <point x="198" y="285" type="curve" smooth="yes"/>
      <point x="160" y="252"/>
      <point x="118" y="205"/>
      <point x="118" y="148" type="curve" smooth="yes"/>
      <point x="118" y="78"/>
      <point x="163" y="28"/>
      <point x="260" y="28" type="curve" smooth="yes"/>
      <point x="343" y="28"/>
      <point x="400" y="86"/>
      <point x="400" y="144" type="curve" smooth="yes"/>
      <point x="400" y="221"/>
      <point x="313" y="275"/>
    </contour>
    <contour>
      <point x="310" y="375" type="curve" smooth="yes"/>
      <point x="343" y="399"/>
      <point x="354" y="440"/>
      <point x="354" y="465" type="curve" smooth="yes"/>
      <point x="354" y="519"/>
      <point x="315" y="567"/>
      <point x="237" y="567" type="curve" smooth="yes"/>
      <point x="194" y="567"/>
      <point x="145" y="533"/>
      <point x="145" y="476" type="curve"/>
      <point x="146" y="427"/>
      <point x="198" y="394"/>
      <point x="272" y="365" type="curve" smooth="yes"/>
      <point x="287" y="359"/>
      <point x="296" y="364"/>
    </contour>
  </outline>
</glyph>
<glyph name="nine" format="1">
  <advance width="460"/>
  <unicode hex="0039"/>
  <outline>
    <contour>
      <point x="290" y="257" type="curve"/>
      <point x="290" y="247"/>
      <point x="286" y="242"/>
      <point x="272" y="234" type="curve" smooth="yes"/>
      <point x="247" y="221"/>
      <point x="218" y="209"/>
      <point x="176" y="209" type="curve" smooth="yes"/>
      <point x="98" y="209"/>
      <point x="42" y="263"/>
      <point x="42" y="353" type="curve"/>
      <point x="45" y="515"/>
      <point x="157" y="605"/>
      <point x="256" y="605" type="curve" smooth="yes"/>
      <point x="382" y="605"/>
      <point x="426" y="512"/>
      <point x="426" y="418" type="curve" smooth="yes"/>
      <point x="426" y="229"/>
      <point x="313" y="76"/>
      <point x="191" y="-16" type="curve" smooth="yes"/>
      <point x="180" y="-24"/>
      <point x="162" y="-26"/>
      <point x="157" y="-19" type="curve"/>
      <point x="150" y="-13"/>
      <point x="159" y="1"/>
      <point x="172" y="11" type="curve"/>
      <point x="259" y="87"/>
      <point x="348" y="216"/>
      <point x="348" y="386" type="curve" smooth="yes"/>
      <point x="348" y="483"/>
      <point x="312" y="564"/>
      <point x="233" y="564" type="curve" smooth="yes"/>
      <point x="188" y="564"/>
      <point x="118" y="507"/>
      <point x="118" y="391" type="curve" smooth="yes"/>
      <point x="118" y="301"/>
      <point x="156" y="254"/>
      <point x="209" y="254" type="curve" smooth="yes"/>
      <point x="232" y="254"/>
      <point x="245" y="257"/>
      <point x="264" y="263" type="curve" smooth="yes"/>
      <point x="278" y="267"/>
      <point x="286" y="267"/>
    </contour>
  </outline>
</glyph>
<glyph name="colon" format="1">
  <advance width="209"/>
  <unicode hex="003A"/>
  <outline>
    <contour>
      <point x="110" y="79" type="curve" smooth="yes"/>
      <point x="136" y="79"/>
      <point x="159" y="67"/>
      <point x="159" y="45" type="curve" smooth="yes"/>
      <point x="159" y="9"/>
      <point x="128" y="-7"/>
      <point x="101" y="-7" type="curve" smooth="yes"/>
      <point x="59" y="-7"/>
      <point x="51" y="17"/>
      <point x="51" y="35" type="curve" smooth="yes"/>
      <point x="51" y="66"/>
      <point x="89" y="79"/>
    </contour>
    <contour>
      <point x="110" y="365" type="curve" smooth="yes"/>
      <point x="136" y="365"/>
      <point x="159" y="354"/>
      <point x="159" y="331" type="curve" smooth="yes"/>
      <point x="159" y="295"/>
      <point x="128" y="279"/>
      <point x="101" y="279" type="curve" smooth="yes"/>
      <point x="59" y="279"/>
      <point x="51" y="303"/>
      <point x="51" y="321" type="curve" smooth="yes"/>
      <point x="51" y="352"/>
      <point x="89" y="365"/>
    </contour>
  </outline>
</glyph>
<glyph name="semicolon" format="1">
  <advance width="205"/>
  <unicode hex="003B"/>
  <outline>
    <contour>
      <point x="111" y="365" type="curve" smooth="yes"/>
      <point x="137" y="365"/>
      <point x="161" y="353"/>
      <point x="161" y="330" type="curve" smooth="yes"/>
      <point x="161" y="294"/>
      <point x="129" y="278"/>
      <point x="102" y="278" type="curve" smooth="yes"/>
      <point x="59" y="278"/>
      <point x="51" y="302"/>
      <point x="51" y="321" type="curve" smooth="yes"/>
      <point x="51" y="351"/>
      <point x="90" y="365"/>
    </contour>
    <contour>
      <point x="68" y="-154" type="curve" smooth="yes"/>
      <point x="64" y="-151"/>
      <point x="66" y="-141"/>
      <point x="79" y="-123" type="curve" smooth="yes"/>
      <point x="105" y="-88"/>
      <point x="115" y="-37"/>
      <point x="105" y="-19" type="curve"/>
      <point x="93" y="-3"/>
      <point x="76" y="-4"/>
      <point x="66" y="-8" type="curve" smooth="yes"/>
      <point x="51" y="-13"/>
      <point x="45" y="-17"/>
      <point x="38" y="-10" type="curve" smooth="yes"/>
      <point x="29" y="-2"/>
      <point x="37" y="14"/>
      <point x="50" y="31" type="curve" smooth="yes"/>
      <point x="71" y="58"/>
      <point x="90" y="69"/>
      <point x="120" y="69" type="curve" smooth="yes"/>
      <point x="142" y="69"/>
      <point x="168" y="40"/>
      <point x="168" y="-7" type="curve" smooth="yes"/>
      <point x="168" y="-51"/>
      <point x="133" y="-111"/>
      <point x="112" y="-135" type="curve" smooth="yes"/>
      <point x="88" y="-162"/>
      <point x="76" y="-160"/>
    </contour>
  </outline>
</glyph>
<glyph name="less" format="1">
  <advance width="352"/>
  <unicode hex="003C"/>
  <outline>
    <contour>
      <point x="66" y="243" type="curve" smooth="yes"/>
      <point x="111" y="270"/>
      <point x="218" y="330"/>
      <point x="249" y="351" type="curve" smooth="yes"/>
      <point x="255" y="355"/>
      <point x="276" y="375"/>
      <point x="284" y="383" type="curve" smooth="yes"/>
      <point x="291" y="391"/>
      <point x="305" y="397"/>
      <point x="309" y="383" type="curve" smooth="yes"/>
      <point x="312" y="371"/>
      <point x="306" y="353"/>
      <point x="303" y="347" type="curve" smooth="yes"/>
      <point x="298" y="337"/>
      <point x="288" y="326"/>
      <point x="265" y="314" type="curve" smooth="yes"/>
      <point x="220" y="290"/>
      <point x="133" y="248"/>
      <point x="97" y="226" type="curve" smooth="yes"/>
      <point x="93" y="223"/>
      <point x="87" y="216"/>
      <point x="96" y="209" type="curve" smooth="yes"/>
      <point x="108" y="199"/>
      <point x="265" y="116"/>
      <point x="293" y="101" type="curve" smooth="yes"/>
      <point x="316" y="88"/>
      <point x="315" y="84"/>
      <point x="301" y="76" type="curve" smooth="yes"/>
      <point x="289" y="69"/>
      <point x="280" y="74"/>
      <point x="272" y="79" type="curve" smooth="yes"/>
      <point x="252" y="92"/>
      <point x="103" y="168"/>
      <point x="50" y="197" type="curve" smooth="yes"/>
      <point x="41" y="201"/>
      <point x="41" y="205"/>
      <point x="44" y="215" type="curve"/>
      <point x="47" y="231"/>
      <point x="50" y="233"/>
    </contour>
  </outline>
</glyph>
<glyph name="equal" format="1">
  <advance width="419"/>
  <unicode hex="003D"/>
  <outline>
    <contour>
      <point x="52" y="120" type="curve" smooth="yes"/>
      <point x="31" y="120"/>
      <point x="23" y="125"/>
      <point x="29" y="138" type="curve" smooth="yes"/>
      <point x="35" y="152"/>
      <point x="48" y="155"/>
      <point x="69" y="155" type="curve" smooth="yes"/>
      <point x="197" y="157"/>
      <point x="256" y="161"/>
      <point x="351" y="169" type="curve" smooth="yes"/>
      <point x="376" y="172"/>
      <point x="396" y="178"/>
      <point x="396" y="160" type="curve" smooth="yes"/>
      <point x="396" y="152"/>
      <point x="384" y="138"/>
      <point x="368" y="130" type="curve"/>
      <point x="357" y="123"/>
      <point x="343" y="123"/>
      <point x="331" y="123" type="curve" smooth="yes"/>
      <point x="284" y="122"/>
      <point x="98" y="120"/>
    </contour>
    <contour>
      <point x="52" y="289" type="curve" smooth="yes"/>
      <point x="31" y="289"/>
      <point x="23" y="294"/>
      <point x="29" y="306" type="curve"/>
      <point x="35" y="321"/>
      <point x="48" y="323"/>
      <point x="69" y="323" type="curve" smooth="yes"/>
      <point x="197" y="325"/>
      <point x="256" y="329"/>
      <point x="351" y="338" type="curve" smooth="yes"/>
      <point x="376" y="340"/>
      <point x="396" y="347"/>
      <point x="396" y="328" type="curve" smooth="yes"/>
      <point x="396" y="321"/>
      <point x="384" y="306"/>
      <point x="368" y="298" type="curve"/>
      <point x="357" y="291"/>
      <point x="343" y="291"/>
      <point x="331" y="291" type="curve" smooth="yes"/>
      <point x="284" y="290"/>
      <point x="98" y="289"/>
    </contour>
  </outline>
</glyph>
<glyph name="question" format="1">
  <advance width="416"/>
  <unicode hex="003F"/>
  <outline>
    <contour>
      <point x="179" y="168" type="curve" smooth="yes"/>
      <point x="167" y="168"/>
      <point x="166" y="184"/>
      <point x="166" y="192" type="curve" smooth="yes"/>
      <point x="166" y="230"/>
      <point x="179" y="274"/>
      <point x="204" y="303" type="curve" smooth="yes"/>
      <point x="224" y="326"/>
      <point x="251" y="348"/>
      <point x="285" y="389" type="curve"/>
      <point x="312" y="425"/>
      <point x="321" y="475"/>
      <point x="311" y="502" type="curve"/>
      <point x="303" y="529"/>
      <point x="276" y="572"/>
      <point x="207" y="572" type="curve" smooth="yes"/>
      <point x="147" y="572"/>
      <point x="106" y="532"/>
      <point x="106" y="483" type="curve" smooth="yes"/>
      <point x="106" y="442"/>
      <point x="141" y="417"/>
      <point x="180" y="426" type="curve" smooth="yes"/>
      <point x="198" y="431"/>
      <point x="202" y="434"/>
      <point x="209" y="425" type="curve" smooth="yes"/>
      <point x="215" y="416"/>
      <point x="202" y="408"/>
      <point x="199" y="407" type="curve" smooth="yes"/>
      <point x="190" y="402"/>
      <point x="155" y="383"/>
      <point x="115" y="383" type="curve" smooth="yes"/>
      <point x="82" y="383"/>
      <point x="42" y="410"/>
      <point x="42" y="466" type="curve" smooth="yes"/>
      <point x="42" y="540"/>
      <point x="130" y="605"/>
      <point x="223" y="605" type="curve" smooth="yes"/>
      <point x="324" y="605"/>
      <point x="375" y="569"/>
      <point x="389" y="513" type="curve"/>
      <point x="402" y="456"/>
      <point x="359" y="394"/>
      <point x="310" y="357" type="curve" smooth="yes"/>
      <point x="292" y="343"/>
      <point x="247" y="307"/>
      <point x="234" y="288" type="curve" smooth="yes"/>
      <point x="205" y="248"/>
      <point x="203" y="231"/>
      <point x="200" y="192" type="curve" smooth="yes"/>
      <point x="199" y="178"/>
      <point x="194" y="168"/>
    </contour>
    <contour>
      <point x="191" y="79" type="curve" smooth="yes"/>
      <point x="215" y="79"/>
      <point x="239" y="66"/>
      <point x="239" y="45" type="curve" smooth="yes"/>
      <point x="239" y="8"/>
      <point x="208" y="-7"/>
      <point x="181" y="-7" type="curve" smooth="yes"/>
      <point x="140" y="-7"/>
      <point x="131" y="17"/>
      <point x="131" y="35" type="curve" smooth="yes"/>
      <point x="131" y="65"/>
      <point x="170" y="79"/>
    </contour>
  </outline>
</glyph>
<glyph name="at" format="1">
  <advance width="740"/>
  <unicode hex="0040"/>
  <outline>
    <contour>
      <point x="439" y="-8" type="curve" smooth="yes"/>
      <point x="380" y="-8"/>
      <point x="395" y="96"/>
      <point x="406" y="128" type="curve" smooth="yes"/>
      <point x="409" y="138"/>
      <point x="411" y="143"/>
      <point x="407" y="145" type="curve" smooth="yes"/>
      <point x="404" y="146"/>
      <point x="397" y="142"/>
      <point x="391" y="135" type="curve" smooth="yes"/>
      <point x="374" y="112"/>
      <point x="292" y="25"/>
      <point x="266" y="6" type="curve" smooth="yes"/>
      <point x="253" y="-4"/>
      <point x="241" y="-8"/>
      <point x="230" y="-8" type="curve" smooth="yes"/>
      <point x="211" y="-8"/>
      <point x="197" y="15"/>
      <point x="197" y="69" type="curve" smooth="yes"/>
      <point x="197" y="206"/>
      <point x="311" y="379"/>
      <point x="402" y="419" type="curve" smooth="yes"/>
      <point x="413" y="424"/>
      <point x="433" y="424"/>
      <point x="443" y="421" type="curve" smooth="yes"/>
      <point x="457" y="416"/>
      <point x="465" y="412"/>
      <point x="480" y="404" type="curve"/>
      <point x="491" y="397"/>
      <point x="497" y="399"/>
      <point x="511" y="412" type="curve" smooth="yes"/>
      <point x="527" y="428"/>
      <point x="529" y="433"/>
      <point x="540" y="447" type="curve" smooth="yes"/>
      <point x="552" y="463"/>
      <point x="556" y="465"/>
      <point x="563" y="462" type="curve" smooth="yes"/>
      <point x="569" y="460"/>
      <point x="565" y="447"/>
      <point x="561" y="438" type="curve" smooth="yes"/>
      <point x="513" y="328"/>
      <point x="499" y="269"/>
      <point x="471" y="146" type="curve"/>
      <point x="461" y="107"/>
      <point x="468" y="66"/>
      <point x="487" y="66" type="curve"/>
      <point x="489" y="64"/>
      <point x="496" y="69"/>
      <point x="504" y="77" type="curve"/>
      <point x="568" y="130"/>
      <point x="662" y="268"/>
      <point x="662" y="396" type="curve" smooth="yes"/>
      <point x="662" y="536"/>
      <point x="583" y="592"/>
      <point x="484" y="592" type="curve" smooth="yes"/>
      <point x="290" y="592"/>
      <point x="112" y="392"/>
      <point x="112" y="157" type="curve" smooth="yes"/>
      <point x="112" y="-82"/>
      <point x="229" y="-168"/>
      <point x="358" y="-168" type="curve" smooth="yes"/>
      <point x="452" y="-168"/>
      <point x="536" y="-115"/>
      <point x="567" y="-82" type="curve" smooth="yes"/>
      <point x="582" y="-66"/>
      <point x="593" y="-66"/>
      <point x="598" y="-72" type="curve"/>
      <point x="605" y="-78"/>
      <point x="602" y="-92"/>
      <point x="593" y="-103" type="curve" smooth="yes"/>
      <point x="547" y="-159"/>
      <point x="432" y="-226"/>
      <point x="327" y="-226" type="curve" smooth="yes"/>
      <point x="174" y="-226"/>
      <point x="45" y="-122"/>
      <point x="45" y="111" type="curve" smooth="yes"/>
      <point x="45" y="361"/>
      <point x="242" y="625"/>
      <point x="493" y="625" type="curve" smooth="yes"/>
      <point x="604" y="625"/>
      <point x="699" y="566"/>
      <point x="699" y="407" type="curve" smooth="yes"/>
      <point x="699" y="269"/>
      <point x="612" y="120"/>
      <point x="502" y="21" type="curve" smooth="yes"/>
      <point x="484" y="5"/>
      <point x="457" y="-8"/>
    </contour>
    <contour>
      <point x="303" y="75" type="curve" smooth="yes"/>
      <point x="343" y="109"/>
      <point x="372" y="145"/>
      <point x="411" y="200" type="curve" smooth="yes"/>
      <point x="434" y="234"/>
      <point x="462" y="294"/>
      <point x="465" y="338" type="curve" smooth="yes"/>
      <point x="466" y="353"/>
      <point x="460" y="361"/>
      <point x="450" y="369" type="curve" smooth="yes"/>
      <point x="441" y="375"/>
      <point x="430" y="380"/>
      <point x="417" y="383" type="curve" smooth="yes"/>
      <point x="407" y="385"/>
      <point x="394" y="383"/>
      <point x="390" y="379" type="curve"/>
      <point x="380" y="374"/>
      <point x="369" y="364"/>
      <point x="364" y="358" type="curve" smooth="yes"/>
      <point x="308" y="292"/>
      <point x="266" y="209"/>
      <point x="266" y="111" type="curve" smooth="yes"/>
      <point x="266" y="77"/>
      <point x="272" y="49"/>
    </contour>
  </outline>
</glyph>
<glyph name="B" format="1">
  <advance width="604"/>
  <unicode hex="0042"/>
  <outline>
    <contour>
      <point x="20" y="7" type="curve" smooth="yes"/>
      <point x="16" y="25"/>
      <point x="45" y="31"/>
      <point x="58" y="33" type="curve" smooth="yes"/>
      <point x="108" y="41"/>
      <point x="117" y="68"/>
      <point x="122" y="99" type="curve"/>
      <point x="134" y="135"/>
      <point x="131" y="469"/>
      <point x="130" y="498" type="curve" smooth="yes"/>
      <point x="129" y="555"/>
      <point x="58" y="565"/>
      <point x="42" y="569" type="curve" smooth="yes"/>
      <point x="29" y="572"/>
      <point x="26" y="578"/>
      <point x="26" y="584" type="curve" smooth="yes"/>
      <point x="26" y="590"/>
      <point x="33" y="598"/>
      <point x="65" y="594" type="curve" smooth="yes"/>
      <point x="79" y="593"/>
      <point x="116" y="592"/>
      <point x="156" y="592" type="curve"/>
      <point x="316" y="597"/>
      <point x="297" y="596"/>
      <point x="341" y="596" type="curve" smooth="yes"/>
      <point x="475" y="597"/>
      <point x="509" y="567"/>
      <point x="509" y="499" type="curve" smooth="yes"/>
      <point x="509" y="438"/>
      <point x="440" y="388"/>
      <point x="401" y="375" type="curve"/>
      <point x="380" y="370"/>
      <point x="382" y="359"/>
      <point x="401" y="359" type="curve" smooth="yes"/>
      <point x="487" y="359"/>
      <point x="566" y="308"/>
      <point x="566" y="236" type="curve" smooth="yes"/>
      <point x="566" y="59"/>
      <point x="405" y="-1"/>
      <point x="293" y="-1" type="curve" smooth="yes"/>
      <point x="239" y="-1"/>
      <point x="194" y="2"/>
      <point x="169" y="2" type="curve" smooth="yes"/>
      <point x="113" y="2"/>
      <point x="55" y="-2"/>
      <point x="41" y="-3" type="curve" smooth="yes"/>
      <point x="31" y="-3"/>
      <point x="23" y="-3"/>
    </contour>
    <contour>
      <point x="203" y="72" type="curve" smooth="yes"/>
      <point x="205" y="27"/>
      <point x="257" y="29"/>
      <point x="290" y="29" type="curve" smooth="yes"/>
      <point x="400" y="29"/>
      <point x="484" y="110"/>
      <point x="484" y="216" type="curve" smooth="yes"/>
      <point x="484" y="275"/>
      <point x="444" y="336"/>
      <point x="349" y="336" type="curve" smooth="yes"/>
      <point x="325" y="336"/>
      <point x="278" y="334"/>
      <point x="274" y="346" type="curve"/>
      <point x="269" y="357"/>
      <point x="277" y="365"/>
      <point x="302" y="370" type="curve" smooth="yes"/>
      <point x="380" y="383"/>
      <point x="437" y="424"/>
      <point x="437" y="487" type="curve" smooth="yes"/>
      <point x="437" y="530"/>
      <point x="386" y="559"/>
      <point x="330" y="564" type="curve" smooth="yes"/>
      <point x="294" y="567"/>
      <point x="258" y="565"/>
      <point x="237" y="564" type="curve" smooth="yes"/>
      <point x="219" y="563"/>
      <point x="203" y="556"/>
      <point x="203" y="544" type="curve" smooth="yes"/>
      <point x="198" y="325"/>
      <point x="199" y="223"/>
    </contour>
  </outline>
</glyph>
<glyph name="D" format="1">
  <advance width="652"/>
  <unicode hex="0044"/>
  <outline>
    <contour>
      <point x="26" y="584" type="curve" smooth="yes"/>
      <point x="26" y="590"/>
      <point x="33" y="598"/>
      <point x="65" y="594" type="curve" smooth="yes"/>
      <point x="79" y="593"/>
      <point x="116" y="592"/>
      <point x="156" y="592" type="curve" smooth="yes"/>
      <point x="216" y="593"/>
      <point x="275" y="597"/>
      <point x="321" y="597" type="curve" smooth="yes"/>
      <point x="514" y="598"/>
      <point x="624" y="527"/>
      <point x="623" y="386" type="curve" smooth="yes"/>
      <point x="621" y="131"/>
      <point x="441" y="0"/>
      <point x="270" y="0" type="curve"/>
      <point x="226" y="-1"/>
      <point x="190" y="2"/>
      <point x="169" y="2" type="curve" smooth="yes"/>
      <point x="113" y="2"/>
      <point x="55" y="-2"/>
      <point x="41" y="-3" type="curve" smooth="yes"/>
      <point x="31" y="-3"/>
      <point x="23" y="-3"/>
      <point x="20" y="7" type="curve" smooth="yes"/>
      <point x="16" y="25"/>
      <point x="45" y="30"/>
      <point x="58" y="32" type="curve" smooth="yes"/>
      <point x="108" y="40"/>
      <point x="114" y="69"/>
      <point x="122" y="99" type="curve" smooth="yes"/>
      <point x="131" y="136"/>
      <point x="131" y="469"/>
      <point x="130" y="498" type="curve" smooth="yes"/>
      <point x="129" y="555"/>
      <point x="79" y="566"/>
      <point x="42" y="569" type="curve" smooth="yes"/>
      <point x="29" y="570"/>
      <point x="26" y="577"/>
    </contour>
    <contour>
      <point x="204" y="545" type="curve" smooth="yes"/>
      <point x="199" y="326"/>
      <point x="199" y="224"/>
      <point x="204" y="73" type="curve" smooth="yes"/>
      <point x="205" y="35"/>
      <point x="240" y="29"/>
      <point x="271" y="29" type="curve" smooth="yes"/>
      <point x="449" y="24"/>
      <point x="544" y="186"/>
      <point x="544" y="357" type="curve" smooth="yes"/>
      <point x="544" y="492"/>
      <point x="441" y="554"/>
      <point x="334" y="566" type="curve"/>
      <point x="307" y="568"/>
      <point x="263" y="567"/>
      <point x="237" y="566" type="curve" smooth="yes"/>
      <point x="220" y="565"/>
      <point x="204" y="557"/>
    </contour>
  </outline>
</glyph>
<glyph name="F" format="1">
  <advance width="540"/>
  <unicode hex="0046"/>
  <outline>
    <contour>
      <point x="22" y="586" type="curve" smooth="yes"/>
      <point x="22" y="592"/>
      <point x="29" y="599"/>
      <point x="61" y="596" type="curve" smooth="yes"/>
      <point x="101" y="592"/>
      <point x="130" y="589"/>
      <point x="168" y="589" type="curve" smooth="yes"/>
      <point x="248" y="589"/>
      <point x="464" y="601"/>
      <point x="487" y="601" type="curve" smooth="yes"/>
      <point x="522" y="601"/>
      <point x="521" y="593"/>
      <point x="524" y="585" type="curve" smooth="yes"/>
      <point x="533" y="558"/>
      <point x="530" y="475"/>
      <point x="510" y="452" type="curve" smooth="yes"/>
      <point x="503" y="445"/>
      <point x="495" y="441"/>
      <point x="488" y="447" type="curve" smooth="yes"/>
      <point x="484" y="451"/>
      <point x="483" y="453"/>
      <point x="485" y="463" type="curve" smooth="yes"/>
      <point x="496" y="520"/>
      <point x="471" y="562"/>
      <point x="410" y="562" type="curve" smooth="yes"/>
      <point x="355" y="562"/>
      <point x="236" y="559"/>
      <point x="222" y="556" type="curve" smooth="yes"/>
      <point x="205" y="552"/>
      <point x="205" y="547"/>
      <point x="205" y="533" type="curve" smooth="yes"/>
      <point x="205" y="503"/>
      <point x="204" y="393"/>
      <point x="204" y="375" type="curve" smooth="yes"/>
      <point x="204" y="356"/>
      <point x="200" y="339"/>
      <point x="246" y="339" type="curve" smooth="yes"/>
      <point x="263" y="339"/>
      <point x="323" y="340"/>
      <point x="337" y="341" type="curve" smooth="yes"/>
      <point x="384" y="345"/>
      <point x="408" y="360"/>
      <point x="414" y="409" type="curve" smooth="yes"/>
      <point x="415" y="415"/>
      <point x="422" y="427"/>
      <point x="431" y="426" type="curve"/>
      <point x="442" y="426"/>
      <point x="443" y="406"/>
      <point x="441" y="393" type="curve" smooth="yes"/>
      <point x="434" y="335"/>
      <point x="429" y="312"/>
      <point x="429" y="255" type="curve" smooth="yes"/>
      <point x="429" y="244"/>
      <point x="425" y="234"/>
      <point x="414" y="233" type="curve" smooth="yes"/>
      <point x="409" y="233"/>
      <point x="402" y="242"/>
      <point x="400" y="254" type="curve" smooth="yes"/>
      <point x="396" y="284"/>
      <point x="375" y="302"/>
      <point x="344" y="306" type="curve"/>
      <point x="310" y="308"/>
      <point x="244" y="309"/>
      <point x="231" y="308" type="curve" smooth="yes"/>
      <point x="209" y="306"/>
      <point x="205" y="301"/>
      <point x="204" y="283" type="curve" smooth="yes"/>
      <point x="200" y="235"/>
      <point x="205" y="125"/>
      <point x="206" y="109" type="curve" smooth="yes"/>
      <point x="209" y="73"/>
      <point x="223" y="51"/>
      <point x="257" y="38" type="curve" smooth="yes"/>
      <point x="285" y="28"/>
      <point x="322" y="21"/>
      <point x="322" y="9" type="curve" smooth="yes"/>
      <point x="322" y="-3"/>
      <point x="308" y="-5"/>
      <point x="292" y="-3" type="curve" smooth="yes"/>
      <point x="259" y="1"/>
      <point x="210" y="4"/>
      <point x="174" y="5" type="curve" smooth="yes"/>
      <point x="122" y="7"/>
      <point x="56" y="-2"/>
      <point x="40" y="-3" type="curve" smooth="yes"/>
      <point x="31" y="-3"/>
      <point x="22" y="-3"/>
      <point x="20" y="7" type="curve" smooth="yes"/>
      <point x="16" y="24"/>
      <point x="44" y="31"/>
      <point x="59" y="34" type="curve" smooth="yes"/>
      <point x="109" y="41"/>
      <point x="118" y="67"/>
      <point x="124" y="100" type="curve"/>
      <point x="135" y="136"/>
      <point x="129" y="471"/>
      <point x="128" y="500" type="curve" smooth="yes"/>
      <point x="126" y="556"/>
      <point x="56" y="567"/>
      <point x="38" y="571" type="curve" smooth="yes"/>
      <point x="25" y="573"/>
      <point x="22" y="579"/>
    </contour>
  </outline>
</glyph>
<glyph name="G" format="1">
  <advance width="632"/>
  <unicode hex="0047"/>
  <outline>
    <contour>
      <point x="295" y="-14" type="curve" smooth="yes"/>
      <point x="99" y="-14"/>
      <point x="38" y="146"/>
      <point x="38" y="242" type="curve" smooth="yes"/>
      <point x="38" y="476"/>
      <point x="210" y="604"/>
      <point x="374" y="604" type="curve" smooth="yes"/>
      <point x="474" y="604"/>
      <point x="533" y="566"/>
      <point x="533" y="507" type="curve" smooth="yes"/>
      <point x="533" y="468"/>
      <point x="509" y="440"/>
      <point x="493" y="423" type="curve" smooth="yes"/>
      <point x="486" y="416"/>
      <point x="479" y="412"/>
      <point x="472" y="416" type="curve" smooth="yes"/>
      <point x="467" y="418"/>
      <point x="469" y="424"/>
      <point x="472" y="435" type="curve" smooth="yes"/>
      <point x="492" y="494"/>
      <point x="441" y="566"/>
      <point x="359" y="566" type="curve" smooth="yes"/>
      <point x="194" y="566"/>
      <point x="114" y="427"/>
      <point x="114" y="299" type="curve" smooth="yes"/>
      <point x="114" y="104"/>
      <point x="235" y="22"/>
      <point x="311" y="22" type="curve" smooth="yes"/>
      <point x="424" y="22"/>
      <point x="481" y="124"/>
      <point x="481" y="189" type="curve" smooth="yes"/>
      <point x="481" y="253"/>
      <point x="428" y="265"/>
      <point x="334" y="265" type="curve" smooth="yes"/>
      <point x="304" y="265"/>
      <point x="289" y="269"/>
      <point x="289" y="283" type="curve" smooth="yes"/>
      <point x="289" y="293"/>
      <point x="302" y="295"/>
      <point x="330" y="293" type="curve" smooth="yes"/>
      <point x="380" y="290"/>
      <point x="542" y="291"/>
      <point x="589" y="295" type="curve"/>
      <point x="599" y="294"/>
      <point x="609" y="293"/>
      <point x="610" y="287" type="curve" smooth="yes"/>
      <point x="614" y="275"/>
      <point x="600" y="269"/>
      <point x="584" y="264" type="curve" smooth="yes"/>
      <point x="568" y="259"/>
      <point x="557" y="253"/>
      <point x="559" y="233" type="curve" smooth="yes"/>
      <point x="560" y="226"/>
      <point x="561" y="214"/>
      <point x="561" y="201" type="curve" smooth="yes"/>
      <point x="561" y="74"/>
      <point x="440" y="-14"/>
    </contour>
  </outline>
</glyph>
<glyph name="K" format="1">
  <advance width="675"/>
  <unicode hex="004B"/>
  <outline>
    <contour>
      <point x="65" y="597" type="curve"/>
      <point x="95" y="593"/>
      <point x="216" y="593"/>
      <point x="270" y="597" type="curve" smooth="yes"/>
      <point x="290" y="598"/>
      <point x="300" y="598"/>
      <point x="300" y="583" type="curve"/>
      <point x="298" y="573"/>
      <point x="290" y="568"/>
      <point x="276" y="568" type="curve"/>
      <point x="214" y="556"/>
      <point x="210" y="540"/>
      <point x="204" y="497" type="curve" smooth="yes"/>
      <point x="203" y="488"/>
      <point x="199" y="405"/>
      <point x="199" y="316" type="curve" smooth="yes"/>
      <point x="199" y="310"/>
      <point x="205" y="303"/>
      <point x="214" y="311" type="curve"/>
      <point x="293" y="395"/>
      <point x="457" y="545"/>
      <point x="519" y="585" type="curve" smooth="yes"/>
      <point x="544" y="601"/>
      <point x="558" y="603"/>
      <point x="570" y="603" type="curve" smooth="yes"/>
      <point x="598" y="603"/>
      <point x="602" y="567"/>
      <point x="602" y="545" type="curve" smooth="yes"/>
      <point x="602" y="533"/>
      <point x="593" y="497"/>
      <point x="579" y="476" type="curve" smooth="yes"/>
      <point x="573" y="467"/>
      <point x="569" y="460"/>
      <point x="562" y="461" type="curve" smooth="yes"/>
      <point x="549" y="464"/>
      <point x="553" y="473"/>
      <point x="553" y="480" type="curve" smooth="yes"/>
      <point x="553" y="492"/>
      <point x="538" y="508"/>
      <point x="524" y="508" type="curve" smooth="yes"/>
      <point x="506" y="508"/>
      <point x="483" y="501"/>
      <point x="460" y="485" type="curve" smooth="yes"/>
      <point x="422" y="460"/>
      <point x="370" y="423"/>
      <point x="324" y="375" type="curve" smooth="yes"/>
      <point x="313" y="364"/>
      <point x="314" y="354"/>
      <point x="322" y="341" type="curve" smooth="yes"/>
      <point x="353" y="289"/>
      <point x="466" y="145"/>
      <point x="474" y="136" type="curve" smooth="yes"/>
      <point x="513" y="89"/>
      <point x="575" y="46"/>
      <point x="628" y="49" type="curve" smooth="yes"/>
      <point x="641" y="49"/>
      <point x="650" y="50"/>
      <point x="656" y="49" type="curve" smooth="yes"/>
      <point x="662" y="48"/>
      <point x="666" y="43"/>
      <point x="668" y="39" type="curve" smooth="yes"/>
      <point x="671" y="30"/>
      <point x="657" y="23"/>
      <point x="651" y="19" type="curve" smooth="yes"/>
      <point x="636" y="10"/>
      <point x="561" y="-7"/>
      <point x="535" y="-6" type="curve"/>
      <point x="506" y="-2"/>
      <point x="494" y="6"/>
      <point x="482" y="14" type="curve" smooth="yes"/>
      <point x="445" y="40"/>
      <point x="287" y="258"/>
      <point x="262" y="304" type="curve" smooth="yes"/>
      <point x="257" y="313"/>
      <point x="247" y="308"/>
      <point x="241" y="303" type="curve" smooth="yes"/>
      <point x="229" y="294"/>
      <point x="218" y="283"/>
      <point x="210" y="273" type="curve" smooth="yes"/>
      <point x="199" y="258"/>
      <point x="198" y="251"/>
      <point x="198" y="221" type="curve" smooth="yes"/>
      <point x="198" y="172"/>
      <point x="199" y="120"/>
      <point x="203" y="101" type="curve"/>
      <point x="208" y="68"/>
      <point x="213" y="56"/>
      <point x="250" y="37" type="curve" smooth="yes"/>
      <point x="269" y="28"/>
      <point x="295" y="30"/>
      <point x="296" y="12" type="curve" smooth="yes"/>
      <point x="297" y="1"/>
      <point x="284" y="-3"/>
      <point x="261" y="-1" type="curve" smooth="yes"/>
      <point x="194" y="7"/>
      <point x="63" y="-2"/>
      <point x="41" y="-3" type="curve" smooth="yes"/>
      <point x="31" y="-3"/>
      <point x="22" y="-3"/>
      <point x="20" y="7" type="curve" smooth="yes"/>
      <point x="16" y="25"/>
      <point x="45" y="30"/>
      <point x="59" y="33" type="curve" smooth="yes"/>
      <point x="108" y="41"/>
      <point x="120" y="68"/>
      <point x="125" y="100" type="curve"/>
      <point x="137" y="136"/>
      <point x="135" y="471"/>
      <point x="133" y="501" type="curve" smooth="yes"/>
      <point x="131" y="556"/>
      <point x="59" y="567"/>
      <point x="42" y="571" type="curve"/>
      <point x="29" y="573"/>
      <point x="26" y="580"/>
      <point x="26" y="587" type="curve" smooth="yes"/>
      <point x="26" y="593"/>
      <point x="33" y="600"/>
    </contour>
  </outline>
</glyph>
<glyph name="M" format="1">
  <advance width="925"/>
  <unicode hex="004D"/>
  <outline>
    <contour>
      <point x="67" y="583" type="curve" smooth="yes"/>
      <point x="67" y="594"/>
      <point x="79" y="598"/>
      <point x="93" y="598" type="curve" smooth="yes"/>
      <point x="96" y="598"/>
      <point x="186" y="598"/>
      <point x="219" y="593" type="curve" smooth="yes"/>
      <point x="262" y="586"/>
      <point x="280" y="561"/>
      <point x="300" y="526" type="curve"/>
      <point x="294" y="547"/>
      <point x="444" y="169"/>
      <point x="469" y="125" type="curve"/>
      <point x="472" y="117"/>
      <point x="484" y="111"/>
      <point x="490" y="125" type="curve" smooth="yes"/>
      <point x="532" y="237"/>
      <point x="612" y="468"/>
      <point x="619" y="493" type="curve" smooth="yes"/>
      <point x="639" y="564"/>
      <point x="660" y="593"/>
      <point x="725" y="597" type="curve" smooth="yes"/>
      <point x="753" y="598"/>
      <point x="790" y="598"/>
      <point x="807" y="598" type="curve" smooth="yes"/>
      <point x="823" y="598"/>
      <point x="827" y="594"/>
      <point x="827" y="584" type="curve" smooth="yes"/>
      <point x="827" y="575"/>
      <point x="815" y="572"/>
      <point x="809" y="571" type="curve" smooth="yes"/>
      <point x="739" y="553"/>
      <point x="736" y="530"/>
      <point x="742" y="488" type="curve"/>
      <point x="764" y="358"/>
      <point x="792" y="220"/>
      <point x="827" y="90" type="curve" smooth="yes"/>
      <point x="836" y="57"/>
      <point x="875" y="33"/>
      <point x="903" y="24" type="curve" smooth="yes"/>
      <point x="917" y="20"/>
      <point x="920" y="18"/>
      <point x="918" y="7" type="curve" smooth="yes"/>
      <point x="916" y="0"/>
      <point x="909" y="-3"/>
      <point x="899" y="-2" type="curve" smooth="yes"/>
      <point x="832" y="7"/>
      <point x="755" y="4"/>
      <point x="700" y="0" type="curve" smooth="yes"/>
      <point x="681" y="-2"/>
      <point x="666" y="-5"/>
      <point x="662" y="7" type="curve"/>
      <point x="660" y="17"/>
      <point x="664" y="21"/>
      <point x="682" y="26" type="curve"/>
      <point x="705" y="34"/>
      <point x="747" y="62"/>
      <point x="740" y="110" type="curve" smooth="yes"/>
      <point x="721" y="231"/>
      <point x="699" y="348"/>
      <point x="671" y="466" type="curve" smooth="yes"/>
      <point x="665" y="487"/>
      <point x="653" y="478"/>
      <point x="648" y="466" type="curve" smooth="yes"/>
      <point x="636" y="439"/>
      <point x="539" y="168"/>
      <point x="508" y="49" type="curve"/>
      <point x="508" y="49"/>
      <point x="499" y="34"/>
      <point x="492" y="28" type="curve" smooth="yes"/>
      <point x="476" y="15"/>
      <point x="453" y="-1"/>
      <point x="419" y="-1" type="curve" smooth="yes"/>
      <point x="409" y="-1"/>
      <point x="403" y="1"/>
      <point x="397" y="18" type="curve" smooth="yes"/>
      <point x="393" y="28"/>
      <point x="387" y="55"/>
      <point x="386" y="65" type="curve"/>
      <point x="366" y="153"/>
      <point x="296" y="340"/>
      <point x="243" y="454" type="curve" smooth="yes"/>
      <point x="237" y="465"/>
      <point x="229" y="484"/>
      <point x="218" y="454" type="curve"/>
      <point x="198" y="375"/>
      <point x="168" y="263"/>
      <point x="154" y="173" type="curve" smooth="yes"/>
      <point x="146" y="116"/>
      <point x="143" y="40"/>
      <point x="211" y="27" type="curve" smooth="yes"/>
      <point x="226" y="24"/>
      <point x="233" y="20"/>
      <point x="231" y="10" type="curve" smooth="yes"/>
      <point x="229" y="-2"/>
      <point x="220" y="-3"/>
      <point x="200" y="-1" type="curve" smooth="yes"/>
      <point x="155" y="3"/>
      <point x="95" y="3"/>
      <point x="61" y="1" type="curve" smooth="yes"/>
      <point x="45" y="0"/>
      <point x="16" y="-7"/>
      <point x="13" y="10" type="curve" smooth="yes"/>
      <point x="11" y="20"/>
      <point x="25" y="24"/>
      <point x="35" y="31" type="curve" smooth="yes"/>
      <point x="55" y="46"/>
      <point x="73" y="74"/>
      <point x="86" y="104" type="curve"/>
      <point x="106" y="155"/>
      <point x="175" y="392"/>
      <point x="185" y="468" type="curve" smooth="yes"/>
      <point x="192" y="518"/>
      <point x="162" y="560"/>
      <point x="90" y="568" type="curve" smooth="yes"/>
      <point x="74" y="570"/>
      <point x="67" y="571"/>
    </contour>
  </outline>
</glyph>
<glyph name="O" format="1">
  <advance width="677"/>
  <unicode hex="004F"/>
  <outline>
    <contour>
      <point x="370" y="614" type="curve" smooth="yes"/>
      <point x="535" y="614"/>
      <point x="640" y="511"/>
      <point x="640" y="340" type="curve" smooth="yes"/>
      <point x="640" y="126"/>
      <point x="491" y="-19"/>
      <point x="315" y="-19" type="curve" smooth="yes"/>
      <point x="136" y="-19"/>
      <point x="38" y="109"/>
      <point x="38" y="277" type="curve" smooth="yes"/>
      <point x="38" y="402"/>
      <point x="145" y="614"/>
    </contour>
    <contour>
      <point x="561" y="319" type="curve" smooth="yes"/>
      <point x="561" y="465"/>
      <point x="470" y="574"/>
      <point x="335" y="574" type="curve" smooth="yes"/>
      <point x="261" y="574"/>
      <point x="123" y="499"/>
      <point x="123" y="285" type="curve" smooth="yes"/>
      <point x="123" y="116"/>
      <point x="237" y="20"/>
      <point x="347" y="20" type="curve" smooth="yes"/>
      <point x="444" y="20"/>
      <point x="561" y="109"/>
    </contour>
  </outline>
</glyph>
<glyph name="P" format="1">
  <advance width="517"/>
  <unicode hex="0050"/>
  <outline>
    <contour>
      <point x="26" y="586" type="curve" smooth="yes"/>
      <point x="26" y="593"/>
      <point x="33" y="600"/>
      <point x="65" y="596" type="curve" smooth="yes"/>
      <point x="117" y="588"/>
      <point x="167" y="593"/>
      <point x="240" y="593" type="curve" smooth="yes"/>
      <point x="260" y="593"/>
      <point x="300" y="598"/>
      <point x="383" y="598" type="curve" smooth="yes"/>
      <point x="464" y="598"/>
      <point x="505" y="565"/>
      <point x="505" y="476" type="curve" smooth="yes"/>
      <point x="505" y="297"/>
      <point x="330" y="266"/>
      <point x="283" y="266" type="curve" smooth="yes"/>
      <point x="267" y="266"/>
      <point x="250" y="265"/>
      <point x="250" y="283" type="curve" smooth="yes"/>
      <point x="250" y="289"/>
      <point x="254" y="296"/>
      <point x="269" y="297" type="curve" smooth="yes"/>
      <point x="341" y="303"/>
      <point x="428" y="332"/>
      <point x="428" y="450" type="curve" smooth="yes"/>
      <point x="428" y="519"/>
      <point x="372" y="559"/>
      <point x="306" y="561" type="curve" smooth="yes"/>
      <point x="285" y="561"/>
      <point x="263" y="560"/>
      <point x="231" y="559" type="curve" smooth="yes"/>
      <point x="210" y="558"/>
      <point x="205" y="551"/>
      <point x="204" y="531" type="curve" smooth="yes"/>
      <point x="200" y="442"/>
      <point x="191" y="177"/>
      <point x="203" y="101" type="curve" smooth="yes"/>
      <point x="208" y="68"/>
      <point x="212" y="56"/>
      <point x="250" y="37" type="curve" smooth="yes"/>
      <point x="269" y="28"/>
      <point x="295" y="30"/>
      <point x="296" y="12" type="curve" smooth="yes"/>
      <point x="297" y="1"/>
      <point x="284" y="-3"/>
      <point x="260" y="-1" type="curve" smooth="yes"/>
      <point x="194" y="7"/>
      <point x="63" y="-2"/>
      <point x="41" y="-3" type="curve" smooth="yes"/>
      <point x="31" y="-3"/>
      <point x="22" y="-3"/>
      <point x="20" y="7" type="curve" smooth="yes"/>
      <point x="16" y="25"/>
      <point x="45" y="30"/>
      <point x="59" y="33" type="curve" smooth="yes"/>
      <point x="108" y="41"/>
      <point x="118" y="68"/>
      <point x="123" y="100" type="curve"/>
      <point x="136" y="136"/>
      <point x="133" y="471"/>
      <point x="131" y="500" type="curve"/>
      <point x="130" y="556"/>
      <point x="59" y="567"/>
      <point x="42" y="571" type="curve"/>
      <point x="29" y="573"/>
      <point x="26" y="580"/>
    </contour>
  </outline>
</glyph>
<glyph name="Q" format="1">
  <advance width="697"/>
  <unicode hex="0051"/>
  <outline>
    <contour>
      <point x="367" y="610" type="curve" smooth="yes"/>
      <point x="529" y="610"/>
      <point x="634" y="508"/>
      <point x="634" y="338" type="curve" smooth="yes"/>
      <point x="634" y="225"/>
      <point x="590" y="126"/>
      <point x="524" y="67" type="curve" smooth="yes"/>
      <point x="518" y="61"/>
      <point x="522" y="52"/>
      <point x="524" y="47" type="curve"/>
      <point x="550" y="10"/>
      <point x="606" y="-64"/>
      <point x="655" y="-64" type="curve" smooth="yes"/>
      <point x="684" y="-64"/>
      <point x="709" y="-59"/>
      <point x="724" y="-54" type="curve" smooth="yes"/>
      <point x="736" y="-49"/>
      <point x="741" y="-52"/>
      <point x="742" y="-56" type="curve"/>
      <point x="746" y="-62"/>
      <point x="742" y="-70"/>
      <point x="729" y="-78" type="curve" smooth="yes"/>
      <point x="689" y="-104"/>
      <point x="646" y="-126"/>
      <point x="585" y="-126" type="curve" smooth="yes"/>
      <point x="538" y="-126"/>
      <point x="488" y="-45"/>
      <point x="461" y="9" type="curve" smooth="yes"/>
      <point x="457" y="18"/>
      <point x="452" y="18"/>
      <point x="444" y="14" type="curve" smooth="yes"/>
      <point x="407" y="-4"/>
      <point x="354" y="-13"/>
      <point x="311" y="-13" type="curve" smooth="yes"/>
      <point x="136" y="-13"/>
      <point x="38" y="109"/>
      <point x="38" y="276" type="curve" smooth="yes"/>
      <point x="38" y="399"/>
      <point x="144" y="610"/>
    </contour>
    <contour>
      <point x="556" y="317" type="curve" smooth="yes"/>
      <point x="556" y="476"/>
      <point x="451" y="571"/>
      <point x="332" y="571" type="curve" smooth="yes"/>
      <point x="258" y="571"/>
      <point x="122" y="496"/>
      <point x="122" y="283" type="curve" smooth="yes"/>
      <point x="122" y="244"/>
      <point x="125" y="215"/>
      <point x="136" y="186" type="curve"/>
      <point x="141" y="176"/>
      <point x="151" y="179"/>
      <point x="156" y="186" type="curve" smooth="yes"/>
      <point x="193" y="231"/>
      <point x="226" y="263"/>
      <point x="304" y="263" type="curve" smooth="yes"/>
      <point x="393" y="263"/>
      <point x="449" y="174"/>
      <point x="490" y="112" type="curve" smooth="yes"/>
      <point x="492" y="109"/>
      <point x="499" y="106"/>
      <point x="502" y="110" type="curve" smooth="yes"/>
      <point x="534" y="155"/>
      <point x="556" y="228"/>
    </contour>
    <contour>
      <point x="169" y="124" type="curve" smooth="yes"/>
      <point x="210" y="60"/>
      <point x="277" y="24"/>
      <point x="343" y="24" type="curve" smooth="yes"/>
      <point x="368" y="24"/>
      <point x="403" y="34"/>
      <point x="428" y="45" type="curve" smooth="yes"/>
      <point x="435" y="49"/>
      <point x="435" y="55"/>
      <point x="433" y="61" type="curve"/>
      <point x="399" y="123"/>
      <point x="337" y="209"/>
      <point x="252" y="209" type="curve" smooth="yes"/>
      <point x="220" y="209"/>
      <point x="186" y="182"/>
      <point x="169" y="153" type="curve" smooth="yes"/>
      <point x="165" y="145"/>
      <point x="163" y="133"/>
    </contour>
  </outline>
</glyph>
<glyph name="S" format="1">
  <advance width="480"/>
  <unicode hex="0053"/>
  <outline>
    <contour>
      <point x="266" y="609" type="curve" smooth="yes"/>
      <point x="362" y="609"/>
      <point x="408" y="582"/>
      <point x="408" y="531" type="curve" smooth="yes"/>
      <point x="408" y="503"/>
      <point x="391" y="474"/>
      <point x="377" y="459" type="curve" smooth="yes"/>
      <point x="362" y="442"/>
      <point x="354" y="434"/>
      <point x="345" y="441" type="curve" smooth="yes"/>
      <point x="337" y="446"/>
      <point x="337" y="459"/>
      <point x="343" y="471" type="curve" smooth="yes"/>
      <point x="347" y="477"/>
      <point x="348" y="486"/>
      <point x="348" y="497" type="curve" smooth="yes"/>
      <point x="348" y="547"/>
      <point x="301" y="572"/>
      <point x="254" y="572" type="curve" smooth="yes"/>
      <point x="205" y="572"/>
      <point x="136" y="528"/>
      <point x="136" y="468" type="curve" smooth="yes"/>
      <point x="136" y="425"/>
      <point x="163" y="412"/>
      <point x="188" y="396" type="curve"/>
      <point x="242" y="368"/>
      <point x="315" y="338"/>
      <point x="353" y="317" type="curve" smooth="yes"/>
      <point x="415" y="284"/>
      <point x="434" y="238"/>
      <point x="434" y="198" type="curve" smooth="yes"/>
      <point x="434" y="82"/>
      <point x="343" y="-15"/>
      <point x="210" y="-15" type="curve" smooth="yes"/>
      <point x="102" y="-15"/>
      <point x="44" y="12"/>
      <point x="44" y="68" type="curve" smooth="yes"/>
      <point x="44" y="107"/>
      <point x="81" y="145"/>
      <point x="95" y="157" type="curve"/>
      <point x="99" y="162"/>
      <point x="114" y="170"/>
      <point x="119" y="168" type="curve" smooth="yes"/>
      <point x="127" y="166"/>
      <point x="130" y="155"/>
      <point x="126" y="146" type="curve" smooth="yes"/>
      <point x="120" y="132"/>
      <point x="109" y="116"/>
      <point x="109" y="104" type="curve" smooth="yes"/>
      <point x="109" y="66"/>
      <point x="150" y="24"/>
      <point x="218" y="24" type="curve" smooth="yes"/>
      <point x="306" y="24"/>
      <point x="367" y="77"/>
      <point x="365" y="147" type="curve" smooth="yes"/>
      <point x="364" y="203"/>
      <point x="342" y="217"/>
      <point x="303" y="244" type="curve"/>
      <point x="270" y="265"/>
      <point x="185" y="301"/>
      <point x="154" y="317" type="curve"/>
      <point x="100" y="347"/>
      <point x="69" y="375"/>
      <point x="69" y="441" type="curve" smooth="yes"/>
      <point x="69" y="516"/>
      <point x="153" y="609"/>
    </contour>
  </outline>
</glyph>
<glyph name="V" format="1">
  <advance width="705"/>
  <unicode hex="0056"/>
  <outline>
    <contour>
      <point x="18" y="582" type="curve" smooth="yes"/>
      <point x="18" y="600"/>
      <point x="35" y="603"/>
      <point x="66" y="596" type="curve"/>
      <point x="110" y="590"/>
      <point x="195" y="591"/>
      <point x="242" y="596" type="curve"/>
      <point x="279" y="601"/>
      <point x="287" y="599"/>
      <point x="287" y="583" type="curve" smooth="yes"/>
      <point x="287" y="572"/>
      <point x="282" y="569"/>
      <point x="267" y="566" type="curve" smooth="yes"/>
      <point x="247" y="561"/>
      <point x="236" y="559"/>
      <point x="227" y="546" type="curve" smooth="yes"/>
      <point x="215" y="529"/>
      <point x="219" y="511"/>
      <point x="227" y="486" type="curve"/>
      <point x="271" y="368"/>
      <point x="322" y="221"/>
      <point x="373" y="114" type="curve" smooth="yes"/>
      <point x="377" y="105"/>
      <point x="383" y="88"/>
      <point x="392" y="88" type="curve" smooth="yes"/>
      <point x="404" y="88"/>
      <point x="409" y="102"/>
      <point x="412" y="109" type="curve" smooth="yes"/>
      <point x="459" y="212"/>
      <point x="498" y="329"/>
      <point x="529" y="431" type="curve"/>
      <point x="555" y="513"/>
      <point x="544" y="562"/>
      <point x="500" y="576" type="curve"/>
      <point x="485" y="582"/>
      <point x="480" y="582"/>
      <point x="480" y="591" type="curve" smooth="yes"/>
      <point x="480" y="598"/>
      <point x="496" y="601"/>
      <point x="512" y="601" type="curve"/>
      <point x="581" y="596"/>
      <point x="610" y="593"/>
      <point x="678" y="598" type="curve" smooth="yes"/>
      <point x="692" y="599"/>
      <point x="699" y="593"/>
      <point x="697" y="582" type="curve"/>
      <point x="695" y="577"/>
      <point x="692" y="571"/>
      <point x="678" y="561" type="curve" smooth="yes"/>
      <point x="643" y="534"/>
      <point x="612" y="488"/>
      <point x="589" y="441" type="curve" smooth="yes"/>
      <point x="571" y="403"/>
      <point x="478" y="199"/>
      <point x="450" y="126" type="curve" smooth="yes"/>
      <point x="439" y="97"/>
      <point x="427" y="68"/>
      <point x="424" y="37" type="curve" smooth="yes"/>
      <point x="424" y="33"/>
      <point x="425" y="19"/>
      <point x="414" y="12" type="curve" smooth="yes"/>
      <point x="391" y="-2"/>
      <point x="368" y="-6"/>
      <point x="342" y="-7" type="curve" smooth="yes"/>
      <point x="329" y="-7"/>
      <point x="322" y="-5"/>
      <point x="316" y="8" type="curve" smooth="yes"/>
      <point x="309" y="24"/>
      <point x="302" y="50"/>
      <point x="297" y="66" type="curve" smooth="yes"/>
      <point x="285" y="104"/>
      <point x="193" y="400"/>
      <point x="146" y="486" type="curve"/>
      <point x="127" y="523"/>
      <point x="82" y="560"/>
      <point x="50" y="565" type="curve" smooth="yes"/>
      <point x="33" y="567"/>
      <point x="18" y="572"/>
    </contour>
  </outline>
</glyph>
<glyph name="W" format="1">
  <advance width="989"/>
  <unicode hex="0057"/>
  <outline>
    <contour>
      <point x="303" y="580" type="curve" smooth="yes"/>
      <point x="303" y="599"/>
      <point x="321" y="602"/>
      <point x="353" y="594" type="curve"/>
      <point x="396" y="588"/>
      <point x="480" y="589"/>
      <point x="526" y="594" type="curve"/>
      <point x="563" y="600"/>
      <point x="571" y="598"/>
      <point x="571" y="582" type="curve" smooth="yes"/>
      <point x="571" y="571"/>
      <point x="566" y="568"/>
      <point x="551" y="565" type="curve" smooth="yes"/>
      <point x="531" y="560"/>
      <point x="520" y="558"/>
      <point x="512" y="545" type="curve"/>
      <point x="498" y="528"/>
      <point x="503" y="509"/>
      <point x="511" y="486" type="curve" smooth="yes"/>
      <point x="553" y="368"/>
      <point x="598" y="223"/>
      <point x="647" y="117" type="curve"/>
      <point x="652" y="109"/>
      <point x="658" y="93"/>
      <point x="668" y="93" type="curve" smooth="yes"/>
      <point x="678" y="93"/>
      <point x="684" y="105"/>
      <point x="687" y="113" type="curve" smooth="yes"/>
      <point x="736" y="215"/>
      <point x="783" y="329"/>
      <point x="815" y="430" type="curve" smooth="yes"/>
      <point x="841" y="512"/>
      <point x="828" y="561"/>
      <point x="785" y="575" type="curve" smooth="yes"/>
      <point x="769" y="580"/>
      <point x="764" y="580"/>
      <point x="764" y="589" type="curve" smooth="yes"/>
      <point x="764" y="598"/>
      <point x="781" y="600"/>
      <point x="797" y="600" type="curve"/>
      <point x="865" y="594"/>
      <point x="895" y="592"/>
      <point x="962" y="598" type="curve"/>
      <point x="976" y="598"/>
      <point x="984" y="591"/>
      <point x="981" y="580" type="curve" smooth="yes"/>
      <point x="980" y="576"/>
      <point x="976" y="570"/>
      <point x="962" y="560" type="curve" smooth="yes"/>
      <point x="927" y="533"/>
      <point x="896" y="488"/>
      <point x="872" y="440" type="curve" smooth="yes"/>
      <point x="854" y="403"/>
      <point x="753" y="200"/>
      <point x="726" y="127" type="curve" smooth="yes"/>
      <point x="715" y="98"/>
      <point x="704" y="69"/>
      <point x="700" y="38" type="curve" smooth="yes"/>
      <point x="700" y="34"/>
      <point x="701" y="20"/>
      <point x="689" y="13" type="curve" smooth="yes"/>
      <point x="668" y="-1"/>
      <point x="643" y="-5"/>
      <point x="618" y="-6" type="curve" smooth="yes"/>
      <point x="604" y="-6"/>
      <point x="598" y="-4"/>
      <point x="592" y="9" type="curve" smooth="yes"/>
      <point x="585" y="24"/>
      <point x="578" y="51"/>
      <point x="573" y="67" type="curve" smooth="yes"/>
      <point x="567" y="85"/>
      <point x="543" y="169"/>
      <point x="514" y="258" type="curve" smooth="yes"/>
      <point x="508" y="275"/>
      <point x="500" y="274"/>
      <point x="493" y="258" type="curve" smooth="yes"/>
      <point x="471" y="207"/>
      <point x="450" y="156"/>
      <point x="439" y="127" type="curve"/>
      <point x="426" y="98"/>
      <point x="415" y="69"/>
      <point x="412" y="38" type="curve" smooth="yes"/>
      <point x="412" y="34"/>
      <point x="412" y="20"/>
      <point x="402" y="13" type="curve" smooth="yes"/>
      <point x="379" y="-1"/>
      <point x="355" y="-5"/>
      <point x="329" y="-6" type="curve" smooth="yes"/>
      <point x="316" y="-6"/>
      <point x="310" y="-4"/>
      <point x="303" y="9" type="curve" smooth="yes"/>
      <point x="296" y="24"/>
      <point x="290" y="51"/>
      <point x="285" y="67" type="curve" smooth="yes"/>
      <point x="274" y="104"/>
      <point x="189" y="399"/>
      <point x="145" y="486" type="curve" smooth="yes"/>
      <point x="126" y="523"/>
      <point x="81" y="559"/>
      <point x="49" y="564" type="curve" smooth="yes"/>
      <point x="32" y="566"/>
      <point x="18" y="571"/>
      <point x="18" y="580" type="curve" smooth="yes"/>
      <point x="18" y="599"/>
      <point x="34" y="602"/>
      <point x="66" y="594" type="curve"/>
      <point x="109" y="588"/>
      <point x="172" y="589"/>
      <point x="218" y="594" type="curve"/>
      <point x="255" y="600"/>
      <point x="263" y="598"/>
      <point x="263" y="582" type="curve" smooth="yes"/>
      <point x="263" y="571"/>
      <point x="258" y="568"/>
      <point x="243" y="565" type="curve" smooth="yes"/>
      <point x="212" y="557"/>
      <point x="215" y="512"/>
      <point x="224" y="486" type="curve" smooth="yes"/>
      <point x="266" y="368"/>
      <point x="311" y="223"/>
      <point x="361" y="117" type="curve" smooth="yes"/>
      <point x="365" y="109"/>
      <point x="371" y="93"/>
      <point x="380" y="93" type="curve" smooth="yes"/>
      <point x="392" y="93"/>
      <point x="397" y="105"/>
      <point x="401" y="113" type="curve" smooth="yes"/>
      <point x="430" y="176"/>
      <point x="461" y="245"/>
      <point x="487" y="310" type="curve"/>
      <point x="492" y="326"/>
      <point x="492" y="330"/>
      <point x="487" y="345" type="curve" smooth="yes"/>
      <point x="467" y="404"/>
      <point x="445" y="455"/>
      <point x="432" y="486" type="curve"/>
      <point x="412" y="522"/>
      <point x="367" y="557"/>
      <point x="335" y="564" type="curve" smooth="yes"/>
      <point x="319" y="567"/>
      <point x="303" y="571"/>
    </contour>
  </outline>
</glyph>
<glyph name="X" format="1">
  <advance width="735"/>
  <unicode hex="0058"/>
  <outline>
    <contour>
      <point x="99" y="579" type="curve" smooth="yes"/>
      <point x="99" y="589"/>
      <point x="107" y="598"/>
      <point x="118" y="597" type="curve" smooth="yes"/>
      <point x="142" y="595"/>
      <point x="217" y="589"/>
      <point x="281" y="595" type="curve" smooth="yes"/>
      <point x="306" y="598"/>
      <point x="310" y="583"/>
      <point x="306" y="561" type="curve" smooth="yes"/>
      <point x="304" y="549"/>
      <point x="306" y="523"/>
      <point x="311" y="514" type="curve" smooth="yes"/>
      <point x="315" y="507"/>
      <point x="378" y="404"/>
      <point x="386" y="392" type="curve" smooth="yes"/>
      <point x="394" y="381"/>
      <point x="403" y="369"/>
      <point x="416" y="380" type="curve" smooth="yes"/>
      <point x="440" y="401"/>
      <point x="483" y="484"/>
      <point x="496" y="514" type="curve" smooth="yes"/>
      <point x="506" y="538"/>
      <point x="508" y="556"/>
      <point x="501" y="566" type="curve"/>
      <point x="493" y="573"/>
      <point x="490" y="577"/>
      <point x="492" y="588" type="curve" smooth="yes"/>
      <point x="493" y="595"/>
      <point x="512" y="597"/>
      <point x="521" y="595" type="curve" smooth="yes"/>
      <point x="558" y="590"/>
      <point x="597" y="592"/>
      <point x="626" y="594" type="curve" smooth="yes"/>
      <point x="646" y="596"/>
      <point x="653" y="588"/>
      <point x="653" y="582" type="curve" smooth="yes"/>
      <point x="654" y="569"/>
      <point x="637" y="566"/>
      <point x="631" y="565" type="curve" smooth="yes"/>
      <point x="599" y="555"/>
      <point x="556" y="510"/>
      <point x="542" y="496" type="curve" smooth="yes"/>
      <point x="524" y="479"/>
      <point x="447" y="373"/>
      <point x="432" y="349" type="curve" smooth="yes"/>
      <point x="424" y="337"/>
      <point x="430" y="330"/>
      <point x="435" y="321" type="curve" smooth="yes"/>
      <point x="473" y="248"/>
      <point x="538" y="162"/>
      <point x="560" y="129" type="curve" smooth="yes"/>
      <point x="587" y="88"/>
      <point x="641" y="41"/>
      <point x="687" y="34" type="curve"/>
      <point x="710" y="29"/>
      <point x="716" y="26"/>
      <point x="716" y="12" type="curve" smooth="yes"/>
      <point x="716" y="3"/>
      <point x="705" y="-3"/>
      <point x="678" y="-2" type="curve"/>
      <point x="625" y="3"/>
      <point x="585" y="5"/>
      <point x="525" y="1" type="curve" smooth="yes"/>
      <point x="503" y="-1"/>
      <point x="480" y="-8"/>
      <point x="478" y="8" type="curve" smooth="yes"/>
      <point x="476" y="19"/>
      <point x="481" y="25"/>
      <point x="485" y="33" type="curve" smooth="yes"/>
      <point x="492" y="46"/>
      <point x="492" y="62"/>
      <point x="484" y="82" type="curve" smooth="yes"/>
      <point x="478" y="98"/>
      <point x="410" y="210"/>
      <point x="380" y="260" type="curve" smooth="yes"/>
      <point x="369" y="277"/>
      <point x="356" y="280"/>
      <point x="338" y="259" type="curve" smooth="yes"/>
      <point x="314" y="231"/>
      <point x="230" y="128"/>
      <point x="215" y="76" type="curve" smooth="yes"/>
      <point x="210" y="58"/>
      <point x="209" y="45"/>
      <point x="221" y="33" type="curve" smooth="yes"/>
      <point x="235" y="19"/>
      <point x="235" y="20"/>
      <point x="236" y="11" type="curve" smooth="yes"/>
      <point x="237" y="-1"/>
      <point x="224" y="-3"/>
      <point x="202" y="0" type="curve" smooth="yes"/>
      <point x="184" y="3"/>
      <point x="99" y="3"/>
      <point x="81" y="2" type="curve"/>
      <point x="48" y="-2"/>
      <point x="27" y="-3"/>
      <point x="27" y="11" type="curve" smooth="yes"/>
      <point x="27" y="25"/>
      <point x="44" y="33"/>
      <point x="57" y="35" type="curve"/>
      <point x="85" y="42"/>
      <point x="125" y="74"/>
      <point x="145" y="93" type="curve" smooth="yes"/>
      <point x="190" y="138"/>
      <point x="288" y="241"/>
      <point x="319" y="283" type="curve" smooth="yes"/>
      <point x="335" y="304"/>
      <point x="333" y="322"/>
      <point x="328" y="332" type="curve" smooth="yes"/>
      <point x="314" y="364"/>
      <point x="237" y="488"/>
      <point x="219" y="508" type="curve"/>
      <point x="181" y="547"/>
      <point x="171" y="558"/>
      <point x="128" y="561" type="curve" smooth="yes"/>
      <point x="109" y="563"/>
      <point x="99" y="571"/>
    </contour>
  </outline>
</glyph>
<glyph name="Y" format="1">
  <advance width="561"/>
  <unicode hex="0059"/>
  <outline>
    <contour>
      <point x="19" y="583" type="curve" smooth="yes"/>
      <point x="18" y="591"/>
      <point x="29" y="598"/>
      <point x="45" y="596" type="curve" smooth="yes"/>
      <point x="103" y="590"/>
      <point x="153" y="592"/>
      <point x="202" y="595" type="curve" smooth="yes"/>
      <point x="213" y="596"/>
      <point x="220" y="594"/>
      <point x="223" y="588" type="curve" smooth="yes"/>
      <point x="226" y="582"/>
      <point x="222" y="572"/>
      <point x="213" y="562" type="curve" smooth="yes"/>
      <point x="201" y="548"/>
      <point x="200" y="539"/>
      <point x="207" y="520" type="curve"/>
      <point x="199" y="526"/>
      <point x="292" y="367"/>
      <point x="295" y="363" type="curve" smooth="yes"/>
      <point x="303" y="355"/>
      <point x="309" y="354"/>
      <point x="322" y="366" type="curve" smooth="yes"/>
      <point x="347" y="390"/>
      <point x="410" y="484"/>
      <point x="415" y="508" type="curve" smooth="yes"/>
      <point x="421" y="536"/>
      <point x="406" y="557"/>
      <point x="389" y="569" type="curve"/>
      <point x="375" y="577"/>
      <point x="377" y="579"/>
      <point x="379" y="588" type="curve" smooth="yes"/>
      <point x="380" y="593"/>
      <point x="395" y="596"/>
      <point x="402" y="595" type="curve" smooth="yes"/>
      <point x="432" y="590"/>
      <point x="509" y="592"/>
      <point x="521" y="593" type="curve"/>
      <point x="536" y="596"/>
      <point x="551" y="593"/>
      <point x="551" y="580" type="curve" smooth="yes"/>
      <point x="551" y="568"/>
      <point x="540" y="563"/>
      <point x="518" y="550" type="curve"/>
      <point x="497" y="536"/>
      <point x="471" y="503"/>
      <point x="451" y="479" type="curve"/>
      <point x="421" y="439"/>
      <point x="373" y="384"/>
      <point x="344" y="344" type="curve"/>
      <point x="323" y="317"/>
      <point x="318" y="302"/>
      <point x="316" y="276" type="curve" smooth="yes"/>
      <point x="315" y="258"/>
      <point x="315" y="138"/>
      <point x="315" y="106" type="curve" smooth="yes"/>
      <point x="316" y="58"/>
      <point x="352" y="38"/>
      <point x="399" y="24" type="curve" smooth="yes"/>
      <point x="411" y="20"/>
      <point x="419" y="15"/>
      <point x="419" y="8" type="curve" smooth="yes"/>
      <point x="418" y="-6"/>
      <point x="397" y="-5"/>
      <point x="386" y="-3" type="curve" smooth="yes"/>
      <point x="355" y="2"/>
      <point x="223" y="7"/>
      <point x="170" y="-2" type="curve" smooth="yes"/>
      <point x="155" y="-5"/>
      <point x="134" y="-8"/>
      <point x="132" y="2" type="curve" smooth="yes"/>
      <point x="130" y="13"/>
      <point x="134" y="19"/>
      <point x="155" y="23" type="curve" smooth="yes"/>
      <point x="205" y="31"/>
      <point x="238" y="60"/>
      <point x="240" y="98" type="curve" smooth="yes"/>
      <point x="241" y="113"/>
      <point x="244" y="231"/>
      <point x="242" y="281" type="curve"/>
      <point x="240" y="304"/>
      <point x="241" y="301"/>
      <point x="235" y="318" type="curve" smooth="yes"/>
      <point x="219" y="362"/>
      <point x="136" y="490"/>
      <point x="114" y="519" type="curve"/>
      <point x="94" y="541"/>
      <point x="69" y="564"/>
      <point x="45" y="566" type="curve" smooth="yes"/>
      <point x="29" y="568"/>
      <point x="19" y="575"/>
    </contour>
  </outline>
</glyph>
<glyph name="bracketleft" format="1">
  <advance width="272"/>
  <unicode hex="005B"/>
  <outline>
    <contour>
      <point x="195" y="633" type="curve" smooth="yes"/>
      <point x="210" y="633"/>
      <point x="220" y="630"/>
      <point x="220" y="621" type="curve" smooth="yes"/>
      <point x="220" y="610"/>
      <point x="208" y="606"/>
      <point x="198" y="605" type="curve" smooth="yes"/>
      <point x="188" y="604"/>
      <point x="146" y="604"/>
      <point x="130" y="603" type="curve" smooth="yes"/>
      <point x="114" y="601"/>
      <point x="114" y="597"/>
      <point x="114" y="577" type="curve" smooth="yes"/>
      <point x="112" y="524"/>
      <point x="111" y="104"/>
      <point x="112" y="24" type="curve" smooth="yes"/>
      <point x="112" y="11"/>
      <point x="113" y="5"/>
      <point x="126" y="5" type="curve" smooth="yes"/>
      <point x="132" y="5"/>
      <point x="194" y="3"/>
      <point x="205" y="3" type="curve" smooth="yes"/>
      <point x="217" y="3"/>
      <point x="222" y="-7"/>
      <point x="222" y="-13" type="curve" smooth="yes"/>
      <point x="222" y="-19"/>
      <point x="213" y="-27"/>
      <point x="203" y="-27" type="curve" smooth="yes"/>
      <point x="193" y="-27"/>
      <point x="88" y="-24"/>
      <point x="72" y="-24" type="curve" smooth="yes"/>
      <point x="56" y="-24"/>
      <point x="51" y="-20"/>
      <point x="51" y="-3" type="curve" smooth="yes"/>
      <point x="53" y="188"/>
      <point x="55" y="348"/>
      <point x="53" y="608" type="curve" smooth="yes"/>
      <point x="53" y="630"/>
      <point x="59" y="630"/>
      <point x="77" y="630" type="curve" smooth="yes"/>
      <point x="87" y="630"/>
      <point x="187" y="633"/>
    </contour>
  </outline>
</glyph>
<glyph name="backslash" format="1">
  <advance width="448"/>
  <unicode hex="005C"/>
  <outline>
    <contour>
      <point x="48" y="610" type="curve" smooth="yes"/>
      <point x="61" y="612"/>
      <point x="72" y="607"/>
      <point x="94" y="570" type="curve" smooth="yes"/>
      <point x="153" y="475"/>
      <point x="329" y="161"/>
      <point x="363" y="109" type="curve" smooth="yes"/>
      <point x="378" y="86"/>
      <point x="405" y="61"/>
      <point x="410" y="33" type="curve" smooth="yes"/>
      <point x="413" y="13"/>
      <point x="407" y="-12"/>
      <point x="400" y="-21" type="curve" smooth="yes"/>
      <point x="394" y="-29"/>
      <point x="386" y="-27"/>
      <point x="378" y="-16" type="curve" smooth="yes"/>
      <point x="364" y="3"/>
      <point x="348" y="35"/>
      <point x="337" y="56" type="curve" smooth="yes"/>
      <point x="297" y="130"/>
      <point x="117" y="471"/>
      <point x="70" y="547" type="curve" smooth="yes"/>
      <point x="41" y="592"/>
      <point x="28" y="607"/>
    </contour>
  </outline>
</glyph>
<glyph name="bracketright" format="1">
  <advance width="272"/>
  <unicode hex="005D"/>
  <outline>
    <contour>
      <point x="77" y="-28" type="curve" smooth="yes"/>
      <point x="62" y="-28"/>
      <point x="53" y="-25"/>
      <point x="53" y="-16" type="curve" smooth="yes"/>
      <point x="53" y="-5"/>
      <point x="65" y="-1"/>
      <point x="75" y="0" type="curve" smooth="yes"/>
      <point x="85" y="1"/>
      <point x="126" y="1"/>
      <point x="142" y="3" type="curve" smooth="yes"/>
      <point x="158" y="4"/>
      <point x="157" y="8"/>
      <point x="159" y="28" type="curve" smooth="yes"/>
      <point x="162" y="54"/>
      <point x="162" y="536"/>
      <point x="161" y="582" type="curve" smooth="yes"/>
      <point x="160" y="595"/>
      <point x="160" y="601"/>
      <point x="146" y="601" type="curve" smooth="yes"/>
      <point x="141" y="601"/>
      <point x="79" y="604"/>
      <point x="67" y="604" type="curve" smooth="yes"/>
      <point x="56" y="604"/>
      <point x="51" y="613"/>
      <point x="51" y="619" type="curve" smooth="yes"/>
      <point x="51" y="625"/>
      <point x="60" y="633"/>
      <point x="70" y="633" type="curve" smooth="yes"/>
      <point x="80" y="633"/>
      <point x="185" y="630"/>
      <point x="201" y="630" type="curve" smooth="yes"/>
      <point x="217" y="630"/>
      <point x="222" y="626"/>
      <point x="222" y="609" type="curve" smooth="yes"/>
      <point x="220" y="418"/>
      <point x="218" y="258"/>
      <point x="220" y="-3" type="curve" smooth="yes"/>
      <point x="220" y="-24"/>
      <point x="214" y="-25"/>
      <point x="196" y="-25" type="curve" smooth="yes"/>
      <point x="186" y="-25"/>
      <point x="86" y="-28"/>
    </contour>
  </outline>
</glyph>
<glyph name="asciicircum" format="1">
  <advance width="401"/>
  <unicode hex="005E"/>
  <outline>
    <contour>
      <point x="195" y="551" type="curve"/>
      <point x="185" y="540"/>
      <point x="95" y="387"/>
      <point x="80" y="359" type="curve" smooth="yes"/>
      <point x="72" y="345"/>
      <point x="70" y="341"/>
      <point x="51" y="341" type="curve" smooth="yes"/>
      <point x="40" y="341"/>
      <point x="38" y="344"/>
      <point x="56" y="375" type="curve" smooth="yes"/>
      <point x="69" y="396"/>
      <point x="150" y="532"/>
      <point x="178" y="585" type="curve" smooth="yes"/>
      <point x="183" y="593"/>
      <point x="189" y="601"/>
      <point x="205" y="605" type="curve" smooth="yes"/>
      <point x="221" y="609"/>
      <point x="223" y="601"/>
      <point x="232" y="583" type="curve" smooth="yes"/>
      <point x="266" y="521"/>
      <point x="309" y="454"/>
      <point x="321" y="436" type="curve" smooth="yes"/>
      <point x="332" y="418"/>
      <point x="355" y="395"/>
      <point x="359" y="374" type="curve"/>
      <point x="361" y="358"/>
      <point x="354" y="343"/>
      <point x="348" y="337" type="curve"/>
      <point x="343" y="330"/>
      <point x="338" y="332"/>
      <point x="332" y="340" type="curve" smooth="yes"/>
      <point x="321" y="355"/>
      <point x="309" y="380"/>
      <point x="300" y="395" type="curve" smooth="yes"/>
      <point x="285" y="420"/>
      <point x="251" y="489"/>
      <point x="213" y="551" type="curve" smooth="yes"/>
      <point x="208" y="560"/>
      <point x="201" y="560"/>
    </contour>
  </outline>
</glyph>
<glyph name="underscore" format="1">
  <advance width="440"/>
  <unicode hex="005F"/>
  <outline>
    <contour>
      <point x="43" y="-65" type="curve" smooth="yes"/>
      <point x="22" y="-65"/>
      <point x="13" y="-60"/>
      <point x="19" y="-47" type="curve" smooth="yes"/>
      <point x="26" y="-33"/>
      <point x="39" y="-30"/>
      <point x="60" y="-30" type="curve" smooth="yes"/>
      <point x="188" y="-29"/>
      <point x="280" y="-24"/>
      <point x="375" y="-16" type="curve" smooth="yes"/>
      <point x="401" y="-13"/>
      <point x="420" y="-7"/>
      <point x="420" y="-25" type="curve" smooth="yes"/>
      <point x="420" y="-33"/>
      <point x="408" y="-47"/>
      <point x="392" y="-56" type="curve" smooth="yes"/>
      <point x="381" y="-62"/>
      <point x="368" y="-62"/>
      <point x="355" y="-62" type="curve" smooth="yes"/>
      <point x="308" y="-63"/>
      <point x="88" y="-65"/>
    </contour>
  </outline>
</glyph>
<glyph name="grave" format="1">
  <advance width="477"/>
  <unicode hex="0060"/>
  <outline>
    <contour>
      <point x="317" y="510" type="curve" smooth="yes"/>
      <point x="324" y="503"/>
      <point x="322" y="494"/>
      <point x="319" y="491" type="curve" smooth="yes"/>
      <point x="314" y="485"/>
      <point x="302" y="489"/>
      <point x="284" y="501" type="curve"/>
      <point x="259" y="515"/>
      <point x="189" y="547"/>
      <point x="160" y="561" type="curve" smooth="yes"/>
      <point x="153" y="565"/>
      <point x="152" y="581"/>
      <point x="167" y="585" type="curve" smooth="yes"/>
      <point x="180" y="589"/>
      <point x="189" y="593"/>
      <point x="206" y="596" type="curve" smooth="yes"/>
      <point x="234" y="601"/>
      <point x="237" y="601"/>
      <point x="253" y="582" type="curve"/>
      <point x="268" y="561"/>
      <point x="288" y="540"/>
    </contour>
  </outline>
</glyph>
<glyph name="b" format="1">
  <advance width="500"/>
  <unicode hex="0062"/>
  <outline>
    <contour>
      <point x="62" y="-80" type="curve"/>
      <point x="55" y="-78"/>
      <point x="56" y="-71"/>
      <point x="56" y="-64" type="curve" smooth="yes"/>
      <point x="61" y="-19"/>
      <point x="67" y="36"/>
      <point x="67" y="70" type="curve" smooth="yes"/>
      <point x="67" y="210"/>
      <point x="80" y="469"/>
      <point x="80" y="586" type="curve" smooth="yes"/>
      <point x="80" y="609"/>
      <point x="80" y="627"/>
      <point x="72" y="636" type="curve" smooth="yes"/>
      <point x="62" y="646"/>
      <point x="31" y="648"/>
      <point x="8" y="646" type="curve" smooth="yes"/>
      <point x="-5" y="644"/>
      <point x="-13" y="646"/>
      <point x="-13" y="654" type="curve" smooth="yes"/>
      <point x="-13" y="663"/>
      <point x="-5" y="665"/>
      <point x="4" y="667" type="curve" smooth="yes"/>
      <point x="28" y="672"/>
      <point x="78" y="678"/>
      <point x="109" y="685" type="curve"/>
      <point x="122" y="689"/>
      <point x="136" y="691"/>
      <point x="141" y="691" type="curve" smooth="yes"/>
      <point x="146" y="691"/>
      <point x="152" y="684"/>
      <point x="151" y="663" type="curve" smooth="yes"/>
      <point x="146" y="577"/>
      <point x="144" y="411"/>
      <point x="141" y="321" type="curve" smooth="yes"/>
      <point x="141" y="308"/>
      <point x="147" y="293"/>
      <point x="160" y="312" type="curve" smooth="yes"/>
      <point x="194" y="366"/>
      <point x="260" y="430"/>
      <point x="321" y="430" type="curve" smooth="yes"/>
      <point x="423" y="430"/>
      <point x="467" y="370"/>
      <point x="467" y="255" type="curve" smooth="yes"/>
      <point x="467" y="122"/>
      <point x="380" y="-13"/>
      <point x="229" y="-13" type="curve" smooth="yes"/>
      <point x="199" y="-13"/>
      <point x="164" y="-3"/>
      <point x="149" y="4" type="curve" smooth="yes"/>
      <point x="128" y="15"/>
      <point x="120" y="19"/>
      <point x="113" y="6" type="curve" smooth="yes"/>
      <point x="104" y="-11"/>
      <point x="85" y="-52"/>
      <point x="77" y="-69" type="curve" smooth="yes"/>
      <point x="75" y="-75"/>
      <point x="70" y="-81"/>
    </contour>
    <contour>
      <point x="298" y="372" type="curve" smooth="yes"/>
      <point x="251" y="372"/>
      <point x="194" y="329"/>
      <point x="163" y="265" type="curve"/>
      <point x="135" y="204"/>
      <point x="135" y="160"/>
      <point x="137" y="98" type="curve" smooth="yes"/>
      <point x="138" y="71"/>
      <point x="140" y="69"/>
      <point x="151" y="58" type="curve" smooth="yes"/>
      <point x="168" y="40"/>
      <point x="208" y="21"/>
      <point x="242" y="21" type="curve" smooth="yes"/>
      <point x="338" y="21"/>
      <point x="400" y="113"/>
      <point x="400" y="253" type="curve" smooth="yes"/>
      <point x="400" y="316"/>
      <point x="367" y="372"/>
    </contour>
  </outline>
</glyph>
<glyph name="f" format="1">
  <advance width="364"/>
  <unicode hex="0066"/>
  <outline>
    <contour>
      <point x="196" y="71" type="curve" smooth="yes"/>
      <point x="199" y="34"/>
      <point x="274" y="25"/>
      <point x="322" y="20" type="curve" smooth="yes"/>
      <point x="327" y="19"/>
      <point x="332" y="15"/>
      <point x="332" y="10" type="curve" smooth="yes"/>
      <point x="332" y="4"/>
      <point x="327" y="-2"/>
      <point x="318" y="-1" type="curve" smooth="yes"/>
      <point x="225" y="4"/>
      <point x="129" y="7"/>
      <point x="40" y="-2" type="curve" smooth="yes"/>
      <point x="27" y="-3"/>
      <point x="20" y="2"/>
      <point x="20" y="10" type="curve" smooth="yes"/>
      <point x="20" y="17"/>
      <point x="24" y="24"/>
      <point x="38" y="25" type="curve" smooth="yes"/>
      <point x="77" y="29"/>
      <point x="123" y="36"/>
      <point x="123" y="88" type="curve" smooth="yes"/>
      <point x="124" y="148"/>
      <point x="127" y="269"/>
      <point x="126" y="350" type="curve" smooth="yes"/>
      <point x="126" y="374"/>
      <point x="122" y="376"/>
      <point x="111" y="376" type="curve" smooth="yes"/>
      <point x="93" y="376"/>
      <point x="71" y="375"/>
      <point x="66" y="375" type="curve" smooth="yes"/>
      <point x="54" y="375"/>
      <point x="57" y="387"/>
      <point x="61" y="396" type="curve" smooth="yes"/>
      <point x="66" y="406"/>
      <point x="73" y="412"/>
      <point x="79" y="414" type="curve" smooth="yes"/>
      <point x="90" y="418"/>
      <point x="101" y="418"/>
      <point x="112" y="418" type="curve" smooth="yes"/>
      <point x="125" y="418"/>
      <point x="128" y="420"/>
      <point x="130" y="433" type="curve" smooth="yes"/>
      <point x="152" y="625"/>
      <point x="266" y="695"/>
      <point x="312" y="695" type="curve" smooth="yes"/>
      <point x="369" y="695"/>
      <point x="378" y="651"/>
      <point x="378" y="616" type="curve" smooth="yes"/>
      <point x="378" y="591"/>
      <point x="363" y="559"/>
      <point x="346" y="542" type="curve" smooth="yes"/>
      <point x="339" y="535"/>
      <point x="329" y="531"/>
      <point x="325" y="534" type="curve" smooth="yes"/>
      <point x="319" y="538"/>
      <point x="319" y="541"/>
      <point x="323" y="550" type="curve" smooth="yes"/>
      <point x="343" y="590"/>
      <point x="329" y="628"/>
      <point x="295" y="628" type="curve" smooth="yes"/>
      <point x="240" y="628"/>
      <point x="191" y="577"/>
      <point x="191" y="429" type="curve" smooth="yes"/>
      <point x="191" y="420"/>
      <point x="195" y="419"/>
      <point x="206" y="419" type="curve" smooth="yes"/>
      <point x="248" y="419"/>
      <point x="300" y="427"/>
      <point x="352" y="425" type="curve" smooth="yes"/>
      <point x="359" y="425"/>
      <point x="362" y="415"/>
      <point x="360" y="408" type="curve" smooth="yes"/>
      <point x="357" y="394"/>
      <point x="351" y="387"/>
      <point x="337" y="374" type="curve" smooth="yes"/>
      <point x="331" y="368"/>
      <point x="320" y="367"/>
      <point x="314" y="367" type="curve" smooth="yes"/>
      <point x="296" y="367"/>
      <point x="232" y="375"/>
      <point x="210" y="375" type="curve" smooth="yes"/>
      <point x="194" y="375"/>
      <point x="191" y="369"/>
      <point x="191" y="353" type="curve" smooth="yes"/>
      <point x="191" y="268"/>
      <point x="191" y="147"/>
    </contour>
  </outline>
</glyph>
<glyph name="h" format="1">
  <advance width="616"/>
  <unicode hex="0068"/>
  <outline>
    <contour>
      <point x="43" y="668" type="curve" smooth="yes"/>
      <point x="65" y="670"/>
      <point x="137" y="684"/>
      <point x="157" y="689" type="curve" smooth="yes"/>
      <point x="191" y="698"/>
      <point x="193" y="686"/>
      <point x="193" y="653" type="curve" smooth="yes"/>
      <point x="189" y="473"/>
      <point x="184" y="460"/>
      <point x="184" y="309" type="curve" smooth="yes"/>
      <point x="184" y="295"/>
      <point x="189" y="290"/>
      <point x="204" y="313" type="curve" smooth="yes"/>
      <point x="223" y="344"/>
      <point x="307" y="433"/>
      <point x="380" y="432" type="curve"/>
      <point x="455" y="432"/>
      <point x="507" y="389"/>
      <point x="506" y="309" type="curve" smooth="yes"/>
      <point x="506" y="274"/>
      <point x="503" y="158"/>
      <point x="504" y="127" type="curve" smooth="yes"/>
      <point x="506" y="54"/>
      <point x="513" y="32"/>
      <point x="557" y="28" type="curve" smooth="yes"/>
      <point x="567" y="27"/>
      <point x="597" y="26"/>
      <point x="598" y="11" type="curve" smooth="yes"/>
      <point x="598" y="-1"/>
      <point x="593" y="-4"/>
      <point x="577" y="-3" type="curve" smooth="yes"/>
      <point x="557" y="-2"/>
      <point x="504" y="3"/>
      <point x="484" y="3" type="curve" smooth="yes"/>
      <point x="442" y="3"/>
      <point x="425" y="3"/>
      <point x="397" y="-2" type="curve" smooth="yes"/>
      <point x="391" y="-3"/>
      <point x="384" y="1"/>
      <point x="384" y="9" type="curve" smooth="yes"/>
      <point x="384" y="23"/>
      <point x="396" y="25"/>
      <point x="402" y="26" type="curve" smooth="yes"/>
      <point x="428" y="32"/>
      <point x="433" y="64"/>
      <point x="433" y="77" type="curve" smooth="yes"/>
      <point x="436" y="133"/>
      <point x="433" y="253"/>
      <point x="432" y="290" type="curve" smooth="yes"/>
      <point x="430" y="349"/>
      <point x="391" y="376"/>
      <point x="354" y="376" type="curve" smooth="yes"/>
      <point x="274" y="376"/>
      <point x="195" y="284"/>
      <point x="188" y="194" type="curve" smooth="yes"/>
      <point x="185" y="157"/>
      <point x="187" y="112"/>
      <point x="189" y="83" type="curve" smooth="yes"/>
      <point x="191" y="38"/>
      <point x="242" y="30"/>
      <point x="279" y="26" type="curve" smooth="yes"/>
      <point x="295" y="24"/>
      <point x="299" y="15"/>
      <point x="299" y="9" type="curve" smooth="yes"/>
      <point x="299" y="-2"/>
      <point x="289" y="-3"/>
      <point x="281" y="-3" type="curve" smooth="yes"/>
      <point x="215" y="4"/>
      <point x="113" y="3"/>
      <point x="41" y="-3" type="curve" smooth="yes"/>
      <point x="25" y="-4"/>
      <point x="19" y="1"/>
      <point x="19" y="9" type="curve" smooth="yes"/>
      <point x="19" y="14"/>
      <point x="28" y="21"/>
      <point x="36" y="22" type="curve" smooth="yes"/>
      <point x="94" y="31"/>
      <point x="112" y="36"/>
      <point x="116" y="97" type="curve" smooth="yes"/>
      <point x="120" y="153"/>
      <point x="123" y="510"/>
      <point x="123" y="582" type="curve" smooth="yes"/>
      <point x="123" y="636"/>
      <point x="115" y="652"/>
      <point x="58" y="644" type="curve" smooth="yes"/>
      <point x="45" y="642"/>
      <point x="29" y="643"/>
      <point x="28" y="652" type="curve" smooth="yes"/>
      <point x="26" y="663"/>
      <point x="33" y="668"/>
    </contour>
  </outline>
</glyph>
<glyph name="i" format="1">
  <advance width="304"/>
  <unicode hex="0069"/>
  <outline>
    <contour>
      <point x="33" y="390" type="curve" smooth="yes"/>
      <point x="62" y="397"/>
      <point x="111" y="412"/>
      <point x="147" y="420" type="curve" smooth="yes"/>
      <point x="170" y="425"/>
      <point x="192" y="428"/>
      <point x="192" y="403" type="curve" smooth="yes"/>
      <point x="191" y="338"/>
      <point x="184" y="189"/>
      <point x="186" y="117" type="curve"/>
      <point x="189" y="63"/>
      <point x="188" y="51"/>
      <point x="208" y="42" type="curve"/>
      <point x="221" y="35"/>
      <point x="253" y="28"/>
      <point x="270" y="24" type="curve"/>
      <point x="278" y="24"/>
      <point x="286" y="19"/>
      <point x="285" y="9" type="curve"/>
      <point x="282" y="-3"/>
      <point x="269" y="-2"/>
      <point x="250" y="0" type="curve" smooth="yes"/>
      <point x="195" y="3"/>
      <point x="117" y="8"/>
      <point x="40" y="-2" type="curve" smooth="yes"/>
      <point x="26" y="-3"/>
      <point x="19" y="-2"/>
      <point x="19" y="7" type="curve" smooth="yes"/>
      <point x="19" y="13"/>
      <point x="26" y="19"/>
      <point x="45" y="23" type="curve" smooth="yes"/>
      <point x="106" y="37"/>
      <point x="116" y="53"/>
      <point x="116" y="76" type="curve" smooth="yes"/>
      <point x="116" y="125"/>
      <point x="120" y="258"/>
      <point x="118" y="356" type="curve" smooth="yes"/>
      <point x="118" y="375"/>
      <point x="107" y="379"/>
      <point x="91" y="378" type="curve" smooth="yes"/>
      <point x="86" y="378"/>
      <point x="60" y="375"/>
      <point x="44" y="370" type="curve"/>
      <point x="33" y="368"/>
      <point x="24" y="370"/>
      <point x="23" y="376" type="curve" smooth="yes"/>
      <point x="22" y="383"/>
      <point x="26" y="388"/>
    </contour>
    <contour>
      <point x="176" y="656" type="curve" smooth="yes"/>
      <point x="203" y="656"/>
      <point x="214" y="643"/>
      <point x="215" y="625" type="curve" smooth="yes"/>
      <point x="215" y="610"/>
      <point x="212" y="596"/>
      <point x="194" y="581" type="curve" smooth="yes"/>
      <point x="184" y="572"/>
      <point x="168" y="561"/>
      <point x="157" y="561" type="curve" smooth="yes"/>
      <point x="138" y="561"/>
      <point x="131" y="587"/>
      <point x="131" y="610" type="curve"/>
      <point x="133" y="630"/>
      <point x="152" y="656"/>
    </contour>
  </outline>
</glyph>
<glyph name="k" format="1">
  <advance width="593"/>
  <unicode hex="006B"/>
  <outline>
    <contour>
      <point x="245" y="-3" type="curve" smooth="yes"/>
      <point x="179" y="2"/>
      <point x="106" y="4"/>
      <point x="43" y="-3" type="curve"/>
      <point x="24" y="-4"/>
      <point x="19" y="3"/>
      <point x="19" y="9" type="curve" smooth="yes"/>
      <point x="19" y="21"/>
      <point x="32" y="25"/>
      <point x="47" y="27" type="curve" smooth="yes"/>
      <point x="87" y="33"/>
      <point x="115" y="50"/>
      <point x="122" y="101" type="curve" smooth="yes"/>
      <point x="134" y="188"/>
      <point x="131" y="532"/>
      <point x="131" y="590" type="curve" smooth="yes"/>
      <point x="131" y="605"/>
      <point x="131" y="618"/>
      <point x="126" y="627" type="curve"/>
      <point x="117" y="636"/>
      <point x="104" y="646"/>
      <point x="78" y="641" type="curve" smooth="yes"/>
      <point x="65" y="639"/>
      <point x="61" y="639"/>
      <point x="49" y="639" type="curve" smooth="yes"/>
      <point x="43" y="639"/>
      <point x="37" y="641"/>
      <point x="36" y="649" type="curve" smooth="yes"/>
      <point x="35" y="654"/>
      <point x="40" y="660"/>
      <point x="45" y="662" type="curve" smooth="yes"/>
      <point x="81" y="672"/>
      <point x="136" y="683"/>
      <point x="162" y="692" type="curve"/>
      <point x="171" y="694"/>
      <point x="179" y="696"/>
      <point x="187" y="696" type="curve" smooth="yes"/>
      <point x="210" y="696"/>
      <point x="206" y="676"/>
      <point x="206" y="668" type="curve" smooth="yes"/>
      <point x="200" y="543"/>
      <point x="198" y="405"/>
      <point x="198" y="258" type="curve" smooth="yes"/>
      <point x="198" y="249"/>
      <point x="199" y="247"/>
      <point x="203" y="247" type="curve" smooth="yes"/>
      <point x="210" y="247"/>
      <point x="214" y="252"/>
      <point x="221" y="258" type="curve" smooth="yes"/>
      <point x="268" y="304"/>
      <point x="323" y="361"/>
      <point x="356" y="383" type="curve" smooth="yes"/>
      <point x="402" y="415"/>
      <point x="431" y="430"/>
      <point x="475" y="430" type="curve" smooth="yes"/>
      <point x="506" y="430"/>
      <point x="515" y="417"/>
      <point x="516" y="396" type="curve" smooth="yes"/>
      <point x="518" y="369"/>
      <point x="494" y="322"/>
      <point x="462" y="308" type="curve" smooth="yes"/>
      <point x="446" y="301"/>
      <point x="444" y="315"/>
      <point x="451" y="329" type="curve" smooth="yes"/>
      <point x="463" y="353"/>
      <point x="458" y="366"/>
      <point x="452" y="371" type="curve" smooth="yes"/>
      <point x="441" y="380"/>
      <point x="422" y="381"/>
      <point x="405" y="375" type="curve"/>
      <point x="372" y="361"/>
      <point x="326" y="322"/>
      <point x="304" y="295" type="curve" smooth="yes"/>
      <point x="295" y="284"/>
      <point x="295" y="282"/>
      <point x="301" y="269" type="curve" smooth="yes"/>
      <point x="334" y="205"/>
      <point x="396" y="114"/>
      <point x="458" y="66" type="curve" smooth="yes"/>
      <point x="468" y="57"/>
      <point x="495" y="40"/>
      <point x="515" y="40" type="curve" smooth="yes"/>
      <point x="524" y="40"/>
      <point x="546" y="46"/>
      <point x="557" y="50" type="curve" smooth="yes"/>
      <point x="568" y="53"/>
      <point x="575" y="55"/>
      <point x="578" y="46" type="curve" smooth="yes"/>
      <point x="581" y="38"/>
      <point x="577" y="34"/>
      <point x="569" y="28" type="curve" smooth="yes"/>
      <point x="554" y="17"/>
      <point x="492" y="-8"/>
      <point x="465" y="-8" type="curve" smooth="yes"/>
      <point x="434" y="-8"/>
      <point x="425" y="-2"/>
      <point x="396" y="23" type="curve" smooth="yes"/>
      <point x="349" y="64"/>
      <point x="266" y="177"/>
      <point x="250" y="223" type="curve" smooth="yes"/>
      <point x="246" y="235"/>
      <point x="238" y="237"/>
      <point x="227" y="231" type="curve" smooth="yes"/>
      <point x="202" y="217"/>
      <point x="201" y="209"/>
      <point x="199" y="198" type="curve"/>
      <point x="198" y="183"/>
      <point x="198" y="132"/>
      <point x="198" y="103" type="curve" smooth="yes"/>
      <point x="198" y="54"/>
      <point x="210" y="28"/>
      <point x="248" y="24" type="curve" smooth="yes"/>
      <point x="269" y="21"/>
      <point x="273" y="14"/>
      <point x="273" y="8" type="curve" smooth="yes"/>
      <point x="273" y="-3"/>
      <point x="263" y="-5"/>
    </contour>
  </outline>
</glyph>
<glyph name="m" format="1">
  <advance width="818"/>
  <unicode hex="006D"/>
  <outline>
    <contour>
      <point x="600" y="6" type="curve" smooth="yes"/>
      <point x="600" y="13"/>
      <point x="605" y="16"/>
      <point x="614" y="18" type="curve" smooth="yes"/>
      <point x="630" y="21"/>
      <point x="650" y="27"/>
      <point x="652" y="64" type="curve" smooth="yes"/>
      <point x="656" y="133"/>
      <point x="656" y="224"/>
      <point x="652" y="279" type="curve" smooth="yes"/>
      <point x="647" y="338"/>
      <point x="630" y="374"/>
      <point x="596" y="374" type="curve" smooth="yes"/>
      <point x="546" y="375"/>
      <point x="486" y="297"/>
      <point x="462" y="228" type="curve" smooth="yes"/>
      <point x="447" y="183"/>
      <point x="449" y="144"/>
      <point x="449" y="77" type="curve" smooth="yes"/>
      <point x="449" y="35"/>
      <point x="492" y="27"/>
      <point x="512" y="21" type="curve" smooth="yes"/>
      <point x="521" y="19"/>
      <point x="535" y="15"/>
      <point x="535" y="8" type="curve" smooth="yes"/>
      <point x="535" y="-1"/>
      <point x="524" y="-3"/>
      <point x="510" y="-3" type="curve" smooth="yes"/>
      <point x="485" y="-3"/>
      <point x="459" y="3"/>
      <point x="418" y="3" type="curve" smooth="yes"/>
      <point x="404" y="3"/>
      <point x="381" y="-2"/>
      <point x="354" y="-2" type="curve" smooth="yes"/>
      <point x="343" y="-2"/>
      <point x="339" y="2"/>
      <point x="338" y="8" type="curve"/>
      <point x="338" y="17"/>
      <point x="349" y="22"/>
      <point x="362" y="28" type="curve" smooth="yes"/>
      <point x="375" y="34"/>
      <point x="381" y="43"/>
      <point x="386" y="84" type="curve"/>
      <point x="390" y="127"/>
      <point x="390" y="189"/>
      <point x="385" y="281" type="curve" smooth="yes"/>
      <point x="383" y="311"/>
      <point x="377" y="374"/>
      <point x="332" y="374" type="curve" smooth="yes"/>
      <point x="290" y="374"/>
      <point x="233" y="318"/>
      <point x="199" y="228" type="curve" smooth="yes"/>
      <point x="184" y="188"/>
      <point x="188" y="130"/>
      <point x="188" y="81" type="curve" smooth="yes"/>
      <point x="188" y="35"/>
      <point x="214" y="28"/>
      <point x="261" y="22" type="curve" smooth="yes"/>
      <point x="274" y="20"/>
      <point x="282" y="13"/>
      <point x="281" y="5" type="curve" smooth="yes"/>
      <point x="280" y="-3"/>
      <point x="274" y="-5"/>
      <point x="257" y="-3" type="curve"/>
      <point x="236" y="-2"/>
      <point x="183" y="3"/>
      <point x="156" y="3" type="curve" smooth="yes"/>
      <point x="130" y="3"/>
      <point x="56" y="-3"/>
      <point x="43" y="-3" type="curve" smooth="yes"/>
      <point x="36" y="-3"/>
      <point x="21" y="-3"/>
      <point x="20" y="6" type="curve" smooth="yes"/>
      <point x="19" y="19"/>
      <point x="35" y="22"/>
      <point x="51" y="24" type="curve" smooth="yes"/>
      <point x="90" y="28"/>
      <point x="119" y="52"/>
      <point x="120" y="84" type="curve" smooth="yes"/>
      <point x="123" y="159"/>
      <point x="125" y="309"/>
      <point x="123" y="357" type="curve" smooth="yes"/>
      <point x="121" y="404"/>
      <point x="87" y="392"/>
      <point x="47" y="387" type="curve" smooth="yes"/>
      <point x="36" y="386"/>
      <point x="26" y="389"/>
      <point x="26" y="398" type="curve" smooth="yes"/>
      <point x="26" y="403"/>
      <point x="35" y="409"/>
      <point x="51" y="412" type="curve" smooth="yes"/>
      <point x="99" y="421"/>
      <point x="127" y="424"/>
      <point x="170" y="428" type="curve" smooth="yes"/>
      <point x="184" y="430"/>
      <point x="190" y="422"/>
      <point x="189" y="356" type="curve" smooth="yes"/>
      <point x="188" y="322"/>
      <point x="186" y="303"/>
      <point x="187" y="294" type="curve" smooth="yes"/>
      <point x="189" y="280"/>
      <point x="196" y="282"/>
      <point x="202" y="291" type="curve" smooth="yes"/>
      <point x="246" y="362"/>
      <point x="297" y="430"/>
      <point x="372" y="434" type="curve"/>
      <point x="434" y="434"/>
      <point x="449" y="353"/>
      <point x="449" y="304" type="curve" smooth="yes"/>
      <point x="449" y="288"/>
      <point x="460" y="285"/>
      <point x="470" y="301" type="curve" smooth="yes"/>
      <point x="504" y="359"/>
      <point x="563" y="434"/>
      <point x="633" y="434" type="curve" smooth="yes"/>
      <point x="703" y="434"/>
      <point x="720" y="341"/>
      <point x="720" y="286" type="curve" smooth="yes"/>
      <point x="720" y="262"/>
      <point x="719" y="105"/>
      <point x="720" y="75" type="curve" smooth="yes"/>
      <point x="720" y="49"/>
      <point x="744" y="30"/>
      <point x="776" y="24" type="curve"/>
      <point x="790" y="20"/>
      <point x="801" y="17"/>
      <point x="801" y="8" type="curve" smooth="yes"/>
      <point x="801" y="1"/>
      <point x="791" y="-3"/>
      <point x="777" y="-3" type="curve" smooth="yes"/>
      <point x="752" y="-3"/>
      <point x="734" y="3"/>
      <point x="690" y="3" type="curve" smooth="yes"/>
      <point x="666" y="3"/>
      <point x="644" y="-3"/>
      <point x="622" y="-3" type="curve" smooth="yes"/>
      <point x="603" y="-3"/>
      <point x="600" y="1"/>
    </contour>
  </outline>
</glyph>
<glyph name="n" format="1">
  <advance width="585"/>
  <unicode hex="006E"/>
  <outline>
    <contour>
      <point x="483" y="291" type="curve" smooth="yes"/>
      <point x="486" y="75" type="line" smooth="yes"/>
      <point x="486" y="49"/>
      <point x="510" y="30"/>
      <point x="542" y="24" type="curve"/>
      <point x="556" y="20"/>
      <point x="566" y="17"/>
      <point x="566" y="8" type="curve" smooth="yes"/>
      <point x="566" y="1"/>
      <point x="557" y="-3"/>
      <point x="543" y="-3" type="curve" smooth="yes"/>
      <point x="518" y="-3"/>
      <point x="495" y="2"/>
      <point x="451" y="2" type="curve" smooth="yes"/>
      <point x="427" y="2"/>
      <point x="404" y="-3"/>
      <point x="382" y="-3" type="curve" smooth="yes"/>
      <point x="367" y="-3"/>
      <point x="360" y="-5"/>
      <point x="360" y="6" type="curve" smooth="yes"/>
      <point x="360" y="13"/>
      <point x="365" y="16"/>
      <point x="375" y="18" type="curve" smooth="yes"/>
      <point x="391" y="21"/>
      <point x="410" y="27"/>
      <point x="412" y="64" type="curve" smooth="yes"/>
      <point x="416" y="138"/>
      <point x="416" y="215"/>
      <point x="413" y="290" type="curve"/>
      <point x="412" y="359"/>
      <point x="380" y="381"/>
      <point x="355" y="381" type="curve" smooth="yes"/>
      <point x="300" y="381"/>
      <point x="248" y="331"/>
      <point x="210" y="260" type="curve"/>
      <point x="196" y="236"/>
      <point x="188" y="201"/>
      <point x="186" y="142" type="curve" smooth="yes"/>
      <point x="185" y="122"/>
      <point x="187" y="105"/>
      <point x="187" y="81" type="curve" smooth="yes"/>
      <point x="187" y="25"/>
      <point x="222" y="39"/>
      <point x="260" y="22" type="curve"/>
      <point x="273" y="18"/>
      <point x="282" y="13"/>
      <point x="280" y="5" type="curve" smooth="yes"/>
      <point x="279" y="-3"/>
      <point x="274" y="-5"/>
      <point x="256" y="-3" type="curve"/>
      <point x="235" y="-2"/>
      <point x="182" y="3"/>
      <point x="155" y="3" type="curve" smooth="yes"/>
      <point x="130" y="3"/>
      <point x="55" y="-3"/>
      <point x="42" y="-3" type="curve" smooth="yes"/>
      <point x="35" y="-3"/>
      <point x="19" y="-2"/>
      <point x="19" y="7" type="curve" smooth="yes"/>
      <point x="19" y="21"/>
      <point x="35" y="24"/>
      <point x="50" y="24" type="curve" smooth="yes"/>
      <point x="83" y="24"/>
      <point x="117" y="51"/>
      <point x="120" y="84" type="curve"/>
      <point x="122" y="123"/>
      <point x="124" y="255"/>
      <point x="124" y="338" type="curve" smooth="yes"/>
      <point x="124" y="364"/>
      <point x="119" y="381"/>
      <point x="83" y="381" type="curve" smooth="yes"/>
      <point x="70" y="381"/>
      <point x="65" y="380"/>
      <point x="49" y="376" type="curve"/>
      <point x="40" y="375"/>
      <point x="32" y="377"/>
      <point x="31" y="383" type="curve" smooth="yes"/>
      <point x="29" y="393"/>
      <point x="34" y="396"/>
      <point x="47" y="399" type="curve" smooth="yes"/>
      <point x="72" y="403"/>
      <point x="117" y="412"/>
      <point x="138" y="418" type="curve" smooth="yes"/>
      <point x="152" y="423"/>
      <point x="162" y="426"/>
      <point x="173" y="426" type="curve" smooth="yes"/>
      <point x="188" y="426"/>
      <point x="196" y="419"/>
      <point x="196" y="411" type="curve" smooth="yes"/>
      <point x="195" y="364"/>
      <point x="190" y="315"/>
      <point x="192" y="302" type="curve" smooth="yes"/>
      <point x="194" y="292"/>
      <point x="200" y="287"/>
      <point x="207" y="299" type="curve" smooth="yes"/>
      <point x="247" y="365"/>
      <point x="311" y="432"/>
      <point x="390" y="432" type="curve" smooth="yes"/>
      <point x="463" y="432"/>
      <point x="483" y="361"/>
    </contour>
  </outline>
</glyph>
<glyph name="o" format="1">
  <advance width="500"/>
  <unicode hex="006F"/>
  <outline>
    <contour>
      <point x="227" y="-15" type="curve" smooth="yes"/>
      <point x="98" y="-15"/>
      <point x="28" y="70"/>
      <point x="28" y="199" type="curve" smooth="yes"/>
      <point x="28" y="297"/>
      <point x="112" y="437"/>
      <point x="276" y="437" type="curve" smooth="yes"/>
      <point x="394" y="437"/>
      <point x="467" y="349"/>
      <point x="467" y="252" type="curve"/>
      <point x="471" y="71"/>
      <point x="345" y="-15"/>
    </contour>
    <contour>
      <point x="258" y="400" type="curve" smooth="yes"/>
      <point x="157" y="400"/>
      <point x="97" y="311"/>
      <point x="96" y="217" type="curve"/>
      <point x="96" y="83"/>
      <point x="180" y="19"/>
      <point x="242" y="19" type="curve" smooth="yes"/>
      <point x="311" y="19"/>
      <point x="395" y="71"/>
      <point x="395" y="239" type="curve"/>
      <point x="390" y="320"/>
      <point x="341" y="400"/>
    </contour>
  </outline>
</glyph>
<glyph name="p" format="1">
  <advance width="537"/>
  <unicode hex="0070"/>
  <outline>
    <contour>
      <point x="190" y="3" type="curve" smooth="yes"/>
      <point x="171" y="8"/>
      <point x="163" y="8"/>
      <point x="162" y="-7" type="curve" smooth="yes"/>
      <point x="162" y="-16"/>
      <point x="161" y="-26"/>
      <point x="161" y="-37" type="curve" smooth="yes"/>
      <point x="160" y="-89"/>
      <point x="164" y="-133"/>
      <point x="168" y="-172" type="curve" smooth="yes"/>
      <point x="170" y="-186"/>
      <point x="178" y="-204"/>
      <point x="182" y="-220" type="curve" smooth="yes"/>
      <point x="185" y="-235"/>
      <point x="184" y="-247"/>
      <point x="171" y="-254" type="curve"/>
      <point x="151" y="-263"/>
      <point x="115" y="-271"/>
      <point x="101" y="-271" type="curve" smooth="yes"/>
      <point x="88" y="-271"/>
      <point x="83" y="-269"/>
      <point x="80" y="-261" type="curve" smooth="yes"/>
      <point x="69" y="-239"/>
      <point x="76" y="-191"/>
      <point x="79" y="-162" type="curve" smooth="yes"/>
      <point x="85" y="-116"/>
      <point x="90" y="-66"/>
      <point x="92" y="-17" type="curve" smooth="yes"/>
      <point x="94" y="77"/>
      <point x="93" y="210"/>
      <point x="93" y="326" type="curve" smooth="yes"/>
      <point x="93" y="374"/>
      <point x="82" y="388"/>
      <point x="17" y="384" type="curve" smooth="yes"/>
      <point x="5" y="383"/>
      <point x="2" y="387"/>
      <point x="1" y="391" type="curve" smooth="yes"/>
      <point x="0" y="397"/>
      <point x="3" y="403"/>
      <point x="18" y="406" type="curve" smooth="yes"/>
      <point x="61" y="415"/>
      <point x="100" y="418"/>
      <point x="141" y="428" type="curve"/>
      <point x="178" y="428"/>
      <point x="171" y="408"/>
      <point x="168" y="376" type="curve" smooth="yes"/>
      <point x="167" y="356"/>
      <point x="164" y="312"/>
      <point x="164" y="303" type="curve" smooth="yes"/>
      <point x="164" y="282"/>
      <point x="173" y="285"/>
      <point x="183" y="302" type="curve" smooth="yes"/>
      <point x="210" y="351"/>
      <point x="278" y="437"/>
      <point x="350" y="437" type="curve" smooth="yes"/>
      <point x="446" y="437"/>
      <point x="496" y="380"/>
      <point x="496" y="246" type="curve" smooth="yes"/>
      <point x="496" y="124"/>
      <point x="384" y="-7"/>
      <point x="272" y="-7" type="curve" smooth="yes"/>
      <point x="237" y="-7"/>
      <point x="217" y="-3"/>
    </contour>
    <contour>
      <point x="162" y="144" type="curve" smooth="yes"/>
      <point x="162" y="117"/>
      <point x="161" y="89"/>
      <point x="161" y="77" type="curve" smooth="yes"/>
      <point x="161" y="61"/>
      <point x="165" y="57"/>
      <point x="176" y="52" type="curve" smooth="yes"/>
      <point x="204" y="39"/>
      <point x="237" y="30"/>
      <point x="277" y="30" type="curve" smooth="yes"/>
      <point x="381" y="30"/>
      <point x="428" y="148"/>
      <point x="428" y="238" type="curve" smooth="yes"/>
      <point x="428" y="342"/>
      <point x="378" y="379"/>
      <point x="336" y="379" type="curve" smooth="yes"/>
      <point x="270" y="379"/>
      <point x="221" y="313"/>
      <point x="206" y="290" type="curve"/>
      <point x="186" y="262"/>
      <point x="181" y="245"/>
      <point x="175" y="231" type="curve"/>
      <point x="168" y="211"/>
      <point x="162" y="178"/>
    </contour>
  </outline>
</glyph>
<glyph name="q" format="1">
  <advance width="518"/>
  <unicode hex="0071"/>
  <outline>
    <contour>
      <point x="377" y="-271" type="curve" smooth="yes"/>
      <point x="367" y="-271"/>
      <point x="359" y="-269"/>
      <point x="356" y="-261" type="curve" smooth="yes"/>
      <point x="345" y="-239"/>
      <point x="352" y="-191"/>
      <point x="355" y="-162" type="curve" smooth="yes"/>
      <point x="363" y="-94"/>
      <point x="370" y="-11"/>
      <point x="367" y="67" type="curve" smooth="yes"/>
      <point x="366" y="81"/>
      <point x="364" y="89"/>
      <point x="362" y="89" type="curve"/>
      <point x="362" y="93"/>
      <point x="356" y="93"/>
      <point x="345" y="79" type="curve" smooth="yes"/>
      <point x="322" y="50"/>
      <point x="253" y="-13"/>
      <point x="194" y="-13" type="curve" smooth="yes"/>
      <point x="58" y="-13"/>
      <point x="30" y="93"/>
      <point x="30" y="140" type="curve"/>
      <point x="23" y="310"/>
      <point x="162" y="432"/>
      <point x="300" y="432" type="curve"/>
      <point x="340" y="431"/>
      <point x="362" y="421"/>
      <point x="375" y="415" type="curve" smooth="yes"/>
      <point x="395" y="407"/>
      <point x="392" y="411"/>
      <point x="401" y="424" type="curve" smooth="yes"/>
      <point x="412" y="441"/>
      <point x="422" y="463"/>
      <point x="433" y="490" type="curve" smooth="yes"/>
      <point x="439" y="504"/>
      <point x="444" y="512"/>
      <point x="451" y="512" type="curve" smooth="yes"/>
      <point x="460" y="512"/>
      <point x="459" y="498"/>
      <point x="459" y="492" type="curve" smooth="yes"/>
      <point x="459" y="482"/>
      <point x="451" y="449"/>
      <point x="449" y="436" type="curve" smooth="yes"/>
      <point x="431" y="250"/>
      <point x="438" y="-29"/>
      <point x="444" y="-172" type="curve" smooth="yes"/>
      <point x="445" y="-186"/>
      <point x="454" y="-204"/>
      <point x="458" y="-220" type="curve" smooth="yes"/>
      <point x="461" y="-235"/>
      <point x="460" y="-247"/>
      <point x="447" y="-254" type="curve"/>
      <point x="427" y="-263"/>
      <point x="391" y="-271"/>
    </contour>
    <contour>
      <point x="216" y="36" type="curve" smooth="yes"/>
      <point x="274" y="36"/>
      <point x="338" y="99"/>
      <point x="356" y="152" type="curve"/>
      <point x="363" y="165"/>
      <point x="370" y="221"/>
      <point x="370" y="243" type="curve" smooth="yes"/>
      <point x="370" y="275"/>
      <point x="374" y="316"/>
      <point x="370" y="349" type="curve"/>
      <point x="364" y="384"/>
      <point x="308" y="395"/>
      <point x="275" y="395" type="curve" smooth="yes"/>
      <point x="189" y="393"/>
      <point x="104" y="302"/>
      <point x="104" y="166" type="curve" smooth="yes"/>
      <point x="104" y="77"/>
      <point x="163" y="36"/>
    </contour>
  </outline>
</glyph>
<glyph name="u" format="1">
  <advance width="569"/>
  <unicode hex="0075"/>
  <outline>
    <contour>
      <point x="322" y="405" type="curve"/>
      <point x="359" y="412"/>
      <point x="418" y="430"/>
      <point x="443" y="430" type="curve" smooth="yes"/>
      <point x="470" y="430"/>
      <point x="466" y="424"/>
      <point x="466" y="402" type="curve" smooth="yes"/>
      <point x="466" y="313"/>
      <point x="455" y="200"/>
      <point x="457" y="106" type="curve" smooth="yes"/>
      <point x="458" y="49"/>
      <point x="471" y="35"/>
      <point x="508" y="40" type="curve"/>
      <point x="519" y="43"/>
      <point x="548" y="51"/>
      <point x="550" y="36" type="curve" smooth="yes"/>
      <point x="551" y="30"/>
      <point x="545" y="23"/>
      <point x="535" y="19" type="curve"/>
      <point x="491" y="6"/>
      <point x="439" y="-10"/>
      <point x="416" y="-10" type="curve" smooth="yes"/>
      <point x="388" y="-10"/>
      <point x="387" y="3"/>
      <point x="386" y="25" type="curve"/>
      <point x="383" y="55"/>
      <point x="385" y="79"/>
      <point x="385" y="97" type="curve" smooth="yes"/>
      <point x="385" y="113"/>
      <point x="372" y="106"/>
      <point x="365" y="96" type="curve" smooth="yes"/>
      <point x="335" y="51"/>
      <point x="290" y="-13"/>
      <point x="200" y="-13" type="curve" smooth="yes"/>
      <point x="119" y="-13"/>
      <point x="85" y="38"/>
      <point x="85" y="123" type="curve" smooth="yes"/>
      <point x="85" y="213"/>
      <point x="92" y="255"/>
      <point x="88" y="354" type="curve" smooth="yes"/>
      <point x="87" y="374"/>
      <point x="61" y="396"/>
      <point x="22" y="389" type="curve" smooth="yes"/>
      <point x="15" y="387"/>
      <point x="-8" y="383"/>
      <point x="-8" y="395" type="curve"/>
      <point x="-9" y="402"/>
      <point x="-2" y="407"/>
      <point x="7" y="407" type="curve"/>
      <point x="34" y="411"/>
      <point x="122" y="430"/>
      <point x="140" y="430" type="curve" smooth="yes"/>
      <point x="152" y="430"/>
      <point x="162" y="431"/>
      <point x="162" y="409" type="curve"/>
      <point x="163" y="390"/>
      <point x="157" y="189"/>
      <point x="157" y="146" type="curve" smooth="yes"/>
      <point x="157" y="86"/>
      <point x="176" y="39"/>
      <point x="228" y="39" type="curve" smooth="yes"/>
      <point x="278" y="39"/>
      <point x="337" y="87"/>
      <point x="364" y="146" type="curve" smooth="yes"/>
      <point x="379" y="177"/>
      <point x="390" y="208"/>
      <point x="391" y="256" type="curve" smooth="yes"/>
      <point x="392" y="279"/>
      <point x="394" y="330"/>
      <point x="391" y="359" type="curve"/>
      <point x="389" y="394"/>
      <point x="357" y="389"/>
      <point x="332" y="386" type="curve" smooth="yes"/>
      <point x="320" y="385"/>
      <point x="311" y="386"/>
      <point x="309" y="390" type="curve" smooth="yes"/>
      <point x="306" y="396"/>
      <point x="312" y="402"/>
    </contour>
  </outline>
</glyph>
<glyph name="v" format="1">
  <advance width="499"/>
  <unicode hex="0076"/>
  <outline>
    <contour>
      <point x="207" y="-8" type="curve" smooth="yes"/>
      <point x="191" y="-8"/>
      <point x="187" y="34"/>
      <point x="179" y="58" type="curve" smooth="yes"/>
      <point x="152" y="146"/>
      <point x="124" y="227"/>
      <point x="86" y="328" type="curve" smooth="yes"/>
      <point x="68" y="378"/>
      <point x="46" y="383"/>
      <point x="2" y="398" type="curve" smooth="yes"/>
      <point x="-11" y="402"/>
      <point x="-17" y="407"/>
      <point x="-16" y="413" type="curve" smooth="yes"/>
      <point x="-15" y="422"/>
      <point x="-6" y="423"/>
      <point x="8" y="423" type="curve" smooth="yes"/>
      <point x="27" y="422"/>
      <point x="67" y="418"/>
      <point x="102" y="418" type="curve" smooth="yes"/>
      <point x="130" y="418"/>
      <point x="154" y="422"/>
      <point x="179" y="422" type="curve" smooth="yes"/>
      <point x="198" y="422"/>
      <point x="202" y="422"/>
      <point x="203" y="413" type="curve" smooth="yes"/>
      <point x="203" y="407"/>
      <point x="197" y="404"/>
      <point x="183" y="398" type="curve" smooth="yes"/>
      <point x="153" y="386"/>
      <point x="157" y="343"/>
      <point x="162" y="325" type="curve" smooth="yes"/>
      <point x="167" y="304"/>
      <point x="233" y="115"/>
      <point x="248" y="81" type="curve" smooth="yes"/>
      <point x="253" y="72"/>
      <point x="264" y="73"/>
      <point x="269" y="81" type="curve" smooth="yes"/>
      <point x="321" y="173"/>
      <point x="367" y="277"/>
      <point x="380" y="353" type="curve"/>
      <point x="385" y="375"/>
      <point x="366" y="393"/>
      <point x="342" y="401" type="curve" smooth="yes"/>
      <point x="326" y="406"/>
      <point x="318" y="410"/>
      <point x="319" y="415" type="curve" smooth="yes"/>
      <point x="320" y="423"/>
      <point x="327" y="425"/>
      <point x="341" y="423" type="curve" smooth="yes"/>
      <point x="367" y="418"/>
      <point x="386" y="418"/>
      <point x="418" y="418" type="curve" smooth="yes"/>
      <point x="440" y="418"/>
      <point x="462" y="422"/>
      <point x="468" y="423" type="curve" smooth="yes"/>
      <point x="477" y="424"/>
      <point x="487" y="422"/>
      <point x="487" y="413" type="curve" smooth="yes"/>
      <point x="487" y="403"/>
      <point x="481" y="399"/>
      <point x="471" y="391" type="curve" smooth="yes"/>
      <point x="451" y="375"/>
      <point x="438" y="351"/>
      <point x="429" y="334" type="curve" smooth="yes"/>
      <point x="404" y="283"/>
      <point x="325" y="133"/>
      <point x="295" y="62" type="curve" smooth="yes"/>
      <point x="291" y="55"/>
      <point x="289" y="49"/>
      <point x="290" y="35" type="curve" smooth="yes"/>
      <point x="293" y="10"/>
      <point x="229" y="-8"/>
    </contour>
  </outline>
</glyph>
<glyph name="x" format="1">
  <advance width="543"/>
  <unicode hex="0078"/>
  <outline>
    <contour>
      <point x="32" y="409" type="curve" smooth="yes"/>
      <point x="32" y="422"/>
      <point x="45" y="423"/>
      <point x="66" y="422" type="curve" smooth="yes"/>
      <point x="113" y="418"/>
      <point x="154" y="418"/>
      <point x="206" y="424" type="curve" smooth="yes"/>
      <point x="215" y="425"/>
      <point x="228" y="423"/>
      <point x="228" y="414" type="curve" smooth="yes"/>
      <point x="228" y="407"/>
      <point x="226" y="405"/>
      <point x="213" y="392" type="curve" smooth="yes"/>
      <point x="205" y="385"/>
      <point x="208" y="372"/>
      <point x="220" y="354" type="curve" smooth="yes"/>
      <point x="239" y="327"/>
      <point x="268" y="285"/>
      <point x="280" y="270" type="curve" smooth="yes"/>
      <point x="286" y="263"/>
      <point x="293" y="264"/>
      <point x="299" y="269" type="curve" smooth="yes"/>
      <point x="319" y="286"/>
      <point x="365" y="332"/>
      <point x="374" y="353" type="curve"/>
      <point x="383" y="370"/>
      <point x="387" y="391"/>
      <point x="369" y="398" type="curve" smooth="yes"/>
      <point x="359" y="402"/>
      <point x="349" y="406"/>
      <point x="349" y="414" type="curve" smooth="yes"/>
      <point x="349" y="420"/>
      <point x="356" y="423"/>
      <point x="371" y="423" type="curve"/>
      <point x="408" y="418"/>
      <point x="438" y="419"/>
      <point x="474" y="422" type="curve" smooth="yes"/>
      <point x="484" y="423"/>
      <point x="489" y="418"/>
      <point x="489" y="412" type="curve" smooth="yes"/>
      <point x="489" y="407"/>
      <point x="486" y="402"/>
      <point x="476" y="396" type="curve" smooth="yes"/>
      <point x="467" y="391"/>
      <point x="446" y="375"/>
      <point x="442" y="370" type="curve" smooth="yes"/>
      <point x="319" y="247" type="line"/>
      <point x="311" y="237"/>
      <point x="311" y="235"/>
      <point x="316" y="226" type="curve" smooth="yes"/>
      <point x="355" y="167"/>
      <point x="384" y="132"/>
      <point x="433" y="76" type="curve"/>
      <point x="449" y="56"/>
      <point x="473" y="34"/>
      <point x="496" y="27" type="curve" smooth="yes"/>
      <point x="519" y="19"/>
      <point x="524" y="19"/>
      <point x="524" y="8" type="curve" smooth="yes"/>
      <point x="524" y="-1"/>
      <point x="519" y="-5"/>
      <point x="498" y="-3" type="curve" smooth="yes"/>
      <point x="456" y="1"/>
      <point x="416" y="4"/>
      <point x="359" y="-3" type="curve" smooth="yes"/>
      <point x="338" y="-6"/>
      <point x="334" y="0"/>
      <point x="334" y="8" type="curve" smooth="yes"/>
      <point x="334" y="12"/>
      <point x="338" y="19"/>
      <point x="347" y="28" type="curve" smooth="yes"/>
      <point x="354" y="36"/>
      <point x="348" y="54"/>
      <point x="342" y="66" type="curve" smooth="yes"/>
      <point x="332" y="83"/>
      <point x="282" y="155"/>
      <point x="264" y="175" type="curve" smooth="yes"/>
      <point x="259" y="181"/>
      <point x="248" y="180"/>
      <point x="242" y="176" type="curve"/>
      <point x="221" y="157"/>
      <point x="190" y="117"/>
      <point x="178" y="98" type="curve"/>
      <point x="168" y="80"/>
      <point x="159" y="64"/>
      <point x="159" y="52" type="curve"/>
      <point x="160" y="41"/>
      <point x="177" y="33"/>
      <point x="195" y="25" type="curve" smooth="yes"/>
      <point x="199" y="24"/>
      <point x="224" y="16"/>
      <point x="224" y="8" type="curve" smooth="yes"/>
      <point x="224" y="0"/>
      <point x="210" y="-3"/>
      <point x="197" y="-1" type="curve" smooth="yes"/>
      <point x="162" y="3"/>
      <point x="83" y="2"/>
      <point x="37" y="-3" type="curve" smooth="yes"/>
      <point x="28" y="-3"/>
      <point x="20" y="-2"/>
      <point x="20" y="8" type="curve" smooth="yes"/>
      <point x="20" y="22"/>
      <point x="31" y="27"/>
      <point x="43" y="30" type="curve" smooth="yes"/>
      <point x="72" y="38"/>
      <point x="93" y="64"/>
      <point x="125" y="94" type="curve" smooth="yes"/>
      <point x="142" y="110"/>
      <point x="206" y="183"/>
      <point x="221" y="203" type="curve" smooth="yes"/>
      <point x="226" y="211"/>
      <point x="226" y="224"/>
      <point x="221" y="232" type="curve" smooth="yes"/>
      <point x="194" y="267"/>
      <point x="157" y="331"/>
      <point x="116" y="365" type="curve"/>
      <point x="104" y="378"/>
      <point x="69" y="385"/>
      <point x="50" y="392" type="curve"/>
      <point x="36" y="396"/>
      <point x="32" y="402"/>
    </contour>
  </outline>
</glyph>
<glyph name="z" format="1">
  <advance width="475"/>
  <unicode hex="007A"/>
  <outline>
    <contour>
      <point x="112" y="450" type="curve" smooth="yes"/>
      <point x="120" y="450"/>
      <point x="122" y="446"/>
      <point x="125" y="433" type="curve" smooth="yes"/>
      <point x="129" y="418"/>
      <point x="145" y="412"/>
      <point x="163" y="411" type="curve" smooth="yes"/>
      <point x="223" y="407"/>
      <point x="349" y="425"/>
      <point x="401" y="425" type="curve" smooth="yes"/>
      <point x="409" y="425"/>
      <point x="412" y="421"/>
      <point x="411" y="411" type="curve"/>
      <point x="408" y="398"/>
      <point x="397" y="373"/>
      <point x="391" y="362" type="curve" smooth="yes"/>
      <point x="366" y="322"/>
      <point x="195" y="163"/>
      <point x="144" y="99" type="curve" smooth="yes"/>
      <point x="126" y="77"/>
      <point x="120" y="72"/>
      <point x="150" y="66" type="curve"/>
      <point x="192" y="60"/>
      <point x="285" y="61"/>
      <point x="314" y="64" type="curve" smooth="yes"/>
      <point x="369" y="68"/>
      <point x="397" y="78"/>
      <point x="420" y="125" type="curve" smooth="yes"/>
      <point x="429" y="145"/>
      <point x="439" y="165"/>
      <point x="448" y="164" type="curve" smooth="yes"/>
      <point x="456" y="163"/>
      <point x="456" y="150"/>
      <point x="456" y="134" type="curve" smooth="yes"/>
      <point x="456" y="91"/>
      <point x="426" y="31"/>
      <point x="394" y="7" type="curve"/>
      <point x="385" y="-3"/>
      <point x="374" y="-3"/>
      <point x="345" y="-1" type="curve" smooth="yes"/>
      <point x="279" y="4"/>
      <point x="125" y="-3"/>
      <point x="48" y="-3" type="curve" smooth="yes"/>
      <point x="40" y="-3"/>
      <point x="34" y="1"/>
      <point x="34" y="8" type="curve" smooth="yes"/>
      <point x="34" y="31"/>
      <point x="50" y="60"/>
      <point x="62" y="71" type="curve" smooth="yes"/>
      <point x="132" y="138"/>
      <point x="254" y="263"/>
      <point x="322" y="339" type="curve" smooth="yes"/>
      <point x="328" y="346"/>
      <point x="321" y="355"/>
      <point x="301" y="355" type="curve" smooth="yes"/>
      <point x="249" y="355"/>
      <point x="194" y="354"/>
      <point x="143" y="346" type="curve" smooth="yes"/>
      <point x="121" y="343"/>
      <point x="66" y="341"/>
      <point x="72" y="370" type="curve" smooth="yes"/>
      <point x="77" y="396"/>
      <point x="82" y="407"/>
      <point x="94" y="431" type="curve"/>
      <point x="102" y="444"/>
      <point x="105" y="450"/>
    </contour>
  </outline>
</glyph>
<glyph name="braceleft" format="1">
  <advance width="277"/>
  <unicode hex="007B"/>
  <outline>
    <contour>
      <point x="195" y="631" type="curve" smooth="yes"/>
      <point x="218" y="631"/>
      <point x="220" y="627"/>
      <point x="220" y="620" type="curve" smooth="yes"/>
      <point x="220" y="614"/>
      <point x="215" y="607"/>
      <point x="191" y="604" type="curve" smooth="yes"/>
      <point x="157" y="599"/>
      <point x="143" y="573"/>
      <point x="146" y="522" type="curve"/>
      <point x="147" y="476"/>
      <point x="196" y="418"/>
      <point x="195" y="355" type="curve" smooth="yes"/>
      <point x="195" y="324"/>
      <point x="157" y="313"/>
      <point x="157" y="300" type="curve" smooth="yes"/>
      <point x="157" y="286"/>
      <point x="194" y="288"/>
      <point x="194" y="249" type="curve" smooth="yes"/>
      <point x="194" y="202"/>
      <point x="143" y="134"/>
      <point x="143" y="83" type="curve" smooth="yes"/>
      <point x="143" y="10"/>
      <point x="174" y="-2"/>
      <point x="193" y="-4" type="curve"/>
      <point x="208" y="-8"/>
      <point x="220" y="-9"/>
      <point x="220" y="-20" type="curve" smooth="yes"/>
      <point x="220" y="-31"/>
      <point x="210" y="-34"/>
      <point x="182" y="-34" type="curve" smooth="yes"/>
      <point x="113" y="-34"/>
      <point x="67" y="2"/>
      <point x="67" y="76" type="curve" smooth="yes"/>
      <point x="67" y="143"/>
      <point x="157" y="191"/>
      <point x="157" y="258" type="curve" smooth="yes"/>
      <point x="157" y="278"/>
      <point x="120" y="285"/>
      <point x="93" y="285" type="curve" smooth="yes"/>
      <point x="79" y="285"/>
      <point x="61" y="282"/>
      <point x="48" y="282" type="curve" smooth="yes"/>
      <point x="36" y="282"/>
      <point x="32" y="289"/>
      <point x="35" y="300" type="curve" smooth="yes"/>
      <point x="37" y="311"/>
      <point x="44" y="320"/>
      <point x="56" y="320" type="curve" smooth="yes"/>
      <point x="67" y="320"/>
      <point x="80" y="311"/>
      <point x="99" y="311" type="curve" smooth="yes"/>
      <point x="119" y="311"/>
      <point x="167" y="316"/>
      <point x="167" y="357" type="curve" smooth="yes"/>
      <point x="167" y="407"/>
      <point x="66" y="464"/>
      <point x="66" y="536" type="curve" smooth="yes"/>
      <point x="66" y="595"/>
      <point x="146" y="631"/>
    </contour>
  </outline>
</glyph>
<glyph name="bar" format="1">
  <advance width="302"/>
  <unicode hex="007C"/>
  <outline>
    <contour>
      <point x="127" y="-25" type="curve" smooth="yes"/>
      <point x="127" y="20"/>
      <point x="126" y="480"/>
      <point x="127" y="527" type="curve" smooth="yes"/>
      <point x="127" y="540"/>
      <point x="127" y="553"/>
      <point x="134" y="564" type="curve"/>
      <point x="142" y="580"/>
      <point x="157" y="592"/>
      <point x="164" y="592" type="curve" smooth="yes"/>
      <point x="183" y="592"/>
      <point x="176" y="572"/>
      <point x="173" y="547" type="curve" smooth="yes"/>
      <point x="165" y="452"/>
      <point x="163" y="148"/>
      <point x="162" y="-8" type="curve" smooth="yes"/>
      <point x="162" y="-29"/>
      <point x="159" y="-42"/>
      <point x="145" y="-49" type="curve" smooth="yes"/>
      <point x="132" y="-55"/>
      <point x="127" y="-46"/>
    </contour>
  </outline>
</glyph>
<glyph name="braceright" format="1">
  <advance width="277"/>
  <unicode hex="007D"/>
  <outline>
    <contour>
      <point x="83" y="-34" type="curve" smooth="yes"/>
      <point x="61" y="-34"/>
      <point x="59" y="-29"/>
      <point x="59" y="-23" type="curve" smooth="yes"/>
      <point x="59" y="-16"/>
      <point x="64" y="-9"/>
      <point x="88" y="-7" type="curve"/>
      <point x="121" y="-2"/>
      <point x="136" y="26"/>
      <point x="133" y="77" type="curve" smooth="yes"/>
      <point x="131" y="124"/>
      <point x="82" y="180"/>
      <point x="83" y="242" type="curve" smooth="yes"/>
      <point x="83" y="274"/>
      <point x="121" y="285"/>
      <point x="121" y="298" type="curve" smooth="yes"/>
      <point x="121" y="311"/>
      <point x="85" y="310"/>
      <point x="85" y="348" type="curve" smooth="yes"/>
      <point x="85" y="396"/>
      <point x="134" y="464"/>
      <point x="134" y="514" type="curve" smooth="yes"/>
      <point x="134" y="588"/>
      <point x="104" y="599"/>
      <point x="86" y="602" type="curve" smooth="yes"/>
      <point x="71" y="605"/>
      <point x="59" y="607"/>
      <point x="59" y="618" type="curve" smooth="yes"/>
      <point x="59" y="629"/>
      <point x="69" y="631"/>
      <point x="97" y="631" type="curve" smooth="yes"/>
      <point x="166" y="631"/>
      <point x="211" y="596"/>
      <point x="211" y="522" type="curve" smooth="yes"/>
      <point x="211" y="455"/>
      <point x="121" y="407"/>
      <point x="121" y="340" type="curve" smooth="yes"/>
      <point x="121" y="320"/>
      <point x="159" y="313"/>
      <point x="185" y="313" type="curve" smooth="yes"/>
      <point x="199" y="313"/>
      <point x="218" y="320"/>
      <point x="230" y="320" type="curve" smooth="yes"/>
      <point x="242" y="320"/>
      <point x="247" y="312"/>
      <point x="244" y="301" type="curve" smooth="yes"/>
      <point x="241" y="290"/>
      <point x="235" y="281"/>
      <point x="223" y="281" type="curve" smooth="yes"/>
      <point x="211" y="281"/>
      <point x="199" y="287"/>
      <point x="179" y="287" type="curve" smooth="yes"/>
      <point x="160" y="287"/>
      <point x="112" y="282"/>
      <point x="112" y="241" type="curve" smooth="yes"/>
      <point x="112" y="191"/>
      <point x="212" y="134"/>
      <point x="212" y="62" type="curve" smooth="yes"/>
      <point x="212" y="3"/>
      <point x="132" y="-34"/>
    </contour>
  </outline>
</glyph>
<glyph name="asciitilde" format="1">
  <advance width="435"/>
  <unicode hex="007E"/>
  <outline>
    <contour>
      <point x="36" y="226" type="curve" smooth="yes"/>
      <point x="30" y="230"/>
      <point x="39" y="240"/>
      <point x="48" y="250" type="curve" smooth="yes"/>
      <point x="88" y="290"/>
      <point x="122" y="309"/>
      <point x="147" y="309" type="curve" smooth="yes"/>
      <point x="173" y="309"/>
      <point x="203" y="298"/>
      <point x="226" y="290" type="curve" smooth="yes"/>
      <point x="255" y="280"/>
      <point x="286" y="276"/>
      <point x="301" y="276" type="curve" smooth="yes"/>
      <point x="327" y="276"/>
      <point x="351" y="285"/>
      <point x="366" y="298" type="curve" smooth="yes"/>
      <point x="379" y="309"/>
      <point x="385" y="320"/>
      <point x="396" y="316" type="curve" smooth="yes"/>
      <point x="402" y="314"/>
      <point x="406" y="306"/>
      <point x="396" y="290" type="curve" smooth="yes"/>
      <point x="370" y="250"/>
      <point x="322" y="222"/>
      <point x="287" y="222" type="curve" smooth="yes"/>
      <point x="269" y="222"/>
      <point x="237" y="225"/>
      <point x="206" y="235" type="curve" smooth="yes"/>
      <point x="177" y="244"/>
      <point x="151" y="253"/>
      <point x="136" y="253" type="curve" smooth="yes"/>
      <point x="107" y="253"/>
      <point x="90" y="246"/>
      <point x="67" y="231" type="curve" smooth="yes"/>
      <point x="58" y="225"/>
      <point x="47" y="219"/>
    </contour>
  </outline>
</glyph>
<glyph name="exclamdown" format="1">
  <advance width="229"/>
  <unicode hex="00A1"/>
  <outline>
    <contour>
      <point x="166" y="-133" type="curve" smooth="yes"/>
      <point x="166" y="-157"/>
      <point x="158" y="-162"/>
      <point x="143" y="-167" type="curve" smooth="yes"/>
      <point x="115" y="-175"/>
      <point x="106" y="-177"/>
      <point x="86" y="-177" type="curve" smooth="yes"/>
      <point x="69" y="-177"/>
      <point x="61" y="-179"/>
      <point x="61" y="-157" type="curve" smooth="yes"/>
      <point x="61" y="-133"/>
      <point x="87" y="-19"/>
      <point x="88" y="-3" type="curve"/>
      <point x="97" y="61"/>
      <point x="102" y="175"/>
      <point x="104" y="221" type="curve"/>
      <point x="106" y="241"/>
      <point x="105" y="251"/>
      <point x="120" y="251" type="curve" smooth="yes"/>
      <point x="131" y="251"/>
      <point x="130" y="242"/>
      <point x="131" y="220" type="curve"/>
      <point x="134" y="189"/>
      <point x="139" y="70"/>
      <point x="146" y="4" type="curve" smooth="yes"/>
      <point x="148" y="-14"/>
      <point x="166" y="-119"/>
    </contour>
    <contour>
      <point x="115" y="344" type="curve" smooth="yes"/>
      <point x="90" y="344"/>
      <point x="66" y="357"/>
      <point x="66" y="379" type="curve" smooth="yes"/>
      <point x="66" y="414"/>
      <point x="98" y="429"/>
      <point x="125" y="429" type="curve" smooth="yes"/>
      <point x="166" y="429"/>
      <point x="174" y="407"/>
      <point x="174" y="388" type="curve" smooth="yes"/>
      <point x="174" y="359"/>
      <point x="136" y="344"/>
    </contour>
  </outline>
</glyph>
<glyph name="cent" format="1">
  <advance width="423"/>
  <unicode hex="00A2"/>
  <outline>
    <contour>
      <point x="35" y="193" type="curve"/>
      <point x="39" y="309"/>
      <point x="116" y="377"/>
      <point x="188" y="407" type="curve"/>
      <point x="215" y="417" type="line" smooth="yes"/>
      <point x="221" y="420"/>
      <point x="224" y="426"/>
      <point x="224" y="434" type="curve" smooth="yes"/>
      <point x="225" y="449"/>
      <point x="225" y="483"/>
      <point x="226" y="493" type="curve" smooth="yes"/>
      <point x="227" y="501"/>
      <point x="228" y="503"/>
      <point x="237" y="507" type="curve" smooth="yes"/>
      <point x="243" y="509"/>
      <point x="249" y="511"/>
      <point x="254" y="511" type="curve" smooth="yes"/>
      <point x="261" y="511"/>
      <point x="262" y="507"/>
      <point x="262" y="497" type="curve" smooth="yes"/>
      <point x="263" y="483"/>
      <point x="263" y="450"/>
      <point x="263" y="438" type="curve" smooth="yes"/>
      <point x="263" y="428"/>
      <point x="269" y="425"/>
      <point x="274" y="425" type="curve" smooth="yes"/>
      <point x="311" y="425"/>
      <point x="367" y="412"/>
      <point x="375" y="375" type="curve"/>
      <point x="381" y="339"/>
      <point x="354" y="302"/>
      <point x="320" y="289" type="curve" smooth="yes"/>
      <point x="311" y="285"/>
      <point x="306" y="285"/>
      <point x="301" y="289" type="curve"/>
      <point x="298" y="295"/>
      <point x="298" y="297"/>
      <point x="306" y="306" type="curve"/>
      <point x="314" y="312"/>
      <point x="322" y="330"/>
      <point x="322" y="339" type="curve" smooth="yes"/>
      <point x="322" y="369"/>
      <point x="298" y="389"/>
      <point x="247" y="389" type="curve" smooth="yes"/>
      <point x="184" y="389"/>
      <point x="101" y="319"/>
      <point x="101" y="200" type="curve" smooth="yes"/>
      <point x="101" y="125"/>
      <point x="149" y="46"/>
      <point x="242" y="46" type="curve" smooth="yes"/>
      <point x="265" y="46"/>
      <point x="295" y="48"/>
      <point x="309" y="53" type="curve" smooth="yes"/>
      <point x="331" y="61"/>
      <point x="359" y="82"/>
      <point x="370" y="98" type="curve" smooth="yes"/>
      <point x="374" y="103"/>
      <point x="378" y="107"/>
      <point x="382" y="107" type="curve" smooth="yes"/>
      <point x="389" y="106"/>
      <point x="390" y="99"/>
      <point x="390" y="90" type="curve" smooth="yes"/>
      <point x="390" y="77"/>
      <point x="360" y="35"/>
      <point x="333" y="17" type="curve" smooth="yes"/>
      <point x="318" y="7"/>
      <point x="290" y="3"/>
      <point x="266" y="0" type="curve" smooth="yes"/>
      <point x="257" y="-1"/>
      <point x="252" y="-9"/>
      <point x="252" y="-19" type="curve" smooth="yes"/>
      <point x="251" y="-34"/>
      <point x="251" y="-65"/>
      <point x="249" y="-75" type="curve" smooth="yes"/>
      <point x="248" y="-82"/>
      <point x="247" y="-84"/>
      <point x="238" y="-88" type="curve" smooth="yes"/>
      <point x="232" y="-91"/>
      <point x="226" y="-93"/>
      <point x="221" y="-93" type="curve" smooth="yes"/>
      <point x="215" y="-93"/>
      <point x="214" y="-88"/>
      <point x="214" y="-79" type="curve" smooth="yes"/>
      <point x="213" y="-65"/>
      <point x="213" y="-29"/>
      <point x="213" y="-16" type="curve" smooth="yes"/>
      <point x="213" y="-4"/>
      <point x="211" y="-1"/>
      <point x="202" y="-1" type="curve" smooth="yes"/>
      <point x="101" y="3"/>
      <point x="29" y="69"/>
    </contour>
  </outline>
</glyph>
<glyph name="sterling" format="1">
  <advance width="565"/>
  <unicode hex="00A3"/>
  <outline>
    <contour>
      <point x="378" y="456" type="curve" smooth="yes"/>
      <point x="371" y="463"/>
      <point x="381" y="476"/>
      <point x="388" y="481" type="curve"/>
      <point x="411" y="503"/>
      <point x="413" y="568"/>
      <point x="345" y="568" type="curve" smooth="yes"/>
      <point x="290" y="568"/>
      <point x="217" y="529"/>
      <point x="216" y="466" type="curve" smooth="yes"/>
      <point x="216" y="443"/>
      <point x="226" y="418"/>
      <point x="248" y="395" type="curve"/>
      <point x="260" y="384"/>
      <point x="277" y="348"/>
      <point x="281" y="337" type="curve" smooth="yes"/>
      <point x="286" y="322"/>
      <point x="291" y="311"/>
      <point x="306" y="311" type="curve" smooth="yes"/>
      <point x="351" y="311"/>
      <point x="387" y="312"/>
      <point x="407" y="320" type="curve"/>
      <point x="418" y="323"/>
      <point x="423" y="324"/>
      <point x="428" y="324" type="curve" smooth="yes"/>
      <point x="434" y="324"/>
      <point x="437" y="316"/>
      <point x="432" y="303" type="curve"/>
      <point x="425" y="289"/>
      <point x="423" y="288"/>
      <point x="417" y="279" type="curve" smooth="yes"/>
      <point x="408" y="267"/>
      <point x="402" y="266"/>
      <point x="391" y="266" type="curve" smooth="yes"/>
      <point x="382" y="266"/>
      <point x="321" y="267"/>
      <point x="302" y="267" type="curve"/>
      <point x="284" y="266"/>
      <point x="280" y="263"/>
      <point x="279" y="252" type="curve" smooth="yes"/>
      <point x="277" y="202"/>
      <point x="248" y="152"/>
      <point x="215" y="114" type="curve"/>
      <point x="202" y="102" type="line"/>
      <point x="198" y="90"/>
      <point x="210" y="93"/>
      <point x="221" y="95" type="curve" smooth="yes"/>
      <point x="238" y="98"/>
      <point x="253" y="98"/>
      <point x="266" y="98" type="curve" smooth="yes"/>
      <point x="285" y="98"/>
      <point x="310" y="93"/>
      <point x="333" y="84" type="curve" smooth="yes"/>
      <point x="364" y="73"/>
      <point x="391" y="70"/>
      <point x="409" y="70" type="curve" smooth="yes"/>
      <point x="455" y="70"/>
      <point x="498" y="109"/>
      <point x="503" y="160" type="curve" smooth="yes"/>
      <point x="506" y="188"/>
      <point x="509" y="194"/>
      <point x="523" y="194" type="curve" smooth="yes"/>
      <point x="530" y="194"/>
      <point x="533" y="187"/>
      <point x="533" y="165" type="curve" smooth="yes"/>
      <point x="533" y="110"/>
      <point x="506" y="60"/>
      <point x="478" y="28" type="curve" smooth="yes"/>
      <point x="455" y="1"/>
      <point x="449" y="0"/>
      <point x="425" y="-4" type="curve"/>
      <point x="408" y="-8"/>
      <point x="396" y="-7"/>
      <point x="386" y="-7" type="curve" smooth="yes"/>
      <point x="361" y="-7"/>
      <point x="321" y="3"/>
      <point x="300" y="10" type="curve"/>
      <point x="270" y="18"/>
      <point x="255" y="23"/>
      <point x="209" y="22" type="curve" smooth="yes"/>
      <point x="175" y="22"/>
      <point x="142" y="18"/>
      <point x="98" y="0" type="curve"/>
      <point x="67" y="-11"/>
      <point x="54" y="-18"/>
      <point x="51" y="11" type="curve" smooth="yes"/>
      <point x="50" y="25"/>
      <point x="56" y="45"/>
      <point x="64" y="62" type="curve"/>
      <point x="73" y="78"/>
      <point x="79" y="82"/>
      <point x="98" y="83" type="curve" smooth="yes"/>
      <point x="127" y="85"/>
      <point x="144" y="96"/>
      <point x="171" y="126" type="curve"/>
      <point x="199" y="159"/>
      <point x="216" y="205"/>
      <point x="216" y="251" type="curve" smooth="yes"/>
      <point x="216" y="261"/>
      <point x="208" y="264"/>
      <point x="199" y="265" type="curve" smooth="yes"/>
      <point x="181" y="267"/>
      <point x="162" y="265"/>
      <point x="150" y="266" type="curve"/>
      <point x="134" y="266"/>
      <point x="131" y="270"/>
      <point x="137" y="286" type="curve" smooth="yes"/>
      <point x="143" y="301"/>
      <point x="166" y="300"/>
      <point x="184" y="302" type="curve" smooth="yes"/>
      <point x="209" y="306"/>
      <point x="210" y="322"/>
      <point x="187" y="348" type="curve" smooth="yes"/>
      <point x="159" y="380"/>
      <point x="140" y="415"/>
      <point x="140" y="455" type="curve" smooth="yes"/>
      <point x="140" y="545"/>
      <point x="275" y="604"/>
      <point x="354" y="604" type="curve" smooth="yes"/>
      <point x="413" y="604"/>
      <point x="471" y="597"/>
      <point x="471" y="545" type="curve" smooth="yes"/>
      <point x="471" y="513"/>
      <point x="437" y="476"/>
      <point x="409" y="461" type="curve" smooth="yes"/>
      <point x="401" y="456"/>
      <point x="385" y="450"/>
    </contour>
  </outline>
</glyph>
<glyph name="currency" format="1">
  <advance width="424"/>
  <unicode hex="00A4"/>
  <outline>
    <contour>
      <point x="65" y="436" type="curve" smooth="yes"/>
      <point x="75" y="429"/>
      <point x="88" y="423"/>
      <point x="98" y="417" type="curve" smooth="yes"/>
      <point x="102" y="414"/>
      <point x="107" y="413"/>
      <point x="113" y="417" type="curve" smooth="yes"/>
      <point x="146" y="438"/>
      <point x="183" y="446"/>
      <point x="214" y="446" type="curve" smooth="yes"/>
      <point x="256" y="446"/>
      <point x="290" y="438"/>
      <point x="319" y="420" type="curve" smooth="yes"/>
      <point x="326" y="416"/>
      <point x="330" y="417"/>
      <point x="338" y="420" type="curve" smooth="yes"/>
      <point x="347" y="424"/>
      <point x="355" y="430"/>
      <point x="365" y="436" type="curve" smooth="yes"/>
      <point x="380" y="445"/>
      <point x="393" y="446"/>
      <point x="398" y="439" type="curve" smooth="yes"/>
      <point x="402" y="432"/>
      <point x="396" y="425"/>
      <point x="390" y="419" type="curve"/>
      <point x="361" y="397" type="line"/>
      <point x="354" y="394"/>
      <point x="354" y="389"/>
      <point x="359" y="384" type="curve" smooth="yes"/>
      <point x="379" y="360"/>
      <point x="386" y="337"/>
      <point x="386" y="305" type="curve" smooth="yes"/>
      <point x="386" y="273"/>
      <point x="372" y="247"/>
      <point x="350" y="223" type="curve" smooth="yes"/>
      <point x="348" y="221"/>
      <point x="345" y="215"/>
      <point x="349" y="212" type="curve" smooth="yes"/>
      <point x="362" y="201"/>
      <point x="378" y="189"/>
      <point x="387" y="182" type="curve" smooth="yes"/>
      <point x="394" y="176"/>
      <point x="401" y="169"/>
      <point x="396" y="162" type="curve" smooth="yes"/>
      <point x="391" y="155"/>
      <point x="378" y="156"/>
      <point x="364" y="165" type="curve" smooth="yes"/>
      <point x="351" y="173"/>
      <point x="340" y="180"/>
      <point x="329" y="185" type="curve" smooth="yes"/>
      <point x="320" y="189"/>
      <point x="319" y="191"/>
      <point x="311" y="186" type="curve" smooth="yes"/>
      <point x="284" y="169"/>
      <point x="248" y="161"/>
      <point x="214" y="161" type="curve" smooth="yes"/>
      <point x="167" y="161"/>
      <point x="133" y="170"/>
      <point x="111" y="184" type="curve" smooth="yes"/>
      <point x="104" y="188"/>
      <point x="99" y="186"/>
      <point x="93" y="184" type="curve" smooth="yes"/>
      <point x="82" y="179"/>
      <point x="71" y="172"/>
      <point x="60" y="165" type="curve" smooth="yes"/>
      <point x="45" y="156"/>
      <point x="33" y="155"/>
      <point x="28" y="162" type="curve" smooth="yes"/>
      <point x="23" y="169"/>
      <point x="29" y="176"/>
      <point x="36" y="182" type="curve" smooth="yes"/>
      <point x="70" y="207" type="line" smooth="yes"/>
      <point x="76" y="212"/>
      <point x="77" y="216"/>
      <point x="72" y="222" type="curve" smooth="yes"/>
      <point x="53" y="246"/>
      <point x="45" y="270"/>
      <point x="45" y="302" type="curve" smooth="yes"/>
      <point x="45" y="337"/>
      <point x="55" y="361"/>
      <point x="72" y="380" type="curve"/>
      <point x="77" y="388"/>
      <point x="76" y="393"/>
      <point x="72" y="396" type="curve" smooth="yes"/>
      <point x="60" y="406"/>
      <point x="50" y="412"/>
      <point x="41" y="419" type="curve" smooth="yes"/>
      <point x="34" y="425"/>
      <point x="28" y="432"/>
      <point x="33" y="439" type="curve" smooth="yes"/>
      <point x="37" y="446"/>
      <point x="50" y="445"/>
    </contour>
    <contour>
      <point x="82" y="304" type="curve" smooth="yes"/>
      <point x="82" y="247"/>
      <point x="136" y="192"/>
      <point x="214" y="192" type="curve" smooth="yes"/>
      <point x="287" y="192"/>
      <point x="347" y="243"/>
      <point x="347" y="304" type="curve" smooth="yes"/>
      <point x="347" y="364"/>
      <point x="294" y="414"/>
      <point x="214" y="414" type="curve" smooth="yes"/>
      <point x="141" y="414"/>
      <point x="82" y="363"/>
    </contour>
  </outline>
</glyph>
